<?xml version="1.0" encoding="UTF-8"?>
<svg xmlns="http://www.w3.org/2000/svg" viewBox="0 0 350 170">
  <defs>
    <style>.a{fill:#2d61d3;}.b{fill:#f9cb01;}.c{fill:#fff;}.d{fill:#010101;}</style>
  </defs>
  <path class="a" d="M175,7a78,78,0,1,0,78,78A78,78,0,0,0,175,7Zm0,128.46A50.47,50.47,0,1,1,225.47,85,50.47,50.47,0,0,1,175,135.47Z"></path>
  <path class="b" d="M242.22,102.66a.23.23,0,0,0,.14,0,.24.24,0,0,0,.09-.23l-.72-4.16,3-3a.22.22,0,0,0,.06-.23.22.22,0,0,0-.19-.16l-4.18-.61-1.87-3.79a.23.23,0,0,0-.42,0l-1.87,3.79-4.18.61a.22.22,0,0,0-.19.16.2.2,0,0,0,.06.23l3,3-.72,4.16a.24.24,0,0,0,.09.23.25.25,0,0,0,.25,0l3.74-2,3.74,2a.22.22,0,0,0,.11,0Zm1.88-7.39"></path>
  <path class="b" d="M233.92,124.35a.2.2,0,0,0,.13,0,.23.23,0,0,0,.1-.23l-.72-4.17,3-3a.26.26,0,0,0,.06-.24.23.23,0,0,0-.19-.15l-4.18-.61-1.88-3.79a.21.21,0,0,0-.2-.13.23.23,0,0,0-.21.13L228,116l-4.19.61a.23.23,0,0,0-.12.39l3,3-.71,4.17a.23.23,0,0,0,.09.23.25.25,0,0,0,.25,0l3.74-2,3.74,2,.11,0ZM235.8,117"></path>
  <path class="b" d="M218.61,141.87a.22.22,0,0,0,.13,0,.23.23,0,0,0,.09-.23l-.71-4.16,3-3a.24.24,0,0,0,.06-.23.22.22,0,0,0-.19-.16l-4.19-.61L215,129.69a.23.23,0,0,0-.21-.13.23.23,0,0,0-.2.13l-1.87,3.79-4.19.61a.22.22,0,0,0-.19.16.24.24,0,0,0,.06.23l3,3-.71,4.16a.23.23,0,0,0,.09.23.23.23,0,0,0,.24,0l3.74-2,3.75,2a.2.2,0,0,0,.11,0Zm1.88-7.39"></path>
  <path class="b" d="M198.59,153.45a.24.24,0,0,0,.14,0,.22.22,0,0,0,.09-.22L198.1,149l3-2.95a.22.22,0,0,0,.06-.24.26.26,0,0,0-.19-.16l-4.18-.6-1.87-3.8a.23.23,0,0,0-.42,0l-1.87,3.8-4.18.6a.26.26,0,0,0-.19.16.24.24,0,0,0,.06.24l3,2.95-.72,4.17a.24.24,0,0,0,.09.22.23.23,0,0,0,.25,0l3.74-2,3.74,2,.11,0Zm1.88-7.4"></path>
  <path class="b" d="M151.41,153.45a.24.24,0,0,1-.14,0,.22.22,0,0,1-.09-.22l.72-4.17-3-2.95a.22.22,0,0,1-.06-.24.26.26,0,0,1,.19-.16l4.18-.6,1.87-3.8a.23.23,0,0,1,.42,0l1.87,3.8,4.18.6a.26.26,0,0,1,.19.16.24.24,0,0,1-.06.24l-3,2.95.72,4.17a.24.24,0,0,1-.09.22.23.23,0,0,1-.25,0l-3.74-2-3.74,2-.11,0Zm-1.88-7.4"></path>
  <path class="b" d="M131.39,141.87a.22.22,0,0,1-.13,0,.23.23,0,0,1-.09-.23l.71-4.16-3-3a.24.24,0,0,1-.06-.23.22.22,0,0,1,.19-.16l4.19-.61,1.87-3.79a.23.23,0,0,1,.21-.13.23.23,0,0,1,.2.13l1.87,3.79,4.19.61a.22.22,0,0,1,.19.16.24.24,0,0,1-.06.23l-3,3,.71,4.16a.23.23,0,0,1-.09.23.23.23,0,0,1-.24,0l-3.74-2-3.75,2a.2.2,0,0,1-.11,0Zm-1.88-7.39"></path>
  <path class="b" d="M116.08,124.35a.2.2,0,0,1-.13,0,.23.23,0,0,1-.1-.23l.72-4.17-3-3a.26.26,0,0,1-.06-.24.23.23,0,0,1,.19-.15l4.18-.61,1.88-3.79a.21.21,0,0,1,.2-.13.23.23,0,0,1,.21.13L122,116l4.19.61a.23.23,0,0,1,.12.39l-3,3,.71,4.17a.23.23,0,0,1-.09.23.25.25,0,0,1-.25,0l-3.74-2-3.74,2-.11,0ZM114.2,117"></path>
  <path class="b" d="M107.78,102.66a.23.23,0,0,1-.14,0,.24.24,0,0,1-.09-.23l.72-4.16-3-3a.22.22,0,0,1-.06-.23.22.22,0,0,1,.19-.16l4.18-.61,1.87-3.79a.23.23,0,0,1,.42,0l1.87,3.79,4.18.61a.22.22,0,0,1,.19.16.2.2,0,0,1-.06.23l-3,3,.72,4.16a.24.24,0,0,1-.09.23.25.25,0,0,1-.25,0l-3.74-2-3.74,2a.22.22,0,0,1-.11,0Zm-1.88-7.39"></path>
  <path class="c" d="M179.72,146.61v-1a4.74,4.74,0,0,0-9.44,0v1a2.47,2.47,0,0,0-1.54,2.29v5a2.48,2.48,0,0,0,2.48,2.47h7.56a2.48,2.48,0,0,0,2.48-2.47v-5A2.47,2.47,0,0,0,179.72,146.61Zm-3.7,5.5a1,1,0,1,1-2.05,0v-1.53a1,1,0,1,1,2.05,0Zm1.94-5.69H172v-.78a3,3,0,0,1,5.92,0Z"></path>
  <path class="d" d="M141.35,101.27a.3.3,0,0,1,.21.09l.54.59a4.33,4.33,0,0,1-1.53,1.14,5.2,5.2,0,0,1-2.16.41,5,5,0,0,1-2-.39,4.27,4.27,0,0,1-1.53-1.07,4.72,4.72,0,0,1-1-1.65,6.3,6.3,0,0,1-.35-2.13,5.79,5.79,0,0,1,.37-2.12A4.92,4.92,0,0,1,135,94.48a4.63,4.63,0,0,1,1.62-1.07,5.49,5.49,0,0,1,2.1-.39,4.94,4.94,0,0,1,1.94.35,5.11,5.11,0,0,1,1.46.95l-.45.64a.46.46,0,0,1-.12.12.3.3,0,0,1-.18,0,.44.44,0,0,1-.2-.07l-.25-.17a3.76,3.76,0,0,0-.33-.22,3.64,3.64,0,0,0-1.07-.38,4.89,4.89,0,0,0-.81-.07,3.91,3.91,0,0,0-1.51.29,3.39,3.39,0,0,0-1.17.8,3.61,3.61,0,0,0-.77,1.27,4.93,4.93,0,0,0-.28,1.68,5,5,0,0,0,.28,1.71,3.63,3.63,0,0,0,.75,1.27,3.08,3.08,0,0,0,1.13.79,3.6,3.6,0,0,0,1.4.27,6.68,6.68,0,0,0,.82,0,3.28,3.28,0,0,0,.67-.17,2.42,2.42,0,0,0,.58-.29,4,4,0,0,0,.54-.42A.36.36,0,0,1,141.35,101.27Z"></path>
  <path class="d" d="M153.44,98.26a5.79,5.79,0,0,1-.37,2.12,4.68,4.68,0,0,1-2.62,2.73,5.53,5.53,0,0,1-2.07.38,5.39,5.39,0,0,1-2-.38,4.71,4.71,0,0,1-1.6-1.08,4.81,4.81,0,0,1-1-1.65,6.39,6.39,0,0,1,0-4.23,5,5,0,0,1,1-1.66,4.71,4.71,0,0,1,1.6-1.08,5.2,5.2,0,0,1,2-.39,5.34,5.34,0,0,1,2.07.39A4.67,4.67,0,0,1,152,94.49a4.8,4.8,0,0,1,1,1.66A5.78,5.78,0,0,1,153.44,98.26Zm-1.42,0a5.21,5.21,0,0,0-.26-1.69A3.68,3.68,0,0,0,151,95.3a3.27,3.27,0,0,0-1.14-.8,4.16,4.16,0,0,0-3,0,3.22,3.22,0,0,0-1.15.8,3.68,3.68,0,0,0-.73,1.27,5.62,5.62,0,0,0,0,3.38,3.68,3.68,0,0,0,.73,1.27,3.08,3.08,0,0,0,1.15.79,4.16,4.16,0,0,0,3,0,3.12,3.12,0,0,0,1.14-.79,3.68,3.68,0,0,0,.73-1.27A5.17,5.17,0,0,0,152,98.26Z"></path>
  <path class="d" d="M160.55,100c0,.13.1.25.14.38l.15-.38.18-.37,3.47-6.3a.46.46,0,0,1,.19-.2,1.12,1.12,0,0,1,.29,0h1v10.24h-1.21V95.53l0-.35-3.51,6.41a.57.57,0,0,1-.51.32h-.2a.56.56,0,0,1-.5-.32l-3.58-6.43,0,.37c0,.11,0,.22,0,.32v7.53h-1.22V93.14h1a1,1,0,0,1,.28,0,.41.41,0,0,1,.19.2l3.54,6.31A2,2,0,0,1,160.55,100Z"></path>
  <path class="d" d="M170,99.55v3.83h-1.38V93.14h3a5.75,5.75,0,0,1,1.7.22,3.47,3.47,0,0,1,1.19.64,2.71,2.71,0,0,1,.7,1,3.64,3.64,0,0,1,.23,1.31,3.29,3.29,0,0,1-.25,1.31,2.77,2.77,0,0,1-.73,1,3.32,3.32,0,0,1-1.2.67,5.15,5.15,0,0,1-1.64.24Zm0-1.1h1.64a3.05,3.05,0,0,0,1-.16,2,2,0,0,0,.76-.44,1.85,1.85,0,0,0,.47-.67,2.45,2.45,0,0,0,.16-.87,2,2,0,0,0-.61-1.53,2.67,2.67,0,0,0-1.83-.55H170Z"></path>
  <path class="d" d="M178.61,102.22H183v1.16h-5.82V93.14h1.39Z"></path>
  <path class="d" d="M186.22,103.38h-1.39V93.14h1.39Z"></path>
  <path class="d" d="M197.39,103.38h-1.07a.45.45,0,0,1-.3-.09.46.46,0,0,1-.17-.24l-1-2.47h-4.6l-1,2.47a.48.48,0,0,1-.17.23.44.44,0,0,1-.3.1h-1.07l4.1-10.24h1.4Zm-6.71-3.8h3.82l-1.61-4.17a9.36,9.36,0,0,1-.3-1c-.06.19-.11.37-.16.54l-.14.43Z"></path>
  <path class="d" d="M199.67,93.18a1.12,1.12,0,0,1,.21.19l5.93,7.72,0-.36V93.14H207v10.24h-.7a.52.52,0,0,1-.49-.25l-5.93-7.71c0,.12,0,.23,0,.35s0,.22,0,.31v7.3h-1.22V93.14h.72A.61.61,0,0,1,199.67,93.18Z"></path>
  <path class="d" d="M216.47,93.14V94.3h-3.31v9.08h-1.39V94.3h-3.32V93.14Z"></path>
  <path class="c" d="M113.11,73.54a3.4,3.4,0,0,1,2.11,1.36,3.58,3.58,0,0,1,.49,2.5,3.26,3.26,0,0,1-1.5,2.46,4.72,4.72,0,0,1-3.24.58l-.88-.11a5.26,5.26,0,0,1-2.19-.74,3.49,3.49,0,0,1-1.33-1.48,3.73,3.73,0,0,1-.27-2,3.33,3.33,0,0,1,1.11-2.24,3.48,3.48,0,0,1,2.39-.74l-.15,1.22a2.63,2.63,0,0,0-1.68.48,2.06,2.06,0,0,0-.68,1.41,2.16,2.16,0,0,0,.63,1.92,3.93,3.93,0,0,0,2.35,1l.89.11a4,4,0,0,0,2.45-.32,2,2,0,0,0,1.11-1.63,2.39,2.39,0,0,0-.26-1.61,2.58,2.58,0,0,0-1.5-.91Z"></path>
  <path class="c" d="M117.35,68.63a2.72,2.72,0,0,1-.74,0,2.58,2.58,0,0,1,.34,2.1,2.38,2.38,0,0,1-1,1.47,1.85,1.85,0,0,1-1.58.27,1.92,1.92,0,0,1-1.41-1.2,3.86,3.86,0,0,1,0-2.37l.28-1.1-.52-.14a1.31,1.31,0,0,0-1,.12,1.43,1.43,0,0,0-.62,1,1.71,1.71,0,0,0,0,1.1.93.93,0,0,0,.64.6l-.3,1.14a1.57,1.57,0,0,1-.87-.6,2.46,2.46,0,0,1-.49-1.14,3.34,3.34,0,0,1,.07-1.4,2.76,2.76,0,0,1,1-1.66,2.12,2.12,0,0,1,1.76-.27l3.06.78a4.08,4.08,0,0,0,1.52.14l.1,0ZM116,70.29a2.08,2.08,0,0,0,0-1.08,1.83,1.83,0,0,0-.54-.88L114.08,68l-.23.89c-.35,1.4-.12,2.2.69,2.41a1.06,1.06,0,0,0,.93-.15A1.41,1.41,0,0,0,116,70.29Z"></path>
  <path class="c" d="M118.56,64.89,118.18,66,109,62.83l.38-1.11Z"></path>
  <path class="c" d="M111.11,60a.71.71,0,0,1-.38-.34.62.62,0,0,1,0-.55.65.65,0,0,1,.38-.41.69.69,0,0,1,.51,0,.73.73,0,0,1,.38.35.71.71,0,0,1,0,.55.69.69,0,0,1-.37.41A.65.65,0,0,1,111.11,60Zm8.54,2.06-.44,1.09-6.37-2.56.44-1.09Z"></path>
  <path class="c" d="M120.57,59.92l-5.38-2.55-.47,1L113.9,58l.47-1-.64-.3a2.32,2.32,0,0,1-1.29-1.27,2.19,2.19,0,0,1,.17-1.76,3,3,0,0,1,.44-.68l.83.46a2.65,2.65,0,0,0-.32.55,1.13,1.13,0,0,0-.08.94,1.38,1.38,0,0,0,.73.69l.66.31.63-1.33.82.39-.63,1.33,5.39,2.55Z"></path>
  <path class="c" d="M119,55a4,4,0,0,1-1.35-1.27,2.94,2.94,0,0,1-.51-1.59,3,3,0,0,1,.45-1.61,2.9,2.9,0,0,1,2-1.45,3.75,3.75,0,0,1,2.66.58l.07,0A4,4,0,0,1,123.68,51a3,3,0,0,1,.51,1.58,3.12,3.12,0,0,1-.46,1.64,2.89,2.89,0,0,1-2,1.44,3.67,3.67,0,0,1-2.65-.57Zm.73-.94a2.9,2.9,0,0,0,1.84.48A1.8,1.8,0,0,0,123,52.13a3.18,3.18,0,0,0-1.42-1.46,2.87,2.87,0,0,0-1.84-.48,1.73,1.73,0,0,0-1.34.87,1.67,1.67,0,0,0-.12,1.55A3.14,3.14,0,0,0,119.74,54.09Z"></path>
  <path class="c" d="M123.26,44.33a4.31,4.31,0,0,0-.38.44,1.56,1.56,0,0,0-.13,1.85l3.93,2.88-.69,1-5.54-4.06.68-.93.65.46a1.82,1.82,0,0,1,.22-1.87,1.24,1.24,0,0,1,.38-.36Z"></path>
  <path class="c" d="M124.08,41.68l.67.54a2.48,2.48,0,0,1,.62-2.19c1-1.09,2.06-1.09,3.3,0l3.39,3-.78.88-3.4-3a1.58,1.58,0,0,0-1-.47,1.37,1.37,0,0,0-1,.54,1.7,1.7,0,0,0-.44.95,2.05,2.05,0,0,0,.16,1l3.65,3.25-.77.88-5.14-4.56Z"></path>
  <path class="c" d="M127.23,35.65a.7.7,0,0,1-.21-.46.79.79,0,0,1,.75-.72.7.7,0,0,1,.47.23.69.69,0,0,1,.2.46.67.67,0,0,1-.25.5.62.62,0,0,1-1,0Zm6.92,5.41-.85.82-4.74-5,.85-.81Z"></path>
  <path class="c" d="M138.66,37.21a2.19,2.19,0,0,1-.58-.46,2.64,2.64,0,0,1-1,1.9,2.45,2.45,0,0,1-1.65.6,1.87,1.87,0,0,1-1.42-.73,1.93,1.93,0,0,1-.42-1.8A3.93,3.93,0,0,1,135,34.81l.89-.72-.34-.42a1.34,1.34,0,0,0-.9-.53,1.52,1.52,0,0,0-1.08.4,1.72,1.72,0,0,0-.61.91.94.94,0,0,0,.15.87l-.92.74a1.59,1.59,0,0,1-.34-1,2.51,2.51,0,0,1,.29-1.22,3.62,3.62,0,0,1,.89-1.08,2.81,2.81,0,0,1,1.82-.71,2.16,2.16,0,0,1,1.57.84l2,2.45a4,4,0,0,0,1.14,1l.06.08Zm-2.08.53a2,2,0,0,0,.64-.88,1.68,1.68,0,0,0,.09-1l-.89-1.09-.71.58c-1.12.9-1.41,1.68-.89,2.34a1.12,1.12,0,0,0,.83.44A1.38,1.38,0,0,0,136.58,37.74Z"></path>
  <path class="c" d="M148,28a3.41,3.41,0,0,1,.16,2.51,3.61,3.61,0,0,1-1.73,1.87,3.29,3.29,0,0,1-2.87.25,4.77,4.77,0,0,1-2.39-2.27l-.43-.78a5.37,5.37,0,0,1-.7-2.2,3.46,3.46,0,0,1,.42-1.95,3.5,3.5,0,0,1,1.45-1.4,3.33,3.33,0,0,1,2.46-.43,3.39,3.39,0,0,1,2,1.48l-1.07.6a2.63,2.63,0,0,0-1.38-1.07,2.08,2.08,0,0,0-1.54.29,2.16,2.16,0,0,0-1.18,1.64,4,4,0,0,0,.62,2.47l.43.78a4.07,4.07,0,0,0,1.71,1.79,2,2,0,0,0,2-.07A2.35,2.35,0,0,0,147,30.31a2.51,2.51,0,0,0-.15-1.75Z"></path>
  <path class="c" d="M148.9,26.92a4,4,0,0,1-.3-1.83,2.92,2.92,0,0,1,.56-1.57,3,3,0,0,1,1.34-1,2.88,2.88,0,0,1,2.47.06,3.77,3.77,0,0,1,1.76,2.08l0,.07a4.09,4.09,0,0,1,.31,1.82,3,3,0,0,1-.56,1.56,3,3,0,0,1-1.36,1,2.89,2.89,0,0,1-2.46-.07A3.69,3.69,0,0,1,148.93,27Zm1.15-.31a2.93,2.93,0,0,0,1.17,1.51,1.7,1.7,0,0,0,1.58.12,1.72,1.72,0,0,0,1.06-1.18,3.25,3.25,0,0,0-.24-2,3,3,0,0,0-1.18-1.5,1.73,1.73,0,0,0-1.58-.13,1.71,1.71,0,0,0-1.05,1.17A3.15,3.15,0,0,0,150.05,26.61Z"></path>
  <path class="c" d="M156.46,20.57l.26.82a2.5,2.5,0,0,1,1.73-1.49c1.4-.37,2.32.23,2.75,1.8l1.18,4.39-1.13.3L160.07,22a1.6,1.6,0,0,0-.61-1,1.39,1.39,0,0,0-1.1-.07,1.71,1.71,0,0,0-.89.55,2.13,2.13,0,0,0-.44.95l1.27,4.73-1.13.3-1.79-6.63Z"></path>
  <path class="c" d="M167.56,23.38a.84.84,0,0,0-.47-.67,3.24,3.24,0,0,0-1.3-.26,6.23,6.23,0,0,1-1.47-.24,2.16,2.16,0,0,1-.86-.51,1.56,1.56,0,0,1-.38-.83,1.77,1.77,0,0,1,.49-1.52,2.75,2.75,0,0,1,1.72-.85,2.81,2.81,0,0,1,2,.31,1.88,1.88,0,0,1,.95,1.41L167,20.4a1,1,0,0,0-.53-.76,1.53,1.53,0,0,0-1.07-.19,1.65,1.65,0,0,0-1,.43.89.89,0,0,0-.25.77.75.75,0,0,0,.43.59,4.17,4.17,0,0,0,1.27.22,6.56,6.56,0,0,1,1.48.25,2.2,2.2,0,0,1,.9.53,1.67,1.67,0,0,1,.4.89,1.75,1.75,0,0,1-.51,1.56,3.1,3.1,0,0,1-1.8.84,3.49,3.49,0,0,1-1.49-.07,2.38,2.38,0,0,1-1.11-.65,2,2,0,0,1-.52-1.07l1.16-.18a1.22,1.22,0,0,0,.61.86,1.8,1.8,0,0,0,1.2.16,1.91,1.91,0,0,0,1-.42A.85.85,0,0,0,167.56,23.38Z"></path>
  <path class="c" d="M174.48,24a2.47,2.47,0,0,1-2,.88,2.14,2.14,0,0,1-1.7-.57,2.77,2.77,0,0,1-.66-1.86L170,18l1.18,0,.18,4.43c0,1,.48,1.54,1.33,1.51a1.75,1.75,0,0,0,1.74-1.07l-.2-5,1.18,0,.27,6.86-1.11,0Z"></path>
  <path class="c" d="M179,17.85l-.05.76A2.55,2.55,0,0,1,181,18a2,2,0,0,1,1.83,1.31,2.52,2.52,0,0,1,1-.7,2.73,2.73,0,0,1,1.33-.17c1.5.17,2.17,1,2,2.63l-.5,4.57-1.17-.12L186,21a1.59,1.59,0,0,0-.22-1.13,1.45,1.45,0,0,0-1.08-.48,1.53,1.53,0,0,0-1.12.27,1.6,1.6,0,0,0-.61,1l-.49,4.53L181.32,25l.48-4.47a1.32,1.32,0,0,0-1.3-1.65,1.59,1.59,0,0,0-1.68.81l-.53,5-1.17-.13.74-6.83Z"></path>
  <path class="c" d="M190.83,26.85a3,3,0,0,1-2-1.45,3.37,3.37,0,0,1-.24-2.6l0-.21a4.12,4.12,0,0,1,.84-1.67,3,3,0,0,1,1.37-.94,2.67,2.67,0,0,1,1.58-.06,2.55,2.55,0,0,1,1.8,1.38,3.85,3.85,0,0,1,.09,2.63l-.12.47-4.51-1.16a2.39,2.39,0,0,0,.17,1.73,1.86,1.86,0,0,0,1.24,1,2.09,2.09,0,0,0,1.08,0,2.75,2.75,0,0,0,.9-.46l.55.72A2.86,2.86,0,0,1,190.83,26.85Zm1.39-6a1.57,1.57,0,0,0-1.28.21,2.49,2.49,0,0,0-.94,1.25l3.33.86,0-.08a2.21,2.21,0,0,0-.12-1.47A1.5,1.5,0,0,0,192.22,20.85Z"></path>
  <path class="c" d="M199.62,23.45a3.69,3.69,0,0,0-.53-.24,1.56,1.56,0,0,0-1.81.4l-1.64,4.59-1.1-.39,2.3-6.47,1.08.38-.25.76a1.82,1.82,0,0,1,1.85-.32,1.13,1.13,0,0,1,.46.26Z"></path>
  <path class="c" d="M204.28,27.93l-1.72,3.19-1.07-.58,4.38-8.14,3,1.62a3.46,3.46,0,0,1,1.73,1.81,2.94,2.94,0,0,1-1.94,3.64,3.62,3.62,0,0,1-2.47-.5Zm.47-.87,1.93,1a2.17,2.17,0,0,0,1.54.31,1.69,1.69,0,0,0,1.09-.93,1.73,1.73,0,0,0,.16-1.41,2,2,0,0,0-1-1.13l-2-1.07Z"></path>
  <path class="c" d="M214.27,31.44a2.73,2.73,0,0,0-.45-.36A1.53,1.53,0,0,0,212,31l-2.74,4-1-.66,3.85-5.69.95.64-.43.67a1.82,1.82,0,0,1,1.87.16,1.21,1.21,0,0,1,.38.36Z"></path>
  <path class="c" d="M212.76,37.61l-.93-.71L216,31.46l.93.71Zm4.3-7.65a.68.68,0,0,1,.43-.28.78.78,0,0,1,.82.63.68.68,0,0,1-.15.49.65.65,0,0,1-.43.27.67.67,0,0,1-.53-.16.71.71,0,0,1-.3-.47A.68.68,0,0,1,217.06,30Z"></path>
  <path class="c" d="M216.86,39l4.8-2.78.89.8-6.43,3.46-.66-.6,2.74-6.77.89.8Z"></path>
  <path class="c" d="M221.35,45.84a2.57,2.57,0,0,1,.43-.6,2.61,2.61,0,0,1-1.94-.89,2.45,2.45,0,0,1-.69-1.62,1.88,1.88,0,0,1,.65-1.46,2,2,0,0,1,1.78-.51,3.87,3.87,0,0,1,2,1.31l.76.85.4-.36a1.31,1.31,0,0,0,.49-.93,1.53,1.53,0,0,0-.46-1.05,1.71,1.71,0,0,0-.94-.57.92.92,0,0,0-.85.2l-.79-.88a1.58,1.58,0,0,1,1-.39,2.33,2.33,0,0,1,1.22.23,3.21,3.21,0,0,1,1.13.83,2.68,2.68,0,0,1,.8,1.78,2.12,2.12,0,0,1-.74,1.61l-2.35,2.12a3.82,3.82,0,0,0-1,1.18l-.08.07Zm-.64-2a2,2,0,0,0,.92.58,1.74,1.74,0,0,0,1,0l1-.94-.61-.69c-1-1.06-1.76-1.32-2.38-.75a1,1,0,0,0-.4.85A1.46,1.46,0,0,0,220.71,43.8Z"></path>
  <path class="c" d="M225.3,49.58a1.65,1.65,0,0,0,.95.67,1.33,1.33,0,0,0,1.07-.13l.65.9a2.21,2.21,0,0,1-1.15.33,2.66,2.66,0,0,1-1.27-.32A3,3,0,0,1,224,47.78a3.68,3.68,0,0,1,1.59-2.16l.16-.12a4.25,4.25,0,0,1,1.67-.74,2.89,2.89,0,0,1,1.6.15A3.06,3.06,0,0,1,230.3,46a2.8,2.8,0,0,1,.56,2,2.5,2.5,0,0,1-1,1.71l-.65-.91a1.57,1.57,0,0,0,.29-2.2,1.64,1.64,0,0,0-1.33-.76,3.1,3.1,0,0,0-1.8.69l-.18.13a3,3,0,0,0-1.2,1.46A1.63,1.63,0,0,0,225.3,49.58Z"></path>
  <path class="c" d="M229.38,54.32l5.26-1.17.63,1.09L227,55.79a2.19,2.19,0,0,1-2.5-.92l-.1-.2-.14-.42.82-.47.14.28a1.54,1.54,0,0,0,.67.69,1.75,1.75,0,0,0,1,0l.74-.12,4.67-5.51.64,1.11Z"></path>
  <path class="c" d="M235.09,65.3l-1.34-3.63-2.57,0-.43-1.18,9.89.12.37,1-7.46,6.51L233.12,67Zm-.27-3.63,1.08,3,3.51-3Z"></path>
  <path class="c" d="M235.13,71.42a1.62,1.62,0,0,0,.62,1,1.28,1.28,0,0,0,1,.29l.25,1.09a2.13,2.13,0,0,1-1.18-.15,2.59,2.59,0,0,1-1.06-.78,2.89,2.89,0,0,1-.61-1.21,2.82,2.82,0,0,1,.41-2.39,3.74,3.74,0,0,1,2.3-1.39l.19,0a4.22,4.22,0,0,1,1.83,0,2.78,2.78,0,0,1,1.42.76,3.07,3.07,0,0,1,.79,1.48,2.8,2.8,0,0,1-.24,2,2.5,2.5,0,0,1-1.57,1.2l-.25-1.08a1.61,1.61,0,0,0,1.12-1.93,1.64,1.64,0,0,0-.95-1.2,3,3,0,0,0-1.92-.06l-.22,0a3,3,0,0,0-1.67.89A1.66,1.66,0,0,0,235.13,71.42Z"></path>
  <path class="c" d="M243.74,75.77l-1.65.23.18,1.27-.9.13-.18-1.27-4.22.6a.93.93,0,0,0-.59.25.72.72,0,0,0-.12.61,2.52,2.52,0,0,0,.15.54l-.94.13a3.57,3.57,0,0,1-.25-.87,1.46,1.46,0,0,1,.31-1.24,2,2,0,0,1,1.28-.59L241,75l-.18-1.24.9-.13.17,1.24,1.65-.23Z"></path>
  <path d="M153.37,82.8a8.15,8.15,0,0,1-2.74,5.85,9.67,9.67,0,0,1-6.53,2.13,8.64,8.64,0,0,1-7-3c-1.7-2-2.54-4.71-2.54-8.18V78.21a13.79,13.79,0,0,1,1.17-5.85,8.81,8.81,0,0,1,3.34-3.89,10.46,10.46,0,0,1,11.48.79,8.74,8.74,0,0,1,2.81,6h-4.74A4.84,4.84,0,0,0,147.42,72a4.62,4.62,0,0,0-3.25-1,4,4,0,0,0-3.55,1.7A9.52,9.52,0,0,0,139.41,78v1.74c0,2.49.37,4.31,1.13,5.45a4,4,0,0,0,3.56,1.73,4.67,4.67,0,0,0,3.28-1,4.51,4.51,0,0,0,1.25-3.1Z"></path>
  <path d="M174.57,82.8a8.16,8.16,0,0,1-2.75,5.85,9.64,9.64,0,0,1-6.52,2.13,8.65,8.65,0,0,1-7-3c-1.69-2-2.54-4.71-2.54-8.18V78.21A13.79,13.79,0,0,1,157,72.36a8.83,8.83,0,0,1,3.35-3.89,10.44,10.44,0,0,1,11.47.79,8.75,8.75,0,0,1,2.82,6h-4.75A4.79,4.79,0,0,0,168.61,72a4.6,4.6,0,0,0-3.25-1,4,4,0,0,0-3.55,1.7A9.52,9.52,0,0,0,160.6,78v1.74a10.18,10.18,0,0,0,1.13,5.45,4,4,0,0,0,3.57,1.73,4.68,4.68,0,0,0,3.28-1,4.55,4.55,0,0,0,1.24-3.1Z"></path>
  <path d="M182.43,82.35v8.12h-4.75v-23h9a10.48,10.48,0,0,1,4.57,1,7,7,0,0,1,3,2.69,7.62,7.62,0,0,1,1.06,4A6.62,6.62,0,0,1,193,80.4a9.66,9.66,0,0,1-6.41,1.95Zm0-3.84h4.23a4.14,4.14,0,0,0,2.88-.89,3.24,3.24,0,0,0,1-2.53,3.8,3.8,0,0,0-1-2.73,3.71,3.71,0,0,0-2.75-1.08h-4.35Z"></path>
  <path d="M208.76,85.72h-8.32l-1.58,4.75h-5.05l8.58-23h4.39l8.62,23h-5Zm-7-3.84h5.76l-2.9-8.62Z"></path>
</svg>
