<?xml version="1.0" encoding="UTF-8"?>
<svg xmlns="http://www.w3.org/2000/svg" xmlns:xlink="http://www.w3.org/1999/xlink" viewBox="0 0 350 170">
  <defs>
    <style>.a{fill:none;}.b{isolation:isolate;}.c,.e{fill:#0072be;}.d{fill:#2b2a29;}.e,.f,.h{fill-rule:evenodd;}.f{fill:#cfa94b;}.g{clip-path:url(#a);}.h{fill:url(#b);}.i{fill:url(#c);}.j{fill:#fff;}</style>
    <clipPath id="a">
      <path class="a" d="M282.73,42.87A42.13,42.13,0,1,1,240.6,85,42.13,42.13,0,0,1,282.73,42.87Z"></path>
    </clipPath>
    <linearGradient id="b" x1="353.03" y1="263.8" x2="325.7" y2="276.12" gradientTransform="matrix(2.79, 0, 0, -2.79, -664.23, 838.28)" gradientUnits="userSpaceOnUse">
      <stop offset="0" stop-color="#276faa"></stop>
      <stop offset="1" stop-color="#19bbe9"></stop>
    </linearGradient>
    <linearGradient id="c" x1="345.18" y1="280.34" x2="333.56" y2="259.57" gradientTransform="matrix(2.79, 0, 0, -2.79, -664.23, 838.28)" gradientUnits="userSpaceOnUse">
      <stop offset="0" stop-color="#255cae"></stop>
      <stop offset="1" stop-color="#19bbe9"></stop>
    </linearGradient>
  </defs>
  <g class="b">
    <path class="c" d="M77.67,85.53l7.91-.73a8,8,0,0,0,8.78,7.33c2.61,0,4.58-.52,5.91-1.58a4.63,4.63,0,0,0,2-3.69,3.39,3.39,0,0,0-.84-2.31,6.81,6.81,0,0,0-2.92-1.66q-1.43-.47-6.5-1.67-6.54-1.53-9.17-3.78a9.76,9.76,0,0,1-3.7-7.7,9.52,9.52,0,0,1,1.74-5.47,10.82,10.82,0,0,1,5-3.87,21,21,0,0,1,7.92-1.33q7.57,0,11.4,3.15a11,11,0,0,1,4,8.43l-8.12.34a6.5,6.5,0,0,0-2.24-4.24,8.5,8.5,0,0,0-5.14-1.29,9.69,9.69,0,0,0-5.55,1.38,2.76,2.76,0,0,0-1.29,2.38,2.9,2.9,0,0,0,1.21,2.32q1.53,1.23,7.46,2.56a40.88,40.88,0,0,1,8.77,2.75,11.16,11.16,0,0,1,4.44,3.89A11.52,11.52,0,0,1,108.46,93,11.36,11.36,0,0,1,103,97.26a23.89,23.89,0,0,1-8.76,1.4q-7.62,0-11.71-3.36T77.67,85.53Z"></path>
    <path class="c" d="M115.56,79.08a23.4,23.4,0,0,1,1.84-9.81A18.17,18.17,0,0,1,121.15,64a15.76,15.76,0,0,1,5.2-3.44A23,23,0,0,1,135,59.07q8.88,0,14.22,5.24t5.34,14.59q0,9.27-5.3,14.5t-14.15,5.23q-9,0-14.27-5.21T115.56,79.08Zm8.37-.26q0,6.5,3.16,9.85a11.22,11.22,0,0,0,16,0q3.12-3.33,3.11-10t-3-9.82a11.64,11.64,0,0,0-16.14,0Q123.93,72.22,123.93,78.82Z"></path>
    <path class="c" d="M186.65,83.91l7.88,2.38q-1.82,6.25-6,9.3a19.7,19.7,0,0,1-23.86-2.17q-5.16-5.2-5.16-14.23,0-9.56,5.19-14.84t13.63-5.28q7.38,0,12,4.14a15,15,0,0,1,4.12,7.05l-8,1.83a8.07,8.07,0,0,0-3-4.7,8.8,8.8,0,0,0-5.5-1.72,9.39,9.39,0,0,0-7.26,3q-2.77,3.06-2.78,9.89,0,7.26,2.74,10.34A9.13,9.13,0,0,0,177.74,92a8.37,8.37,0,0,0,5.57-2A11.18,11.18,0,0,0,186.65,83.91Z"></path>
  </g>
  <g class="b">
    <path class="c" d="M209.81,61.22v36h-4.89v-36Z"></path>
    <path class="c" d="M223.24,61.22v36h-4.89v-36Z"></path>
  </g>
  <g class="b">
    <path class="d" d="M84.44,102.68H79v-2H92.3v2H86.79v16H84.44Z"></path>
    <path class="d" d="M99.07,118.73v-7.65l-5.7-10.38H96l2.54,5c.69,1.37,1.23,2.46,1.79,3.72h.05c.51-1.18,1.13-2.35,1.82-3.72l2.6-5h2.64l-6,10.35v7.68Z"></path>
    <path class="d" d="M109.33,100.91a26.76,26.76,0,0,1,4.47-.35,7.44,7.44,0,0,1,5.06,1.5,4.86,4.86,0,0,1,1.58,3.77,5.3,5.3,0,0,1-1.4,3.85,7.46,7.46,0,0,1-5.51,2,7.72,7.72,0,0,1-1.87-.16v7.23h-2.33Zm2.33,8.69a7.52,7.52,0,0,0,1.93.19c2.81,0,4.52-1.36,4.52-3.85s-1.69-3.53-4.26-3.53a9.54,9.54,0,0,0-2.19.19Z"></path>
    <path class="d" d="M132.9,110.27h-7v6.5h7.81v2H123.56v-18h9.74v2h-7.41v5.7h7Z"></path>
    <path class="d" d="M144.72,100.7v18h-2.33v-18Z"></path>
    <path class="d" d="M151.11,100.7v18h-2.33v-18Z"></path>
  </g>
  <path class="e" d="M183.21,101h57a45.68,45.68,0,0,0,10.1,15.16v1.32H183.21V101Z"></path>
  <path class="f" d="M25.14,82.08h1.77v-10A17.31,17.31,0,0,1,44.19,54.78h3.5A17.35,17.35,0,0,1,64.87,70.17a55,55,0,0,0-5.11,5.92v-4A12.12,12.12,0,0,0,47.69,60h-3.5A12.12,12.12,0,0,0,32.12,72.06v10H55.58a164.17,164.17,0,0,0-10.43,19L33.75,86.25l-7,9.07c5.32,3,13.46,13.76,18.53,20.16.79-1.68,14.05-16.36,21.4-24.43V116.2H25.14Z"></path>
  <path class="a" d="M282.73,42.87A42.13,42.13,0,1,1,240.6,85,42.13,42.13,0,0,1,282.73,42.87Z"></path>
  <path class="h" d="M267.53,46a41.82,41.82,0,1,1-23.76,54.16A41.82,41.82,0,0,1,267.53,46Z"></path>
  <circle class="i" cx="282.73" cy="85" r="33.2"></circle>
  <g class="b">
    <path class="j" d="M261,74.55l-1.26,3.81h-1.62l4.12-12.12h1.89l4.14,12.12h-1.68l-1.29-3.81Zm4-1.22-1.18-3.49c-.27-.8-.45-1.52-.63-2.22h0c-.18.72-.38,1.46-.61,2.2l-1.19,3.51Z"></path>
    <path class="j" d="M271.66,66.24V78.36h-1.57V66.24Z"></path>
    <path class="j" d="M282.87,78a8,8,0,0,1-3.21.57c-3.41,0-6-2.16-6-6.13A6,6,0,0,1,280,66a6.38,6.38,0,0,1,2.87.54l-.37,1.28a5.69,5.69,0,0,0-2.45-.51c-2.84,0-4.73,1.82-4.73,5,0,3,1.71,4.88,4.66,4.88a6.36,6.36,0,0,0,2.55-.5Z"></path>
    <path class="j" d="M284.83,66.38a19,19,0,0,1,3-.23,5,5,0,0,1,3.4,1,3.26,3.26,0,0,1,1.07,2.54,3.57,3.57,0,0,1-.94,2.59,5,5,0,0,1-3.7,1.33,5.41,5.41,0,0,1-1.26-.1v4.85h-1.57Zm1.57,5.85a5.23,5.23,0,0,0,1.29.12c1.89,0,3-.91,3-2.59s-1.13-2.37-2.86-2.37a6.76,6.76,0,0,0-1.47.12Z"></path>
    <path class="j" d="M294.85,74.55l-1.26,3.81H292l4.11-12.12H298l4.14,12.12h-1.67l-1.3-3.81Zm4-1.22-1.19-3.49c-.27-.8-.45-1.52-.63-2.22h0c-.18.72-.38,1.46-.62,2.2l-1.18,3.51Z"></path>
  </g>
  <line class="a" x1="258.84" y1="82.5" x2="308.5" y2="82.57"></line>
  <g class="b">
    <path class="j" d="M266.37,97.4a5.71,5.71,0,0,0,2.88.81c1.63,0,2.59-.87,2.59-2.12s-.66-1.82-2.34-2.47c-2-.71-3.27-1.76-3.27-3.51,0-1.93,1.6-3.37,4-3.37a5.65,5.65,0,0,1,2.74.61l-.44,1.3a5,5,0,0,0-2.36-.58c-1.69,0-2.33,1-2.33,1.85,0,1.16.75,1.73,2.46,2.4,2.1.81,3.17,1.82,3.17,3.64s-1.42,3.57-4.35,3.57a6.42,6.42,0,0,1-3.16-.79Z"></path>
    <path class="j" d="M286.27,93c0,4.27-2.6,6.53-5.76,6.53s-5.58-2.54-5.58-6.3c0-3.93,2.45-6.51,5.76-6.51S286.27,89.34,286.27,93Zm-9.63.2c0,2.65,1.44,5,4,5s4-2.34,4-5.15c0-2.47-1.28-5-3.95-5S276.64,90.49,276.64,93.22Z"></path>
    <path class="j" d="M297,98.94a7.82,7.82,0,0,1-3.27.59c-3.5,0-6.13-2.21-6.13-6.28a6.17,6.17,0,0,1,6.48-6.51,6.65,6.65,0,0,1,2.94.55l-.38,1.31a5.94,5.94,0,0,0-2.51-.52c-2.91,0-4.84,1.86-4.84,5.12,0,3,1.75,5,4.77,5a6.44,6.44,0,0,0,2.61-.52Z"></path>
  </g>
  <g class="b">
    <path class="j" d="M264.83,107l0-.32h0a.93.93,0,0,1-.77.38.73.73,0,0,1-.78-.73c0-.62.55-1,1.53-1v0a.53.53,0,0,0-.58-.59,1.31,1.31,0,0,0-.66.19l-.11-.3a1.57,1.57,0,0,1,.84-.23c.78,0,1,.53,1,1v.95a2.84,2.84,0,0,0,.05.61Zm-.07-1.3c-.51,0-1.08.08-1.08.57a.42.42,0,0,0,.44.45.62.62,0,0,0,.61-.43.4.4,0,0,0,0-.15Z"></path>
    <path class="j" d="M266.47,103.71a.29.29,0,1,1-.29-.29A.27.27,0,0,1,266.47,103.71ZM266,107v-2.54h.46V107Z"></path>
    <path class="j" d="M269,106.86a1.6,1.6,0,0,1-.73.15,1.2,1.2,0,0,1-1.26-1.29,1.28,1.28,0,0,1,1.36-1.35,1.43,1.43,0,0,1,.64.13l-.1.35a1.13,1.13,0,0,0-.54-.12.88.88,0,0,0-.9,1,.87.87,0,0,0,.89,1,1.26,1.26,0,0,0,.56-.12Z"></path>
    <path class="j" d="M269.53,105.25c0-.33,0-.59,0-.83h.42l0,.43h0a1,1,0,0,1,.9-.49,1.15,1.15,0,0,1,1.08,1.29,1.21,1.21,0,0,1-1.16,1.37.9.9,0,0,1-.78-.4h0V108h-.46Zm.46.68a1,1,0,0,0,0,.18.71.71,0,0,0,.69.54c.49,0,.78-.39.78-1s-.27-.94-.76-.94a.74.74,0,0,0-.7.57,1.25,1.25,0,0,0,0,.19Z"></path>
    <path class="j" d="M273.93,107l0-.32h0a1,1,0,0,1-.78.38.73.73,0,0,1-.78-.73c0-.62.55-1,1.53-1v0a.53.53,0,0,0-.58-.59,1.34,1.34,0,0,0-.66.19l-.1-.3a1.53,1.53,0,0,1,.83-.23c.78,0,1,.53,1,1v.95a3.74,3.74,0,0,0,0,.61Zm-.07-1.3c-.5,0-1.07.08-1.07.57a.41.41,0,0,0,.43.45.62.62,0,0,0,.61-.43.4.4,0,0,0,0-.15Z"></path>
    <path class="j" d="M274.94,106.69a.31.31,0,0,1,.32-.33.33.33,0,0,1,0,.66A.31.31,0,0,1,274.94,106.69Z"></path>
    <path class="j" d="M278.44,105.67a1.24,1.24,0,0,1-1.26,1.35,1.21,1.21,0,0,1-1.22-1.31,1.24,1.24,0,0,1,1.26-1.35A1.2,1.2,0,0,1,278.44,105.67Zm-2,0c0,.56.32,1,.77,1s.77-.41.77-1-.22-1-.76-1S276.43,105.21,276.43,105.69Z"></path>
    <path class="j" d="M279,105.21c0-.3,0-.55,0-.79h.41v.5h0a.76.76,0,0,1,.7-.56l.13,0v.43h-.16a.65.65,0,0,0-.62.59,1.36,1.36,0,0,0,0,.21V107H279Z"></path>
    <path class="j" d="M282.89,104.42c0,.18,0,.39,0,.7v1.47a1.49,1.49,0,0,1-.36,1.16,1.38,1.38,0,0,1-.93.31,1.68,1.68,0,0,1-.84-.21l.11-.36a1.4,1.4,0,0,0,.75.2c.47,0,.82-.24.82-.88v-.29h0a.91.91,0,0,1-.81.43,1.14,1.14,0,0,1-1.08-1.24,1.22,1.22,0,0,1,1.14-1.35.84.84,0,0,1,.79.44h0l0-.38Zm-.48,1a.68.68,0,0,0,0-.21.67.67,0,0,0-.65-.49c-.44,0-.76.38-.76,1s.26.92.75.92a.68.68,0,0,0,.65-.48.93.93,0,0,0,0-.24Z"></path>
    <path class="j" d="M283.25,107.17l1.46-3.81h.36l-1.47,3.81Z"></path>
    <path class="j" d="M285.38,106.49a1.16,1.16,0,0,0,.61.18c.33,0,.49-.17.49-.38s-.13-.34-.47-.46-.68-.42-.68-.72a.79.79,0,0,1,.88-.75,1.24,1.24,0,0,1,.63.16l-.12.33a1,1,0,0,0-.52-.14c-.27,0-.42.16-.42.34s.15.31.48.43.66.39.66.77-.34.76-.95.76a1.52,1.52,0,0,1-.71-.17Z"></path>
    <path class="j" d="M289.82,105.67a1.24,1.24,0,0,1-1.27,1.35,1.21,1.21,0,0,1-1.21-1.31,1.24,1.24,0,0,1,1.26-1.35A1.2,1.2,0,0,1,289.82,105.67Zm-2,0c0,.56.32,1,.77,1s.78-.41.78-1-.22-1-.77-1S287.8,105.21,287.8,105.69Z"></path>
    <path class="j" d="M292.21,106.86a1.56,1.56,0,0,1-.73.15,1.2,1.2,0,0,1-1.26-1.29,1.28,1.28,0,0,1,1.36-1.35,1.4,1.4,0,0,1,.64.13l-.1.35a1.1,1.1,0,0,0-.54-.12.87.87,0,0,0-.89,1,.87.87,0,0,0,.88,1,1.26,1.26,0,0,0,.56-.12Z"></path>
    <path class="j" d="M294,107V106h-1.59v-.3l1.52-2.18h.5v2.12H295V106h-.48V107Zm0-1.29v-1.14c0-.18,0-.36,0-.54h0c-.11.2-.19.35-.29.51l-.83,1.16H294Z"></path>
    <path class="j" d="M295.39,106.49a1.19,1.19,0,0,0,.61.18c.33,0,.49-.17.49-.38s-.13-.34-.47-.46-.67-.42-.67-.72a.78.78,0,0,1,.87-.75,1.21,1.21,0,0,1,.63.16l-.12.33a1,1,0,0,0-.52-.14c-.27,0-.42.16-.42.34s.15.31.48.43.67.39.67.77-.35.76-.95.76a1.53,1.53,0,0,1-.72-.17Z"></path>
    <path class="j" d="M299.83,105.67a1.24,1.24,0,0,1-1.27,1.35,1.21,1.21,0,0,1-1.21-1.31,1.24,1.24,0,0,1,1.26-1.35A1.2,1.2,0,0,1,299.83,105.67Zm-2,0c0,.56.32,1,.78,1s.77-.41.77-1-.22-1-.76-1S297.81,105.21,297.81,105.69Z"></path>
  </g>
  <path class="j" d="M249.81,104.9a.56.56,0,0,0,.2-.17.45.45,0,0,0,.11-.23,1.33,1.33,0,0,0,0-.35,4,4,0,0,0-.08-.48c0-.18-.07-.35-.09-.5a1.45,1.45,0,0,1,0-.42.74.74,0,0,1,.13-.33.76.76,0,0,1,.28-.25,1,1,0,0,1,.37-.1,1,1,0,0,1,.37.08,1.29,1.29,0,0,1,.34.25,1.32,1.32,0,0,1,.29.39,1.54,1.54,0,0,1,.17.48,1.06,1.06,0,0,1,0,.44,1,1,0,0,1-.17.38,1.26,1.26,0,0,1-.33.27l-.14-.27a.71.71,0,0,0,.25-.2.62.62,0,0,0,.14-.28.73.73,0,0,0,0-.33,1,1,0,0,0-.13-.37,1.31,1.31,0,0,0-.23-.32.66.66,0,0,0-.25-.17.5.5,0,0,0-.26,0,.52.52,0,0,0-.25.07.45.45,0,0,0-.18.15.44.44,0,0,0-.1.23,1.22,1.22,0,0,0,0,.34,3.78,3.78,0,0,0,.09.47,3.67,3.67,0,0,1,.08.52,1.44,1.44,0,0,1,0,.42.88.88,0,0,1-.15.34.84.84,0,0,1-.3.25.75.75,0,0,1-.38.1,1,1,0,0,1-.37-.08,1.15,1.15,0,0,1-.34-.25,1.71,1.71,0,0,1-.29-.4,2.55,2.55,0,0,1-.13-.29,1.73,1.73,0,0,1-.07-.31,1.61,1.61,0,0,1,0-.31.74.74,0,0,1,.08-.29,1,1,0,0,1,.16-.26,1,1,0,0,1,.27-.21l.15.27a.67.67,0,0,0-.29.26.65.65,0,0,0-.11.32.89.89,0,0,0,0,.36,1.4,1.4,0,0,0,.13.34,1.89,1.89,0,0,0,.22.31,1.15,1.15,0,0,0,.26.19.66.66,0,0,0,.27.06.54.54,0,0,0,.27-.07Zm2.52,2.48a2.26,2.26,0,0,1-.61.29,1.68,1.68,0,0,1-.58.07,1.36,1.36,0,0,1-.51-.18,1.3,1.3,0,0,1-.41-.4,1.61,1.61,0,0,1-.23-.53,1.27,1.27,0,0,1,0-.55,1.69,1.69,0,0,1,.26-.52,2.23,2.23,0,0,1,.5-.46l.31-.22a2.59,2.59,0,0,1,.61-.29,1.54,1.54,0,0,1,.59-.06,1.34,1.34,0,0,1,.51.17,1.36,1.36,0,0,1,.42.41,1.43,1.43,0,0,1,.22.53,1.28,1.28,0,0,1,0,.55,1.48,1.48,0,0,1-.27.51,2.08,2.08,0,0,1-.51.46Zm.15-.47a1.6,1.6,0,0,0,.43-.38,1.13,1.13,0,0,0,.23-.41.92.92,0,0,0,0-.43,1.28,1.28,0,0,0-.18-.44,1,1,0,0,0-.34-.32.93.93,0,0,0-.41-.12,1.29,1.29,0,0,0-.47.06,2.05,2.05,0,0,0-.51.26l-.32.22a1.6,1.6,0,0,0-.43.38,1.17,1.17,0,0,0-.23.42.79.79,0,0,0,0,.43,1,1,0,0,0,.17.43,1.11,1.11,0,0,0,.33.32.9.9,0,0,0,.42.13,1.31,1.31,0,0,0,.47-.07,2.05,2.05,0,0,0,.51-.26l.32-.22Zm1.45,3.18a1.3,1.3,0,0,1-.46.22,1.11,1.11,0,0,1-.44,0,1.19,1.19,0,0,1-.43-.16,1.59,1.59,0,0,1-.39-.35,1.2,1.2,0,0,1-.26-.5,1.18,1.18,0,0,1,0-.53,1.39,1.39,0,0,1,.22-.53,2,2,0,0,1,.44-.48l.34-.29a2,2,0,0,1,.56-.34,1.27,1.27,0,0,1,.56-.11,1.17,1.17,0,0,1,.52.12,1.18,1.18,0,0,1,.45.36,1.34,1.34,0,0,1,.26.44,1,1,0,0,1,.08.44,1.16,1.16,0,0,1-.12.43,1.81,1.81,0,0,1-.29.41l-.19-.23a2.79,2.79,0,0,0,.23-.32.82.82,0,0,0,.09-.33A.83.83,0,0,0,255,108a1,1,0,0,0-.21-.34.93.93,0,0,0-.35-.28.88.88,0,0,0-.42-.08,1.14,1.14,0,0,0-.46.11,2.22,2.22,0,0,0-.47.29l-.34.29a1.93,1.93,0,0,0-.37.39,1.19,1.19,0,0,0-.2.43.85.85,0,0,0,0,.42.82.82,0,0,0,.21.4,1,1,0,0,0,.62.41,1.11,1.11,0,0,0,.7-.21l.2.23Zm.55,2.24,1.67-1.71-.32-.3.17-.17.31.3.23-.23a1.08,1.08,0,0,1,.28-.22.84.84,0,0,1,.3-.08.67.67,0,0,1,.28.06,1,1,0,0,1,.28.19l.1.11.09.14-.19.16-.07-.11a.94.94,0,0,0-.1-.1.48.48,0,0,0-.37-.16.63.63,0,0,0-.39.21l-.23.23.45.44-.17.17-.44-.43-1.67,1.71-.21-.21Zm1.78-.09a1.66,1.66,0,0,1,.41-.35,1.33,1.33,0,0,1,.45-.15,1.18,1.18,0,0,1,.46,0,1.1,1.1,0,0,1,.43.25,1.08,1.08,0,0,1,.3.39,1.06,1.06,0,0,1,.1.46,1.37,1.37,0,0,1-.1.47,1.9,1.9,0,0,1-.29.45l0,.06a1.65,1.65,0,0,1-.42.34,1.28,1.28,0,0,1-.45.16,1,1,0,0,1-.46,0,1.09,1.09,0,0,1-.43-.24,1.11,1.11,0,0,1-.29-.4,1,1,0,0,1-.1-.45,1.17,1.17,0,0,1,.1-.47,1.38,1.38,0,0,1,.29-.45Zm.16.25a1.29,1.29,0,0,0-.22.35,1,1,0,0,0-.1.37.83.83,0,0,0,0,.35.71.71,0,0,0,.23.32.78.78,0,0,0,.34.19.73.73,0,0,0,.36,0,1,1,0,0,0,.35-.14,1.35,1.35,0,0,0,.32-.27l.05-.06a1.32,1.32,0,0,0,.23-.35,1.2,1.2,0,0,0,.1-.37,1.12,1.12,0,0,0-.05-.36.85.85,0,0,0-.57-.5.73.73,0,0,0-.36,0,.93.93,0,0,0-.36.14,1.34,1.34,0,0,0-.31.27ZM260,114.1s-.09-.09-.15-.13a.79.79,0,0,0-.23-.14.66.66,0,0,0-.24,0,1,1,0,0,0-.24,0l-.23.13-1.13,1.4-.23-.18,1.66-2,.22.18-.26.33a.76.76,0,0,1,.87.1.6.6,0,0,1,.08.08l.05.06-.17.2Zm2,3.29a.62.62,0,0,0,.1-.24.51.51,0,0,0,0-.27,1.39,1.39,0,0,0-.15-.3c-.08-.11-.18-.24-.3-.38a4.43,4.43,0,0,1-.31-.41,1.3,1.3,0,0,1-.19-.37.89.89,0,0,1,0-.36.76.76,0,0,1,.13-.35.86.86,0,0,1,.28-.26.88.88,0,0,1,.36-.1,1.24,1.24,0,0,1,.42.05,1.47,1.47,0,0,1,.44.21,1.38,1.38,0,0,1,.37.35,1.08,1.08,0,0,1,.2.4,1.06,1.06,0,0,1-.14.8L263,116a.67.67,0,0,0,.13-.3.61.61,0,0,0,0-.3.69.69,0,0,0-.15-.31,1.18,1.18,0,0,0-.28-.26,1.39,1.39,0,0,0-.35-.17.88.88,0,0,0-.31,0,.57.57,0,0,0-.26.08.54.54,0,0,0-.19.18.58.58,0,0,0-.08.22.44.44,0,0,0,0,.25,1.39,1.39,0,0,0,.15.3,2.22,2.22,0,0,0,.29.37,5,5,0,0,1,.33.42,1.5,1.5,0,0,1,.18.39.91.91,0,0,1,0,.36.92.92,0,0,1-.15.36.82.82,0,0,1-.29.27.8.8,0,0,1-.37.11,1.58,1.58,0,0,1-.42-.06,1.81,1.81,0,0,1-.44-.22,1.57,1.57,0,0,1-.25-.2,1.21,1.21,0,0,1-.21-.24,1.35,1.35,0,0,1-.15-.26.73.73,0,0,1-.07-.29,1.08,1.08,0,0,1,0-.31,1.06,1.06,0,0,1,.14-.31l.25.16a.72.72,0,0,0-.13.37.79.79,0,0,0,.06.34,1.08,1.08,0,0,0,.2.29,2.09,2.09,0,0,0,.28.24,2.15,2.15,0,0,0,.34.17.85.85,0,0,0,.31,0,.5.5,0,0,0,.27-.07.63.63,0,0,0,.21-.19Zm1.12,1.74a1.12,1.12,0,0,1-.36-.32,1,1,0,0,1-.19-.42,1.06,1.06,0,0,1,0-.47,1.56,1.56,0,0,1,.19-.49l.05-.09a1.4,1.4,0,0,1,.36-.43,1,1,0,0,1,.42-.24,1,1,0,0,1,.44,0,.86.86,0,0,1,.42.13.91.91,0,0,1,.34.3,1.06,1.06,0,0,1,.16.38,1,1,0,0,1,0,.43,1.73,1.73,0,0,1-.19.45l-.08.16-1.62-1,0,0a1.32,1.32,0,0,0-.15.39.93.93,0,0,0,0,.37.9.9,0,0,0,.41.6.94.94,0,0,0,.4.13.93.93,0,0,0,.42-.07l.08.21-.22.08a1,1,0,0,1-.24,0,1.51,1.51,0,0,1-.28,0A1,1,0,0,1,263.18,119.13Zm1.2-2.17a1,1,0,0,0-.3-.1.77.77,0,0,0-.3,0,1.46,1.46,0,0,0-.3.16,1.6,1.6,0,0,0-.26.26l1.36.8v0a.94.94,0,0,0,.12-.3.83.83,0,0,0,0-.31.75.75,0,0,0-.11-.28A.67.67,0,0,0,264.38,117Zm2.38,1.36a.5.5,0,0,0-.17-.11.63.63,0,0,0-.25-.09.7.7,0,0,0-.25,0,.68.68,0,0,0-.22.09,1.56,1.56,0,0,0-.2.16l-.85,1.59-.26-.13,1.25-2.32.25.14-.2.37a.85.85,0,0,1,.42-.17.8.8,0,0,1,.46.11.24.24,0,0,1,.09.06.17.17,0,0,1,.06.06l-.13.23Zm.42,2.33,1.58-1.76.28.12-1.9,2.06-.22-.09.08-2.81.27.12-.09,2.36Zm1.61,1.09-.27-.11,1-2.43.27.11Zm1-3.26a.2.2,0,0,1,.11-.11.19.19,0,0,1,.15,0,.19.19,0,0,1,.12.11.26.26,0,0,1,0,.15.17.17,0,0,1-.1.1.22.22,0,0,1-.16,0,.23.23,0,0,1-.11-.11.17.17,0,0,1,0-.14Zm.77,3.66a.75.75,0,0,0,.26,0,.77.77,0,0,0,.26,0,.57.57,0,0,0,.21-.13.6.6,0,0,0,.16-.22l.27.09a.9.9,0,0,1-.21.3,1.14,1.14,0,0,1-.3.18,1,1,0,0,1-.35.06,1,1,0,0,1-.38-.07,1.19,1.19,0,0,1-.43-.25,1.11,1.11,0,0,1-.24-.38,1.44,1.44,0,0,1-.06-.47,2,2,0,0,1,.11-.51l0-.1a1.83,1.83,0,0,1,.24-.46,1.29,1.29,0,0,1,.34-.32,1,1,0,0,1,.42-.14,1.11,1.11,0,0,1,.5.06,1.13,1.13,0,0,1,.34.2.92.92,0,0,1,.24.28,1,1,0,0,1,.1.35,1,1,0,0,1,0,.39l-.27-.09a.75.75,0,0,0,0-.29,1.12,1.12,0,0,0-.08-.26.87.87,0,0,0-.17-.21,1,1,0,0,0-.25-.13.78.78,0,0,0-.39-.05.77.77,0,0,0-.32.14,1.09,1.09,0,0,0-.25.27,1.49,1.49,0,0,0-.17.36l0,.1a1.37,1.37,0,0,0-.09.4.86.86,0,0,0,0,.36.63.63,0,0,0,.17.31.67.67,0,0,0,.33.21Zm2.43,1a1.38,1.38,0,0,1-.44-.21,1.24,1.24,0,0,1-.3-.35,1.37,1.37,0,0,1-.14-.46,1.86,1.86,0,0,1,0-.52l0-.1a1.49,1.49,0,0,1,.22-.51,1.26,1.26,0,0,1,.34-.35,1,1,0,0,1,.42-.17.89.89,0,0,1,.43,0,1,1,0,0,1,.41.19.83.83,0,0,1,.26.33,1.08,1.08,0,0,1,.1.42,1.64,1.64,0,0,1-.05.48l0,.17-1.82-.45,0,0a1.44,1.44,0,0,0,0,.41,1,1,0,0,0,.1.37.85.85,0,0,0,.22.28.73.73,0,0,0,.34.17,1,1,0,0,0,.41,0,.91.91,0,0,0,.38-.19l.15.18a1.33,1.33,0,0,1-.19.14.92.92,0,0,1-.23.09.86.86,0,0,1-.28,0,1.15,1.15,0,0,1-.31,0Zm.55-2.42a.7.7,0,0,0-.32,0,.61.61,0,0,0-.28.11.87.87,0,0,0-.24.23,1.29,1.29,0,0,0-.18.33l1.53.38v0a.87.87,0,0,0,0-.32.73.73,0,0,0-.07-.3.61.61,0,0,0-.18-.24.73.73,0,0,0-.29-.15Zm5,1.83a2.15,2.15,0,0,1-.2.65,1.37,1.37,0,0,1-.35.46,1.25,1.25,0,0,1-.48.26,1.39,1.39,0,0,1-.58,0,1.59,1.59,0,0,1-.54-.2,1.41,1.41,0,0,1-.38-.39,1.64,1.64,0,0,1-.2-.55,2.58,2.58,0,0,1,0-.68l.06-.38a2.16,2.16,0,0,1,.21-.65,1.37,1.37,0,0,1,.35-.46,1.25,1.25,0,0,1,.48-.26,1.36,1.36,0,0,1,.57,0,1.4,1.4,0,0,1,.55.21,1.18,1.18,0,0,1,.38.39,1.51,1.51,0,0,1,.2.54,2.3,2.3,0,0,1,0,.69Zm-.24-.42a1.91,1.91,0,0,0,0-.58,1.25,1.25,0,0,0-.14-.45.92.92,0,0,0-.3-.32,1,1,0,0,0-.43-.17,1.16,1.16,0,0,0-.46,0,.91.91,0,0,0-.38.22,1.15,1.15,0,0,0-.28.39,2.09,2.09,0,0,0-.16.55l-.06.38a2.19,2.19,0,0,0,0,.57,1.19,1.19,0,0,0,.15.46,1,1,0,0,0,.29.32,1.23,1.23,0,0,0,.43.16,1,1,0,0,0,.47,0,1,1,0,0,0,.37-.22,1.44,1.44,0,0,0,.28-.39,2.21,2.21,0,0,0,.15-.55l.06-.38Zm2.12-.23-.19,0a.78.78,0,0,0-.27,0,.88.88,0,0,0-.22.1.69.69,0,0,0-.17.17,1,1,0,0,0-.12.23l-.18,1.8-.29,0,.26-2.62.28,0,0,.42a.79.79,0,0,1,.32-.31.76.76,0,0,1,.46-.08h.11s.06,0,.08,0l0,.26Zm.13,1.07a1.88,1.88,0,0,1,.07-.55,1.49,1.49,0,0,1,.2-.42,1,1,0,0,1,.33-.27,1,1,0,0,1,.43-.09,1.06,1.06,0,0,1,.48.12,1,1,0,0,1,.33.32l0-.38h.27l0,2.58a1.11,1.11,0,0,1-.08.46,1,1,0,0,1-.21.34.93.93,0,0,1-.33.21,1.23,1.23,0,0,1-.44.08l-.25,0a1.06,1.06,0,0,1-.25-.09,1.09,1.09,0,0,1-.23-.14,1.16,1.16,0,0,1-.18-.2l.16-.17a1.28,1.28,0,0,0,.34.29.86.86,0,0,0,.39.09.9.9,0,0,0,.34-.06.63.63,0,0,0,.24-.16.76.76,0,0,0,.16-.26,1.23,1.23,0,0,0,.05-.35V124a1.3,1.3,0,0,1-.34.28,1.21,1.21,0,0,1-.48.1.93.93,0,0,1-.42-.1,1.08,1.08,0,0,1-.32-.28,1.36,1.36,0,0,1-.2-.42,1.93,1.93,0,0,1-.06-.55v0Zm.29,0a1.91,1.91,0,0,0,0,.43,1.11,1.11,0,0,0,.14.35.59.59,0,0,0,.24.23.85.85,0,0,0,.34.09,1.1,1.1,0,0,0,.27,0,.62.62,0,0,0,.22-.1.75.75,0,0,0,.16-.15l.12-.19v-1.22a.78.78,0,0,0-.11-.2.8.8,0,0,0-.15-.17,1,1,0,0,0-.21-.11.82.82,0,0,0-.28,0,.65.65,0,0,0-.35.08.75.75,0,0,0-.25.22,1.11,1.11,0,0,0-.14.35,1.86,1.86,0,0,0-.05.42v0Zm4.23,1.24a.38.38,0,0,1,0-.16.69.69,0,0,1,0-.2l-.15.17-.2.14a1.33,1.33,0,0,1-.24.1l-.29,0a1.34,1.34,0,0,1-.35,0,1.15,1.15,0,0,1-.27-.14.76.76,0,0,1-.18-.23.74.74,0,0,1-.08-.3.69.69,0,0,1,.07-.35.8.8,0,0,1,.22-.27,1.06,1.06,0,0,1,.37-.18,2.47,2.47,0,0,1,.5-.09l.54,0,0-.3a.54.54,0,0,0-.2-.43.65.65,0,0,0-.51-.14.76.76,0,0,0-.27,0,.91.91,0,0,0-.22.13.49.49,0,0,0-.14.18.34.34,0,0,0,0,.2h-.29a.61.61,0,0,1,.05-.29.92.92,0,0,1,.2-.25.86.86,0,0,1,.31-.19,1.24,1.24,0,0,1,.41-.09,1.53,1.53,0,0,1,.38,0,1,1,0,0,1,.31.14.75.75,0,0,1,.21.26.88.88,0,0,1,.09.37l.06,1.27a.76.76,0,0,1,0,.15.59.59,0,0,1,0,.13.93.93,0,0,1,0,.13.36.36,0,0,0,0,.11v0Zm-.93-.16a1.34,1.34,0,0,0,.3,0,1.71,1.71,0,0,0,.23-.13.59.59,0,0,0,.18-.17.5.5,0,0,0,.12-.21l0-.58-.5,0a1.25,1.25,0,0,0-.4.06.86.86,0,0,0-.29.13.47.47,0,0,0-.18.19.49.49,0,0,0-.05.25.41.41,0,0,0,.05.19.51.51,0,0,0,.13.16.57.57,0,0,0,.19.1.93.93,0,0,0,.24,0Zm1.95-2.56.06.45a1.59,1.59,0,0,1,.13-.22,1,1,0,0,1,.19-.17.61.61,0,0,1,.22-.13,1.1,1.1,0,0,1,.26-.06,1.4,1.4,0,0,1,.36,0,.74.74,0,0,1,.28.14.86.86,0,0,1,.19.29,1.6,1.6,0,0,1,.1.43L288,124l-.28,0-.17-1.71a1,1,0,0,0-.08-.34.48.48,0,0,0-.14-.2.47.47,0,0,0-.2-.1,1.11,1.11,0,0,0-.26,0,.77.77,0,0,0-.28.08.83.83,0,0,0-.21.16l-.15.22a1.35,1.35,0,0,0-.08.24l.17,1.79-.29,0-.25-2.61.27,0Zm3,2.27-.28,0-.38-2.6.28,0Zm-.82-3.3a.21.21,0,0,1,0-.15.22.22,0,0,1,.13-.08.25.25,0,0,1,.16,0,.17.17,0,0,1,.07.13.17.17,0,0,1,0,.14.18.18,0,0,1-.14.08.19.19,0,0,1-.15,0A.21.21,0,0,1,288.28,120.48Zm1.74,2.88,1.68-.33.05.25-2,.39,0-.21,1.14-2.43-1.51.3-.05-.25,1.88-.36,0,.21Zm3.83-.64a2.2,2.2,0,0,1-.14-.34,2,2,0,0,1-.11.2.91.91,0,0,1-.17.17,1.13,1.13,0,0,1-.21.15,1.08,1.08,0,0,1-.27.1,1.1,1.1,0,0,1-.35,0,.75.75,0,0,1-.3-.09.64.64,0,0,1-.36-.46.69.69,0,0,1,0-.35.68.68,0,0,1,.17-.31,1.21,1.21,0,0,1,.32-.26,2,2,0,0,1,.47-.17l.53-.13-.07-.3a.56.56,0,0,0-.28-.38.72.72,0,0,0-.53,0,1.09,1.09,0,0,0-.27.11,1,1,0,0,0-.19.17.87.87,0,0,0-.1.19.81.81,0,0,0,0,.22l-.28.07a.76.76,0,0,1,0-.3.86.86,0,0,1,.14-.29,1.05,1.05,0,0,1,.27-.24,1.1,1.1,0,0,1,.38-.17,1.36,1.36,0,0,1,.39,0,.89.89,0,0,1,.33.08.75.75,0,0,1,.26.21,1.13,1.13,0,0,1,.16.35l.3,1.23,0,.14a1.12,1.12,0,0,1,0,.13l.06.12.06.1v0l-.31.07Zm-.93,0a.81.81,0,0,0,.27-.11,1.16,1.16,0,0,0,.21-.16.85.85,0,0,0,.14-.21.63.63,0,0,0,.08-.23l-.14-.56-.48.12a1.68,1.68,0,0,0-.38.14.75.75,0,0,0-.26.18.55.55,0,0,0-.14.23.53.53,0,0,0,0,.25.51.51,0,0,0,.09.18.37.37,0,0,0,.15.13.47.47,0,0,0,.21.06.72.72,0,0,0,.25,0Zm1.2-3.6.23.63.51-.18.08.23-.51.18.59,1.65a.62.62,0,0,0,.1.2.5.5,0,0,0,.11.1.32.32,0,0,0,.13,0l.13,0,.11,0,.1,0,.09.22-.12.07-.16.07a.64.64,0,0,1-.23,0,.35.35,0,0,1-.2,0,.39.39,0,0,1-.18-.16.84.84,0,0,1-.15-.3l-.6-1.64-.45.16-.08-.22.45-.17-.22-.63Zm2.5,2.61-.28.1-.88-2.47.28-.1Zm-1.47-3.07a.26.26,0,0,1,0-.15.18.18,0,0,1,.12-.1.16.16,0,0,1,.15,0,.18.18,0,0,1,.1.11.19.19,0,0,1,0,.15.19.19,0,0,1-.12.11.24.24,0,0,1-.15,0A.23.23,0,0,1,295.15,118.68Zm1.54,1.6a1.42,1.42,0,0,1-.13-.52,1.19,1.19,0,0,1,.06-.47,1.23,1.23,0,0,1,.23-.4,1.2,1.2,0,0,1,.41-.28,1,1,0,0,1,.48-.09,1,1,0,0,1,.45.11,1.17,1.17,0,0,1,.38.29,1.42,1.42,0,0,1,.28.46l0,.07a1.47,1.47,0,0,1,.13.52,1.24,1.24,0,0,1-.06.48,1.07,1.07,0,0,1-.23.4,1.09,1.09,0,0,1-.41.27,1.18,1.18,0,0,1-.48.1,1.15,1.15,0,0,1-.45-.11,1.2,1.2,0,0,1-.38-.3,1.48,1.48,0,0,1-.28-.45l0-.08Zm.3,0a1.13,1.13,0,0,0,.21.35.86.86,0,0,0,.29.25.85.85,0,0,0,.35.11.74.74,0,0,0,.38-.06.81.81,0,0,0,.31-.23.76.76,0,0,0,.17-.32,1,1,0,0,0,0-.38,1.53,1.53,0,0,0-.1-.41l0-.07a1.38,1.38,0,0,0-.22-.35,1.14,1.14,0,0,0-.28-.26.88.88,0,0,0-.35-.1.67.67,0,0,0-.39.06.79.79,0,0,0-.31.22.84.84,0,0,0-.16.33,1.2,1.2,0,0,0,0,.38,1.8,1.8,0,0,0,.1.4l0,.08Zm1.93-2.32.22.39a1,1,0,0,1,0-.25.64.64,0,0,1,.1-.24,1,1,0,0,1,.16-.2,1,1,0,0,1,.22-.16.92.92,0,0,1,.33-.11.54.54,0,0,1,.31,0,.7.7,0,0,1,.29.18,1.41,1.41,0,0,1,.26.37l.81,1.5-.25.14-.81-1.51a1.35,1.35,0,0,0-.2-.28.6.6,0,0,0-.21-.13.45.45,0,0,0-.23,0l-.25.09a.79.79,0,0,0-.22.18.76.76,0,0,0-.13.23.71.71,0,0,0-.05.26,1,1,0,0,0,0,.25l.85,1.59-.25.14-1.25-2.32.25-.13Zm4.4-.24a.47.47,0,0,0-.27-.2h-.26a2.54,2.54,0,0,0-.36.1,4,4,0,0,1-.39.11,1.17,1.17,0,0,1-.32,0,.47.47,0,0,1-.26-.08.55.55,0,0,1-.2-.2.53.53,0,0,1-.08-.27.57.57,0,0,1,0-.29,1,1,0,0,1,.17-.29,1.53,1.53,0,0,1,.3-.25,1.35,1.35,0,0,1,.38-.16,1,1,0,0,1,.34,0,.77.77,0,0,1,.3.11,1,1,0,0,1,.22.23l-.25.15a.51.51,0,0,0-.15-.14.52.52,0,0,0-.2-.08,1,1,0,0,0-.24,0,1,1,0,0,0-.27.11,1.16,1.16,0,0,0-.23.19.77.77,0,0,0-.11.19.43.43,0,0,0,0,.19.44.44,0,0,0,.06.16.4.4,0,0,0,.1.12.44.44,0,0,0,.16.06.76.76,0,0,0,.25,0,1.76,1.76,0,0,0,.35-.1,3.1,3.1,0,0,1,.42-.1.9.9,0,0,1,.32,0,.67.67,0,0,1,.26.1.65.65,0,0,1,.19.21.62.62,0,0,1,.05.59.88.88,0,0,1-.18.28,1.34,1.34,0,0,1-.31.26,1.28,1.28,0,0,1-.41.17,1.23,1.23,0,0,1-.37,0,.79.79,0,0,1-.3-.12.6.6,0,0,1-.21-.21l.25-.15a.57.57,0,0,0,.68.17.94.94,0,0,0,.23-.1,1.11,1.11,0,0,0,.23-.19.47.47,0,0,0,.12-.2.43.43,0,0,0,0-.19.48.48,0,0,0-.06-.18Zm2.76-.25-.2.14-2.36-3.46.2-.14Zm2.05-3.63a.37.37,0,0,0-.15-.13.34.34,0,0,0-.18,0,.87.87,0,0,0-.26,0,3.79,3.79,0,0,0-.38.14,3.27,3.27,0,0,1-.47.16,1.65,1.65,0,0,1-.43.06.9.9,0,0,1-.37-.07.82.82,0,0,1-.32-.24.87.87,0,0,1-.18-.36.9.9,0,0,1,0-.4,1.32,1.32,0,0,1,.17-.41,2.09,2.09,0,0,1,.35-.39,1.89,1.89,0,0,1,.47-.27,1.28,1.28,0,0,1,.46-.08,1.19,1.19,0,0,1,.41.11,1.06,1.06,0,0,1,.34.26l-.48.39a.69.69,0,0,0-.18-.16.83.83,0,0,0-.21-.06.51.51,0,0,0-.24,0,.83.83,0,0,0-.26.16,1.14,1.14,0,0,0-.19.2.48.48,0,0,0-.09.21.41.41,0,0,0,0,.19.61.61,0,0,0,.09.18.42.42,0,0,0,.36.13,1.81,1.81,0,0,0,.59-.18,3.6,3.6,0,0,1,.52-.18,1.68,1.68,0,0,1,.43,0,1,1,0,0,1,.36.09,1.18,1.18,0,0,1,.3.25.87.87,0,0,1,.19.37.86.86,0,0,1,0,.39,1.08,1.08,0,0,1-.19.41,1.75,1.75,0,0,1-.35.38,1.94,1.94,0,0,1-.43.27,1.41,1.41,0,0,1-.48.12,1.19,1.19,0,0,1-.46-.06,1,1,0,0,1-.41-.31l.47-.39a.54.54,0,0,0,.23.18.43.43,0,0,0,.25,0,.63.63,0,0,0,.26-.07,1.28,1.28,0,0,0,.26-.17.7.7,0,0,0,.28-.4.41.41,0,0,0-.09-.37Zm2.26-.81a1.42,1.42,0,0,1-.44.31,1.09,1.09,0,0,1-.46.1,1.34,1.34,0,0,1-.47-.11,1.44,1.44,0,0,1-.42-.29l-.07-.06a1.52,1.52,0,0,1-.33-.46,1.12,1.12,0,0,1-.13-.48,1,1,0,0,1,.06-.46,1.07,1.07,0,0,1,.26-.4,1,1,0,0,1,.42-.29.81.81,0,0,1,.43-.06,1,1,0,0,1,.44.13,1.8,1.8,0,0,1,.42.32l.18.18-1.2,1.22a.83.83,0,0,0,.25.15.62.62,0,0,0,.26.06.7.7,0,0,0,.25,0,.72.72,0,0,0,.24-.16.84.84,0,0,0,.2-.33,1,1,0,0,0,0-.38h.44a.62.62,0,0,1,0,.24,1.24,1.24,0,0,1,0,.27,2.14,2.14,0,0,1-.12.28,1.79,1.79,0,0,1-.22.28Zm-1.66-1.52a.5.5,0,0,0-.15.4.94.94,0,0,0,.2.47l.79-.81,0,0a1.07,1.07,0,0,0-.19-.13.53.53,0,0,0-.2-.07.53.53,0,0,0-.42.17Zm2-2-.08.08-.09.08a.64.64,0,0,0-.16.32.52.52,0,0,0,0,.3l1.35,1.19-.39.44-2-1.74.38-.42.22.19a.89.89,0,0,1,0-.36.65.65,0,0,1,.16-.32l.08-.08.08,0,.41.37Zm1.83-.09-1.11-1.61.38-.48,1.47,2.36-.32.4-2.62-.94.39-.47Zm1.9-1.24-.34.48L312,107.09l.34-.48Zm-3-1.43a.31.31,0,0,1-.14-.2.3.3,0,0,1,.07-.25.34.34,0,0,1,.22-.15.28.28,0,0,1,.24.06.28.28,0,0,1,.12.2.31.31,0,0,1-.07.25.32.32,0,0,1-.22.15A.3.3,0,0,1,311.44,106.72Zm3.67-.21a.48.48,0,0,0,.09-.19.56.56,0,0,0,0-.18.69.69,0,0,0,0-.17.93.93,0,0,0-.13-.15l.31-.46a.92.92,0,0,1,.24.28,1,1,0,0,1,.12.35,1,1,0,0,1,0,.39,1.17,1.17,0,0,1-.17.38,1.15,1.15,0,0,1-.38.38,1,1,0,0,1-.91.11,1.54,1.54,0,0,1-.47-.22l-.07,0a1.59,1.59,0,0,1-.39-.34,1.21,1.21,0,0,1-.22-.42,1,1,0,0,1,0-.46,1.34,1.34,0,0,1,.21-.5,1.32,1.32,0,0,1,.3-.32.88.88,0,0,1,.35-.17,1,1,0,0,1,.38,0,1,1,0,0,1,.38.15l-.3.47a.52.52,0,0,0-.19-.08.31.31,0,0,0-.19,0,.44.44,0,0,0-.19.07.54.54,0,0,0-.15.15.51.51,0,0,0-.1.29.46.46,0,0,0,.06.26.76.76,0,0,0,.17.23,2,2,0,0,0,.24.19l.08.05a1.82,1.82,0,0,0,.27.15,1,1,0,0,0,.28.07.59.59,0,0,0,.26,0A.55.55,0,0,0,315.11,106.51Zm1.8-2a1.22,1.22,0,0,1-.34.4,1,1,0,0,1-.43.21,1.29,1.29,0,0,1-.48,0,1.57,1.57,0,0,1-.48-.18l-.08-.05a1.77,1.77,0,0,1-.44-.36,1.36,1.36,0,0,1-.24-.44,1,1,0,0,1-.05-.46,1.06,1.06,0,0,1,.16-.45,1,1,0,0,1,.33-.38.88.88,0,0,1,.41-.17,1.17,1.17,0,0,1,.45,0,1.58,1.58,0,0,1,.49.2l.22.13-.87,1.48a.83.83,0,0,0,.28.09.75.75,0,0,0,.26,0,.66.66,0,0,0,.24-.11,1.29,1.29,0,0,0,.19-.21.79.79,0,0,0,.11-.38,1.13,1.13,0,0,0-.06-.36l.42-.12a1.23,1.23,0,0,1,.08.23,1.1,1.1,0,0,1,0,.26,1.54,1.54,0,0,1,0,.3,1.21,1.21,0,0,1-.15.33Zm-2-1.07a.49.49,0,0,0-.05.42.86.86,0,0,0,.32.41l.56-1,0,0-.21-.08a.5.5,0,0,0-.21,0,.48.48,0,0,0-.2.07.64.64,0,0,0-.17.19Zm2.82-4.66a2.38,2.38,0,0,1,.63.37,1.72,1.72,0,0,1,.39.48,1.22,1.22,0,0,1,.14.56,1.47,1.47,0,0,1-.11.6,1.52,1.52,0,0,1-.34.5,1.25,1.25,0,0,1-.49.3,1.4,1.4,0,0,1-.62.08,2.22,2.22,0,0,1-.71-.17l-.16-.07a2.2,2.2,0,0,1-.64-.37,1.45,1.45,0,0,1-.38-.49,1.33,1.33,0,0,1-.15-.55,1.61,1.61,0,0,1,.12-.6,1.39,1.39,0,0,1,.34-.51,1.18,1.18,0,0,1,.49-.3,1.51,1.51,0,0,1,.61-.07,2.1,2.1,0,0,1,.71.17Zm-.4.5a3.15,3.15,0,0,0-.51-.15,1.1,1.1,0,0,0-.41,0,.69.69,0,0,0-.32.16.81.81,0,0,0-.21.3.76.76,0,0,0-.06.36.85.85,0,0,0,.11.34,1.61,1.61,0,0,0,.29.3,2.79,2.79,0,0,0,.46.25l.17.07a2,2,0,0,0,.51.14,1.16,1.16,0,0,0,.42,0,.74.74,0,0,0,.32-.16.69.69,0,0,0,.2-.3.72.72,0,0,0-.05-.71,1.52,1.52,0,0,0-.75-.54Zm.65-2.38-.06.11-.05.11a.77.77,0,0,0,0,.36.46.46,0,0,0,.15.26l1.69.6-.2.56L317,98l.18-.53.29.08a.84.84,0,0,1-.16-.31.75.75,0,0,1,0-.36,1.17,1.17,0,0,0,.05-.11l.05-.08Zm.78.06a2.3,2.3,0,0,1-.5-.23,1.19,1.19,0,0,1-.34-.33.84.84,0,0,1-.17-.4,1,1,0,0,1,0-.44,1,1,0,0,1,.19-.37.72.72,0,0,1,.31-.21l-.24-.11.15-.51,2.45.75a1.12,1.12,0,0,1,.42.22.94.94,0,0,1,.26.34,1.13,1.13,0,0,1,.1.42,1.76,1.76,0,0,1-.07.49c0,.06-.06.14-.09.22a1.88,1.88,0,0,1-.16.23,1,1,0,0,1-.2.21.68.68,0,0,1-.26.15l-.25-.37a1,1,0,0,0,.33-.24.94.94,0,0,0,.17-.31.68.68,0,0,0,0-.49.66.66,0,0,0-.4-.3l-.17-.05a.8.8,0,0,1,.11.34.9.9,0,0,1,0,.39,1.07,1.07,0,0,1-.22.39.93.93,0,0,1-.37.23,1.3,1.3,0,0,1-.46.08,1.69,1.69,0,0,1-.53-.09Zm.22-.55a1,1,0,0,0,.33.06.93.93,0,0,0,.29,0,.58.58,0,0,0,.23-.13A.56.56,0,0,0,320,96a.62.62,0,0,0,0-.33.68.68,0,0,0-.15-.26l-1.11-.34a.55.55,0,0,0-.44.42.45.45,0,0,0,0,.28.46.46,0,0,0,.12.23.62.62,0,0,0,.23.19,1.26,1.26,0,0,0,.31.14Zm2.22-3.4-.12,0H321a.46.46,0,0,1,.09.15.49.49,0,0,1,.06.17.64.64,0,0,1,0,.2,1.65,1.65,0,0,1,0,.21,1.21,1.21,0,0,1-.13.35.73.73,0,0,1-.22.24.6.6,0,0,1-.28.13.69.69,0,0,1-.32,0,.93.93,0,0,1-.35-.15.7.7,0,0,1-.22-.29,1.12,1.12,0,0,1-.09-.39,1.81,1.81,0,0,1,0-.51l.07-.37-.16,0a.46.46,0,0,0-.35,0,.43.43,0,0,0-.18.31.71.71,0,0,0,0,.2.66.66,0,0,0,0,.15.21.21,0,0,0,.1.11.27.27,0,0,0,.13.07l-.12.57a.65.65,0,0,1-.28-.13,1.09,1.09,0,0,1-.21-.26,1.34,1.34,0,0,1-.11-.37,1.46,1.46,0,0,1,0-.46,1.3,1.3,0,0,1,.14-.39.82.82,0,0,1,.54-.43.9.9,0,0,1,.4,0l1.15.23a1.23,1.23,0,0,0,.57,0h0l-.12.59Zm-.54.55a.6.6,0,0,0,0-.19.47.47,0,0,0,0-.17.64.64,0,0,0-.08-.14.53.53,0,0,0-.09-.11l-.49-.1-.06.32a.91.91,0,0,0,0,.5.4.4,0,0,0,.29.23h.15a.31.31,0,0,0,.13-.06.27.27,0,0,0,.1-.11A.54.54,0,0,0,320.68,93.53Zm-1.75-2.59.3,0a1,1,0,0,1-.21-.37,1.08,1.08,0,0,1,0-.44,1.13,1.13,0,0,1,.1-.34.66.66,0,0,1,.21-.23.81.81,0,0,1,.33-.12,1.44,1.44,0,0,1,.46,0l1.67.26-.09.58L320,90.06a.88.88,0,0,0-.23,0,.43.43,0,0,0-.17.06.41.41,0,0,0-.1.13.6.6,0,0,0,.18.77l1.85.29-.09.58-2.6-.41.09-.54Zm2.95-2.42-.06.58-2.61-.25.06-.59Zm-3.35.3a.36.36,0,0,1-.22-.11.32.32,0,0,1-.06-.25.28.28,0,0,1,.11-.24.32.32,0,0,1,.23-.07.37.37,0,0,1,.22.12.32.32,0,0,1,.06.25.31.31,0,0,1-.12.23A.25.25,0,0,1,318.53,88.82Zm3-1.59.07-1.4.48,0L321.94,88l-.39,0-1.7-1.42-.06,1.31-.48,0,.1-2,.38,0Zm.54-3.42-.11,0-.14,0a.81.81,0,0,1,.12.14.75.75,0,0,1,.09.15.6.6,0,0,1,.06.19.78.78,0,0,1,0,.22,1.06,1.06,0,0,1-.23.64.72.72,0,0,1-.25.18.67.67,0,0,1-.31.07.92.92,0,0,1-.38-.08.77.77,0,0,1-.27-.24,1.15,1.15,0,0,1-.16-.37,2,2,0,0,1-.06-.51v-.37h-.17a.5.5,0,0,0-.33.11.46.46,0,0,0-.12.35.58.58,0,0,0,0,.19.61.61,0,0,0,.07.14.31.31,0,0,0,.11.09.28.28,0,0,0,.15,0v.59a.67.67,0,0,1-.3-.08.74.74,0,0,1-.25-.22.85.85,0,0,1-.18-.34,1.42,1.42,0,0,1,0-.85.86.86,0,0,1,.17-.33.83.83,0,0,1,.28-.21,1,1,0,0,1,.4-.07h1.17a1.28,1.28,0,0,0,.56-.1h0v.61Zm-.43.64a1,1,0,0,0,0-.18c0-.06,0-.12-.07-.17a.63.63,0,0,0-.11-.12.31.31,0,0,0-.11-.09h-.49v.32a.83.83,0,0,0,.11.49.36.36,0,0,0,.32.17.4.4,0,0,0,.15,0,.42.42,0,0,0,.12-.08.27.27,0,0,0,.07-.13.48.48,0,0,0,0-.18Zm-2.93-2.18.63-.07-.05-.46.44,0,0,.46,1.47-.14.14,0a.19.19,0,0,0,.08-.07.14.14,0,0,0,0-.09v-.11a.36.36,0,0,0,0-.11.51.51,0,0,1,0-.09l.45,0a.53.53,0,0,1,.05.15.71.71,0,0,1,.05.23,1.23,1.23,0,0,1,0,.27.52.52,0,0,1-.1.23.83.83,0,0,1-.21.16,1.13,1.13,0,0,1-.35.08l-1.49.15,0,.43-.43,0-.05-.43-.63.06-.05-.58Zm3.1-1.85.05.58-2.61.25-.06-.58Zm-3.24.93a.3.3,0,0,1-.23-.06.34.34,0,0,1-.11-.24.34.34,0,0,1,.06-.25.36.36,0,0,1,.22-.11.28.28,0,0,1,.23.07.34.34,0,0,1,.11.24.3.3,0,0,1-.07.25A.27.27,0,0,1,318.54,81.35Zm1.84-1.27a1.39,1.39,0,0,1-.54,0,1.11,1.11,0,0,1-.45-.17,1.19,1.19,0,0,1-.33-.34,1.25,1.25,0,0,1-.18-.49,1.32,1.32,0,0,1,0-.53,1.2,1.2,0,0,1,.22-.42,1.4,1.4,0,0,1,.38-.3,1.75,1.75,0,0,1,.52-.16h.05a1.63,1.63,0,0,1,.54,0,1.28,1.28,0,0,1,.45.17,1.1,1.1,0,0,1,.33.35,1.19,1.19,0,0,1,.18.49,1.17,1.17,0,0,1,0,.53,1,1,0,0,1-.22.41,1.26,1.26,0,0,1-.38.3,1.5,1.5,0,0,1-.52.16Zm0-.59a1.35,1.35,0,0,0,.33-.09.64.64,0,0,0,.25-.15.48.48,0,0,0,.15-.22.46.46,0,0,0,0-.29.47.47,0,0,0-.11-.27.44.44,0,0,0-.21-.17.88.88,0,0,0-.29-.07.92.92,0,0,0-.33,0h-.05a1.59,1.59,0,0,0-.33.09.72.72,0,0,0-.25.16.4.4,0,0,0-.16.22.54.54,0,0,0,0,.29.47.47,0,0,0,.11.27.54.54,0,0,0,.21.16.74.74,0,0,0,.29.08,2,2,0,0,0,.34,0Zm-1.79-2.4.29-.09a.93.93,0,0,1-.33-.26,1.06,1.06,0,0,1-.23-.74.63.63,0,0,1,.1-.3.82.82,0,0,1,.25-.24,1.75,1.75,0,0,1,.43-.17l1.64-.41.15.57-1.65.42A.93.93,0,0,0,319,76a.29.29,0,0,0-.12.13.28.28,0,0,0-.05.16,1.68,1.68,0,0,0,0,.2.57.57,0,0,0,.17.28.48.48,0,0,0,.28.15l1.81-.45.14.57-2.54.64-.14-.54Zm.88-4-.11.06a.23.23,0,0,0-.07.11.78.78,0,0,0,0,.19,1.73,1.73,0,0,0,0,.3,2.67,2.67,0,0,1,0,.4.88.88,0,0,1-.06.33.7.7,0,0,1-.15.25.56.56,0,0,1-.26.15.65.65,0,0,1-.31,0,.56.56,0,0,1-.3-.12.91.91,0,0,1-.27-.25,1.34,1.34,0,0,1-.18-.38,1.44,1.44,0,0,1-.07-.44,1,1,0,0,1,.07-.37.92.92,0,0,1,.19-.28,1.11,1.11,0,0,1,.3-.17l.17.57a.24.24,0,0,0-.13.07.27.27,0,0,0-.09.12.43.43,0,0,0,0,.16.88.88,0,0,0,0,.21.39.39,0,0,0,.09.17.36.36,0,0,0,.1.11.35.35,0,0,0,.13,0h.13a.33.33,0,0,0,.1-.06.2.2,0,0,0,.06-.11.84.84,0,0,0,0-.18c0-.07,0-.17,0-.27s0-.3,0-.43a1.59,1.59,0,0,1,.06-.34.67.67,0,0,1,.16-.24.59.59,0,0,1,.28-.16.7.7,0,0,1,.32,0,.76.76,0,0,1,.31.13,1.09,1.09,0,0,1,.25.27,1.48,1.48,0,0,1,.19.4,1.4,1.4,0,0,1,.07.48,1.12,1.12,0,0,1-.09.39.88.88,0,0,1-.2.29.92.92,0,0,1-.29.16l-.17-.55a.33.33,0,0,0,.18-.11.51.51,0,0,0,.09-.16.55.55,0,0,0,0-.18,1.08,1.08,0,0,0,0-.19.59.59,0,0,0-.2-.32.28.28,0,0,0-.25-.05Z"></path>
</svg>
