<?xml version="1.0" encoding="UTF-8"?>
<svg xmlns="http://www.w3.org/2000/svg" viewBox="0 0 350 170">
  <defs>
    <style>.a{fill:#2d61d3;}.b{fill:#f9cb01;}.c{fill:#fff;}.d{fill:#010101;}</style>
  </defs>
  <path class="a" d="M175,6a79,79,0,1,0,79,79A79,79,0,0,0,175,6Zm0,130.12A51.12,51.12,0,1,1,226.12,85,51.12,51.12,0,0,1,175,136.12Z"></path>
  <path class="b" d="M243.41,102.89a.23.23,0,0,0,.14,0,.23.23,0,0,0,.09-.23l-.72-4.22,3.06-3a.22.22,0,0,0,.06-.24.22.22,0,0,0-.19-.16l-4.24-.62-1.89-3.84a.23.23,0,0,0-.42,0l-1.9,3.84-4.24.62a.24.24,0,0,0-.19.16.26.26,0,0,0,.06.24l3.07,3-.72,4.22a.23.23,0,0,0,.09.23.25.25,0,0,0,.25,0l3.79-2,3.79,2,.11,0Zm1.91-7.49"></path>
  <path class="b" d="M235,124.86a.23.23,0,0,0,.14,0,.23.23,0,0,0,.09-.23l-.72-4.22,3.06-3a.22.22,0,0,0,.06-.24.21.21,0,0,0-.19-.16l-4.24-.62-1.89-3.84a.23.23,0,0,0-.42,0l-1.9,3.84-4.24.62a.24.24,0,0,0-.19.16.27.27,0,0,0,.06.24l3.07,3-.72,4.22a.23.23,0,0,0,.09.23.23.23,0,0,0,.25,0l3.79-2,3.79,2a.2.2,0,0,0,.11,0Zm1.91-7.49"></path>
  <path class="b" d="M219.49,142.61a.23.23,0,0,0,.14,0,.24.24,0,0,0,.09-.23l-.72-4.23,3.06-3a.22.22,0,0,0,.06-.24.26.26,0,0,0-.19-.16l-4.24-.61-1.89-3.84a.23.23,0,0,0-.42,0l-1.9,3.84-4.24.61a.28.28,0,0,0-.19.16.26.26,0,0,0,.06.24l3.07,3-.72,4.22a.24.24,0,0,0,.09.23.23.23,0,0,0,.25,0l3.79-2,3.79,2a.2.2,0,0,0,.11,0Zm1.91-7.49"></path>
  <path class="b" d="M199.22,154.33a.22.22,0,0,0,.13,0,.23.23,0,0,0,.1-.23l-.73-4.22,3.07-3a.24.24,0,0,0,.06-.24.22.22,0,0,0-.19-.16l-4.24-.62L195.53,142a.25.25,0,0,0-.22-.13.22.22,0,0,0-.2.13l-1.9,3.84-4.24.62a.22.22,0,0,0-.19.16.24.24,0,0,0,.06.24l3.07,3-.73,4.22a.25.25,0,0,0,.1.23.23.23,0,0,0,.24,0l3.79-2,3.8,2,.11,0Zm1.9-7.49"></path>
  <path class="b" d="M151.42,154.33a.23.23,0,0,1-.14,0,.23.23,0,0,1-.09-.23l.73-4.22-3.07-3a.22.22,0,0,1-.06-.24.22.22,0,0,1,.19-.16l4.24-.62,1.89-3.84a.23.23,0,0,1,.42,0l1.9,3.84,4.24.62a.24.24,0,0,1,.19.16.26.26,0,0,1-.06.24l-3.07,3,.72,4.22a.23.23,0,0,1-.09.23.25.25,0,0,1-.25,0l-3.79-2-3.79,2-.11,0Zm-1.91-7.49"></path>
  <path class="b" d="M131.15,142.61a.23.23,0,0,1-.14,0,.24.24,0,0,1-.09-.23l.72-4.23-3.07-3a.26.26,0,0,1-.06-.24.28.28,0,0,1,.19-.16l4.24-.61,1.9-3.84a.23.23,0,0,1,.42,0l1.89,3.84,4.24.61a.26.26,0,0,1,.19.16.22.22,0,0,1-.06.24l-3.06,3,.72,4.22a.24.24,0,0,1-.09.23.23.23,0,0,1-.25,0l-3.79-2-3.79,2a.23.23,0,0,1-.11,0Zm-1.91-7.49"></path>
  <path class="b" d="M115.64,124.86a.23.23,0,0,1-.14,0,.23.23,0,0,1-.09-.23l.72-4.22-3.07-3a.27.27,0,0,1-.06-.24.24.24,0,0,1,.19-.16l4.24-.62,1.9-3.84a.23.23,0,0,1,.42,0l1.89,3.84,4.24.62a.23.23,0,0,1,.13.4l-3.06,3,.72,4.22a.23.23,0,0,1-.09.23.23.23,0,0,1-.25,0l-3.79-2-3.79,2-.11,0Zm-1.91-7.49"></path>
  <path class="b" d="M107.23,102.89a.23.23,0,0,1-.14,0,.23.23,0,0,1-.09-.23l.72-4.22-3.07-3a.26.26,0,0,1-.06-.24.24.24,0,0,1,.19-.16l4.24-.62,1.9-3.84a.23.23,0,0,1,.42,0l1.89,3.84,4.24.62a.22.22,0,0,1,.19.16.22.22,0,0,1-.06.24l-3.06,3,.72,4.22a.23.23,0,0,1-.09.23.25.25,0,0,1-.25,0l-3.79-2-3.79,2-.11,0Zm-1.91-7.49"></path>
  <path class="c" d="M179.78,147.41v-1a4.8,4.8,0,0,0-9.56,0v1a2.5,2.5,0,0,0-1.56,2.32v5.07a2.51,2.51,0,0,0,2.51,2.51h7.66a2.51,2.51,0,0,0,2.51-2.51v-5.07A2.5,2.5,0,0,0,179.78,147.41ZM176,153a1,1,0,0,1-2.08,0v-1.56a1,1,0,1,1,2.08,0Zm2-5.76h-6v-.79a3,3,0,0,1,6,0Z"></path>
  <path class="d" d="M148.66,85.34a9.3,9.3,0,0,0,2.17-.22,9.67,9.67,0,0,0,1.76-.62V80.9h-2.48a.76.76,0,0,1-.56-.2.66.66,0,0,1-.2-.48V78.14h6.57v8a11.4,11.4,0,0,1-1.56,1,9.78,9.78,0,0,1-1.74.66,14,14,0,0,1-2,.39,18,18,0,0,1-2.27.13,10.33,10.33,0,0,1-4-.75,9.33,9.33,0,0,1-5.21-5.29,10.74,10.74,0,0,1-.75-4.06,11,11,0,0,1,.73-4.09,8.93,8.93,0,0,1,5.28-5.27,11.56,11.56,0,0,1,4.27-.74,11.1,11.1,0,0,1,4.19.72,9.59,9.59,0,0,1,3,1.86l-1.07,1.67a.94.94,0,0,1-.83.5,1.28,1.28,0,0,1-.67-.21c-.29-.18-.59-.35-.9-.52a4.9,4.9,0,0,0-1-.45,7.71,7.71,0,0,0-1.24-.32,9.36,9.36,0,0,0-1.59-.12,6.8,6.8,0,0,0-2.65.49,5.67,5.67,0,0,0-2,1.41,6.38,6.38,0,0,0-1.28,2.2,8.64,8.64,0,0,0-.45,2.87,8.94,8.94,0,0,0,.48,3A6.3,6.3,0,0,0,144,83.46a5.63,5.63,0,0,0,2,1.4A6.86,6.86,0,0,0,148.66,85.34Z"></path>
  <path class="d" d="M176.9,78.17a10.73,10.73,0,0,1-.72,4,9,9,0,0,1-5.2,5.17,11.13,11.13,0,0,1-4.08.72h-7.55V68.29h7.55A10.93,10.93,0,0,1,171,69a9,9,0,0,1,5.2,5.16A10.73,10.73,0,0,1,176.9,78.17Zm-3.76,0a8.83,8.83,0,0,0-.44-2.92,6.17,6.17,0,0,0-1.24-2.19,5.46,5.46,0,0,0-2-1.37,6.73,6.73,0,0,0-2.6-.48h-3.85V85.13h3.85a6.73,6.73,0,0,0,2.6-.48,5.37,5.37,0,0,0,2-1.38,6,6,0,0,0,1.24-2.18A8.87,8.87,0,0,0,173.14,78.17Z"></path>
  <path class="d" d="M183.58,81.09v7h-3.67V68.29h6.43a11.26,11.26,0,0,1,3.43.46,6.56,6.56,0,0,1,2.4,1.3,5.16,5.16,0,0,1,1.39,2,7,7,0,0,1,.45,2.54,7,7,0,0,1-.48,2.63,5.59,5.59,0,0,1-1.43,2.06,6.83,6.83,0,0,1-2.39,1.34,11,11,0,0,1-3.37.47Zm0-2.87h2.76a5.52,5.52,0,0,0,1.77-.25,3.35,3.35,0,0,0,1.24-.72,3.08,3.08,0,0,0,.74-1.15,4.51,4.51,0,0,0,.24-1.51,4.1,4.1,0,0,0-.24-1.44,2.86,2.86,0,0,0-.74-1.09,3.31,3.31,0,0,0-1.24-.69,5.83,5.83,0,0,0-1.77-.24h-2.76Z"></path>
  <path class="d" d="M200.67,80.33v7.72H197V68.29h6a12.87,12.87,0,0,1,3.46.41,6.74,6.74,0,0,1,2.37,1.17,4.56,4.56,0,0,1,1.35,1.8,5.93,5.93,0,0,1,.43,2.3,6.13,6.13,0,0,1-.29,1.89,5.52,5.52,0,0,1-.85,1.61,5.75,5.75,0,0,1-1.37,1.27,7,7,0,0,1-1.85.88,3.58,3.58,0,0,1,1.2,1.13l4.95,7.3h-3.31a1.57,1.57,0,0,1-.81-.19,1.75,1.75,0,0,1-.57-.55L203.58,81a1.53,1.53,0,0,0-.52-.5,1.76,1.76,0,0,0-.82-.15Zm0-2.64H203a5.76,5.76,0,0,0,1.81-.26,3.33,3.33,0,0,0,1.27-.72,2.7,2.7,0,0,0,.75-1.08,3.85,3.85,0,0,0,.25-1.38,2.79,2.79,0,0,0-1-2.31,4.71,4.71,0,0,0-3-.81h-2.35Z"></path>
  <path class="d" d="M141.32,101.48a.32.32,0,0,1,.21.09l.55.6a4.43,4.43,0,0,1-1.55,1.15,5.22,5.22,0,0,1-2.19.42,5.15,5.15,0,0,1-2-.39,4.49,4.49,0,0,1-1.55-1.09,4.74,4.74,0,0,1-1-1.67,6.22,6.22,0,0,1-.36-2.15,6,6,0,0,1,.38-2.16,5,5,0,0,1,1.07-1.68,5,5,0,0,1,1.65-1.09,5.76,5.76,0,0,1,2.12-.38,5.1,5.1,0,0,1,2,.35,5,5,0,0,1,1.47,1l-.45.64a.46.46,0,0,1-.12.12.31.31,0,0,1-.19.05.44.44,0,0,1-.2-.07l-.25-.17c-.09-.07-.21-.14-.34-.22a2.83,2.83,0,0,0-.46-.22,6,6,0,0,0-.62-.17,4.92,4.92,0,0,0-.82-.07,3.92,3.92,0,0,0-1.52.29,3.44,3.44,0,0,0-1.2.81,3.79,3.79,0,0,0-.77,1.29,4.87,4.87,0,0,0-.28,1.71,4.94,4.94,0,0,0,.28,1.73,3.78,3.78,0,0,0,.76,1.28,3.15,3.15,0,0,0,1.14.8,3.53,3.53,0,0,0,1.42.28,5.31,5.31,0,0,0,.83-.06,2.82,2.82,0,0,0,.68-.17,2.49,2.49,0,0,0,.59-.29,6.2,6.2,0,0,0,.55-.42A.33.33,0,0,1,141.32,101.48Z"></path>
  <path class="d" d="M153.56,98.44a5.94,5.94,0,0,1-.37,2.14,4.86,4.86,0,0,1-1,1.67,4.68,4.68,0,0,1-1.62,1.09,5.44,5.44,0,0,1-2.09.39,5.35,5.35,0,0,1-2.08-.39,4.68,4.68,0,0,1-1.62-1.09,4.86,4.86,0,0,1-1-1.67,5.94,5.94,0,0,1-.37-2.14,5.86,5.86,0,0,1,.37-2.14,4.81,4.81,0,0,1,1-1.68,4.57,4.57,0,0,1,1.62-1.1,5.35,5.35,0,0,1,2.08-.39,5.44,5.44,0,0,1,2.09.39,4.57,4.57,0,0,1,1.62,1.1,4.81,4.81,0,0,1,1,1.68A5.86,5.86,0,0,1,153.56,98.44Zm-1.44,0a5.4,5.4,0,0,0-.26-1.72,3.55,3.55,0,0,0-.74-1.29,3.06,3.06,0,0,0-1.16-.8,4.1,4.1,0,0,0-3,0,3.06,3.06,0,0,0-1.16.8,3.57,3.57,0,0,0-.75,1.29,5.79,5.79,0,0,0,0,3.43,3.61,3.61,0,0,0,.75,1.28,3.06,3.06,0,0,0,1.16.8,4.24,4.24,0,0,0,3,0,3.06,3.06,0,0,0,1.16-.8,3.59,3.59,0,0,0,.74-1.28A5.38,5.38,0,0,0,152.12,98.44Z"></path>
  <path class="d" d="M160.76,100.23l.15.39.15-.39.18-.37,3.52-6.38c.06-.11.12-.18.19-.2a1.06,1.06,0,0,1,.29,0h1v10.38h-1.23v-8l0-.36-3.56,6.49a.56.56,0,0,1-.51.33h-.2a.56.56,0,0,1-.51-.33l-3.63-6.51,0,.37c0,.12,0,.23,0,.33v7.63h-1.23V93.24h1a1.06,1.06,0,0,1,.29,0,.41.41,0,0,1,.19.2l3.59,6.39C160.65,100,160.71,100.11,160.76,100.23Z"></path>
  <path class="d" d="M170.35,99.74v3.88H169V93.24H172a5.87,5.87,0,0,1,1.72.23,3.29,3.29,0,0,1,1.2.65,2.55,2.55,0,0,1,.71,1,3.54,3.54,0,0,1,.24,1.33,3.34,3.34,0,0,1-.25,1.32,2.86,2.86,0,0,1-.75,1,3.54,3.54,0,0,1-1.21.68,5.23,5.23,0,0,1-1.66.24Zm0-1.12H172a3.11,3.11,0,0,0,1.06-.16,2,2,0,0,0,.77-.44,1.87,1.87,0,0,0,.48-.69,2.41,2.41,0,0,0,.15-.87,2,2,0,0,0-.61-1.55,2.67,2.67,0,0,0-1.85-.56h-1.66Z"></path>
  <path class="d" d="M179.06,102.44h4.49v1.18h-5.9V93.24h1.41Z"></path>
  <path class="d" d="M186.76,103.62h-1.4V93.24h1.4Z"></path>
  <path class="d" d="M198.08,103.62H197a.5.5,0,0,1-.31-.09.66.66,0,0,1-.17-.24l-1-2.51h-4.66l-1,2.51a.6.6,0,0,1-.17.23.46.46,0,0,1-.31.1h-1.08l4.15-10.38h1.42Zm-6.8-3.85h3.88l-1.63-4.22a7.18,7.18,0,0,1-.31-1l-.16.54a4.44,4.44,0,0,1-.15.44Z"></path>
  <path class="d" d="M200.4,93.29a.69.69,0,0,1,.2.19l6,7.82,0-.36v-7.7h1.23v10.38h-.71a.58.58,0,0,1-.28-.06.64.64,0,0,1-.22-.19l-6-7.82c0,.12,0,.24,0,.36v7.71h-1.23V93.24h.73A.67.67,0,0,1,200.4,93.29Z"></path>
  <path class="d" d="M217.41,93.24v1.18h-3.35v9.2h-1.41v-9.2h-3.36V93.24Z"></path>
  <path class="c" d="M113.78,79.87a5.09,5.09,0,0,0,0-.67,3.68,3.68,0,0,0-.06-.59,4,4,0,0,0-.13-.52,5.1,5.1,0,0,0-.19-.5l-2-.14-.1,1.4a.3.3,0,0,1-.08.19.28.28,0,0,1-.18.06l-.69,0,.19-2.77,3.47.24a4.71,4.71,0,0,1,.38.74,5.44,5.44,0,0,1,.25.81,6.45,6.45,0,0,1,.12.91,7.5,7.5,0,0,1,0,1,4.68,4.68,0,0,1-.46,1.78,4,4,0,0,1-1,1.34,4.21,4.21,0,0,1-1.52.82,5.13,5.13,0,0,1-1.9.2,5.19,5.19,0,0,1-1.86-.46,4.08,4.08,0,0,1-2.23-2.55,5.3,5.3,0,0,1-.2-1.94,6.88,6.88,0,0,1,.15-1,4.37,4.37,0,0,1,.29-.84,3.47,3.47,0,0,1,.41-.7,4.15,4.15,0,0,1,.52-.59l.53.39a.29.29,0,0,1,.15.28.45.45,0,0,1-.09.22,3.73,3.73,0,0,1-.24.34,3.11,3.11,0,0,0-.27.46,3.67,3.67,0,0,0-.39,1.54,3.54,3.54,0,0,0,.15,1.4,3,3,0,0,0,.63,1.11,3.1,3.1,0,0,0,1.08.74,4.41,4.41,0,0,0,1.46.34,4.54,4.54,0,0,0,1.55-.13,3.08,3.08,0,0,0,1.18-.61,2.82,2.82,0,0,0,.79-1A3.47,3.47,0,0,0,113.78,79.87Z"></path>
  <path class="c" d="M109.31,71.41a3,3,0,0,1,.4-1,2.44,2.44,0,0,1,.71-.72,2.54,2.54,0,0,1,1-.36,3.45,3.45,0,0,1,1.23,0,.84.84,0,0,1,.34.12.25.25,0,0,1,0,.23l-.84,4.18a3.62,3.62,0,0,0,1.07,0,2,2,0,0,0,.82-.27,1.58,1.58,0,0,0,.56-.53,2.11,2.11,0,0,0,.31-.77,2.81,2.81,0,0,0,0-.74,3.7,3.7,0,0,0-.11-.56,3.79,3.79,0,0,0-.13-.4.49.49,0,0,1,0-.27.25.25,0,0,1,.15-.19l.46-.23a2.33,2.33,0,0,1,.34.57,3.14,3.14,0,0,1,.17.67,4.24,4.24,0,0,1,.05.71,5.35,5.35,0,0,1-.08.7,3.32,3.32,0,0,1-.46,1.16,2.74,2.74,0,0,1-.84.82,3,3,0,0,1-1.17.41,4.44,4.44,0,0,1-1.48-.07,3.53,3.53,0,0,1-1.19-.44,3,3,0,0,1-.87-.78,2.8,2.8,0,0,1-.48-1A3.25,3.25,0,0,1,109.31,71.41Zm.82.14a1.7,1.7,0,0,0,.21,1.35,2.24,2.24,0,0,0,1.16.83l.69-3.42a2.27,2.27,0,0,0-.73,0,1.56,1.56,0,0,0-.61.19,1.45,1.45,0,0,0-.46.43A1.81,1.81,0,0,0,110.13,71.55Z"></path>
  <path class="c" d="M116.52,68.92,110.42,67l.2-.64a.28.28,0,0,1,.31-.22l.69.13a3.66,3.66,0,0,1-.43-1.12,2.58,2.58,0,0,1,.09-1.22,2.44,2.44,0,0,1,.45-.83,1.79,1.79,0,0,1,.67-.49,2.15,2.15,0,0,1,.85-.16,3.55,3.55,0,0,1,1,.17l3.89,1.23-.34,1.07-3.89-1.23a1.74,1.74,0,0,0-1.17,0,1.22,1.22,0,0,0-.69.85,1.84,1.84,0,0,0-.05,1,3.17,3.17,0,0,0,.37,1l4.5,1.42Z"></path>
  <path class="c" d="M113.74,57.53a2.71,2.71,0,0,1,.61-.89,2.31,2.31,0,0,1,.84-.55,2.76,2.76,0,0,1,1-.14,3.44,3.44,0,0,1,1.19.31.72.72,0,0,1,.3.2.23.23,0,0,1,0,.23L116,60.58a3.52,3.52,0,0,0,1,.28,2.13,2.13,0,0,0,.85-.08,1.64,1.64,0,0,0,.67-.4,2,2,0,0,0,.46-.69,2.12,2.12,0,0,0,.21-.7,3.87,3.87,0,0,0,0-.57,4,4,0,0,0,0-.43.47.47,0,0,1,0-.27.25.25,0,0,1,.18-.15l.51-.13a2.28,2.28,0,0,1,.2.64,4,4,0,0,1,0,.69,4.1,4.1,0,0,1-.12.7,3.78,3.78,0,0,1-.23.67,3.38,3.38,0,0,1-.69,1,2.65,2.65,0,0,1-1,.61,2.75,2.75,0,0,1-1.23.15,4.41,4.41,0,0,1-1.44-.38,3.56,3.56,0,0,1-1.06-.7,2.79,2.79,0,0,1-.68-.94,2.7,2.7,0,0,1-.23-1.14A3,3,0,0,1,113.74,57.53Zm.77.31a1.75,1.75,0,0,0-.09,1.37,2.24,2.24,0,0,0,1,1.06l1.41-3.19a2.16,2.16,0,0,0-.7-.19,1.74,1.74,0,0,0-.65.06,1.36,1.36,0,0,0-.54.32A1.69,1.69,0,0,0,114.51,57.84Z"></path>
  <path class="c" d="M121.36,56.65l-5.58-3.12.31-.57c.06-.1.12-.17.18-.18a.42.42,0,0,1,.26,0l.91.42a2.93,2.93,0,0,1-.52-1.22,1.81,1.81,0,0,1,.23-1.17,1.65,1.65,0,0,1,.29-.39,1.5,1.5,0,0,1,.34-.27l.66.54a.19.19,0,0,1,0,.25,1.26,1.26,0,0,1-.18.21,1.66,1.66,0,0,0-.49,1.44,2.6,2.6,0,0,0,.54,1.06l3.56,2Z"></path>
  <path class="c" d="M126.32,48.71l-.28.42a.68.68,0,0,1-.19.19.31.31,0,0,1-.26,0l-.56-.23c0,.23,0,.44.06.64a2.88,2.88,0,0,1,0,.59,2.47,2.47,0,0,1-.17.57,3.13,3.13,0,0,1-.32.59,2.39,2.39,0,0,1-.48.52,1.67,1.67,0,0,1-.58.29,1.57,1.57,0,0,1-.65,0,2.08,2.08,0,0,1-.71-.31,1.5,1.5,0,0,1-.49-.59,1.85,1.85,0,0,1-.13-.91,4.36,4.36,0,0,1,.31-1.25,8.5,8.5,0,0,1,.9-1.62l-.42-.29A1.75,1.75,0,0,0,121.2,47a1.17,1.17,0,0,0-.85.56,2.22,2.22,0,0,0-.3.63,2.28,2.28,0,0,0-.08.54c0,.16,0,.3,0,.42a.48.48,0,0,1-.08.3.26.26,0,0,1-.16.13.34.34,0,0,1-.2,0l-.41,0a3.75,3.75,0,0,1,0-1.38,3.52,3.52,0,0,1,.56-1.26,2.36,2.36,0,0,1,.68-.69,1.93,1.93,0,0,1,.8-.31A2.22,2.22,0,0,1,122,46a3.12,3.12,0,0,1,.9.44Zm-2.22,2a2.13,2.13,0,0,0,.26-.49,1.88,1.88,0,0,0,.12-.48,2.64,2.64,0,0,0,0-.49,5.24,5.24,0,0,0-.08-.53L123.33,48a7,7,0,0,0-.67,1.15,3.59,3.59,0,0,0-.28.87,1.24,1.24,0,0,0,0,.62.77.77,0,0,0,.31.4,1,1,0,0,0,.41.18.77.77,0,0,0,.37,0,.87.87,0,0,0,.33-.17A1.63,1.63,0,0,0,124.1,50.74Z"></path>
  <path class="c" d="M120.8,40.72l7.27,5.82-.7.88L120.1,41.6Z"></path>
  <path class="c" d="M133.42,34.54a5.23,5.23,0,0,1,1,1.57,4.09,4.09,0,0,1,.32,1.66,4,4,0,0,1-.39,1.64,5.08,5.08,0,0,1-1.1,1.49l-2.46,2.32-6.22-6.58,2.46-2.32a4.91,4.91,0,0,1,1.54-1,4,4,0,0,1,1.66-.3,4.11,4.11,0,0,1,1.65.42A5.2,5.2,0,0,1,133.42,34.54Zm-.91.87a4.34,4.34,0,0,0-1.19-.93,3.22,3.22,0,0,0-1.23-.37,2.87,2.87,0,0,0-1.22.19,3.52,3.52,0,0,0-1.12.74l-1.57,1.48L131,41.66l1.57-1.48a3.64,3.64,0,0,0,.79-1.09,2.61,2.61,0,0,0,.26-1.19,3,3,0,0,0-.29-1.25A4.41,4.41,0,0,0,132.51,35.41Z"></path>
  <path class="c" d="M141.35,34.37l-.41.3a.57.57,0,0,1-.24.11.3.3,0,0,1-.23-.09l-.46-.41c0,.22-.1.43-.15.62a3.25,3.25,0,0,1-.23.54,2.74,2.74,0,0,1-.35.49,3.65,3.65,0,0,1-.5.44,2.12,2.12,0,0,1-.63.33,1.59,1.59,0,0,1-.64.08,1.61,1.61,0,0,1-.62-.2,2,2,0,0,1-.56-.53,1.5,1.5,0,0,1-.27-.72,2,2,0,0,1,.18-.9,4.21,4.21,0,0,1,.72-1.08,8.26,8.26,0,0,1,1.38-1.22l-.29-.41a1.79,1.79,0,0,0-.93-.73,1.16,1.16,0,0,0-1,.25,2,2,0,0,0-.5.49,2.78,2.78,0,0,0-.25.48l-.15.39a.51.51,0,0,1-.18.26.28.28,0,0,1-.19.07.45.45,0,0,1-.2,0l-.38-.17a3.68,3.68,0,0,1,.48-1.29,3.45,3.45,0,0,1,.94-1,2.53,2.53,0,0,1,.88-.42,1.92,1.92,0,0,1,.86,0,2.28,2.28,0,0,1,.8.36,3.34,3.34,0,0,1,.69.71Zm-2.77,1.17a2.49,2.49,0,0,0,.41-.37,1.88,1.88,0,0,0,.27-.42,2.75,2.75,0,0,0,.18-.46,3.69,3.69,0,0,0,.1-.52l-.78-1.07a8.88,8.88,0,0,0-1,.86,3.86,3.86,0,0,0-.56.73,1.27,1.27,0,0,0-.18.6.81.81,0,0,0,.16.48,1.06,1.06,0,0,0,.33.31.89.89,0,0,0,.35.11.8.8,0,0,0,.37-.06A1.57,1.57,0,0,0,138.58,35.54Z"></path>
  <path class="c" d="M144.35,32.66a1.56,1.56,0,0,1-1.22.24,1.73,1.73,0,0,1-1-.84l-2-3.36-.67.4a.25.25,0,0,1-.17,0,.32.32,0,0,1-.16-.13l-.23-.38.83-.66L139,26.14a.2.2,0,0,1,0-.17.24.24,0,0,1,.12-.14l.48-.3,1.14,1.89,1.57-.94.42.7-1.57.94,2,3.3a.8.8,0,0,0,.48.41.68.68,0,0,0,.53-.09,1,1,0,0,0,.24-.2,1.28,1.28,0,0,0,.14-.21l.08-.17a.21.21,0,0,1,.08-.1.19.19,0,0,1,.19,0l.56.29a2.07,2.07,0,0,1-.39.73A2.32,2.32,0,0,1,144.35,32.66Z"></path>
  <path class="c" d="M150.76,29.22l-.45.22a.6.6,0,0,1-.26.07.26.26,0,0,1-.21-.14l-.38-.47a6.29,6.29,0,0,1-.26.58,2.34,2.34,0,0,1-.33.49,2.78,2.78,0,0,1-.42.42,3.17,3.17,0,0,1-.58.34,2.09,2.09,0,0,1-.67.21,1.52,1.52,0,0,1-.64,0,1.56,1.56,0,0,1-.58-.31,1.89,1.89,0,0,1-.46-.62,1.46,1.46,0,0,1-.13-.75,1.82,1.82,0,0,1,.33-.86,4.29,4.29,0,0,1,.9-.93,8.74,8.74,0,0,1,1.58-1L148,26a1.72,1.72,0,0,0-.78-.88,1.16,1.16,0,0,0-1,.06,1.9,1.9,0,0,0-.58.4,2.42,2.42,0,0,0-.33.42c-.09.14-.16.26-.22.37a.52.52,0,0,1-.22.22.35.35,0,0,1-.2,0,.62.62,0,0,1-.19-.07l-.34-.24a3.6,3.6,0,0,1,.7-1.19,3.49,3.49,0,0,1,1.11-.82,2.4,2.4,0,0,1,.93-.25,2,2,0,0,1,.85.13,2.28,2.28,0,0,1,.72.5,3,3,0,0,1,.56.83Zm-2.93.66a2.29,2.29,0,0,0,.46-.3,1.93,1.93,0,0,0,.35-.35,3,3,0,0,0,.26-.42c.07-.16.13-.32.19-.5l-.58-1.19a7.48,7.48,0,0,0-1.14.67,3.63,3.63,0,0,0-.69.62,1.15,1.15,0,0,0-.28.55.79.79,0,0,0,.07.5,1.13,1.13,0,0,0,.27.36.77.77,0,0,0,.33.18.92.92,0,0,0,.37,0A2,2,0,0,0,147.83,29.88Z"></path>
  <path class="c" d="M154.76,24.1l1,3.23-1.17.36L151.92,19l2.55-.79A5.1,5.1,0,0,1,156,18a2.87,2.87,0,0,1,1.17.23,2.23,2.23,0,0,1,.86.66,3.25,3.25,0,0,1,.54,1.05,3.17,3.17,0,0,1,.13,1.17,2.44,2.44,0,0,1-.36,1.05,2.87,2.87,0,0,1-.83.88,4.5,4.5,0,0,1-1.32.63Zm-.29-.93,1.39-.43a2.74,2.74,0,0,0,.84-.41,1.68,1.68,0,0,0,.53-.57,1.65,1.65,0,0,0,.22-.69,1.9,1.9,0,0,0-.1-.77,1.75,1.75,0,0,0-.91-1.14,2.31,2.31,0,0,0-1.68,0l-1.39.43Z"></path>
  <path class="c" d="M161.51,25.71l-1.26-6.27.64-.13a.36.36,0,0,1,.26,0,.49.49,0,0,1,.14.22l.27,1a2.85,2.85,0,0,1,.59-1.18,1.83,1.83,0,0,1,1-.6,2,2,0,0,1,.48,0,1.84,1.84,0,0,1,.42.08l0,.86a.19.19,0,0,1-.16.19.92.92,0,0,1-.28,0,1.76,1.76,0,0,0-.52.05,1.42,1.42,0,0,0-.89.52,2.57,2.57,0,0,0-.46,1.11l.8,4Z"></path>
  <path class="c" d="M168.23,18.05a3.41,3.41,0,0,1,1.29.11,2.67,2.67,0,0,1,1,.56,2.88,2.88,0,0,1,.71,1A4.4,4.4,0,0,1,171.6,21a4.15,4.15,0,0,1-.08,1.38,2.87,2.87,0,0,1-.5,1.09,2.57,2.57,0,0,1-.88.75,3.09,3.09,0,0,1-1.24.36,3.2,3.2,0,0,1-1.29-.1,2.55,2.55,0,0,1-1-.56,3.11,3.11,0,0,1-.72-1,4.39,4.39,0,0,1-.27-2.71,3.08,3.08,0,0,1,.5-1.1,2.7,2.7,0,0,1,.89-.75A3.27,3.27,0,0,1,168.23,18.05Zm.58,5.69a1.62,1.62,0,0,0,1.34-.78,2.88,2.88,0,0,0,.29-1.81,2.92,2.92,0,0,0-.65-1.72,1.59,1.59,0,0,0-1.47-.49,1.93,1.93,0,0,0-.81.24,1.52,1.52,0,0,0-.54.53,2.17,2.17,0,0,0-.28.8,4.39,4.39,0,0,0,0,1,4.09,4.09,0,0,0,.22,1,2.07,2.07,0,0,0,.43.71,1.64,1.64,0,0,0,.63.41A2.11,2.11,0,0,0,168.81,23.74Z"></path>
  <path class="c" d="M175.05,24.31a1.5,1.5,0,0,1-1.16-.41,1.66,1.66,0,0,1-.42-1.22l0-3.92h-.78a.27.27,0,0,1-.17-.06.26.26,0,0,1-.07-.19v-.44l1.05-.15.24-2a.22.22,0,0,1,.08-.15.26.26,0,0,1,.18-.06h.56l0,2.21,1.84,0v.82h-1.83l0,3.85a.79.79,0,0,0,.2.59.69.69,0,0,0,.51.2,1,1,0,0,0,.31-.05l.22-.11a1.11,1.11,0,0,0,.16-.11.19.19,0,0,1,.28.06l.33.54a2.23,2.23,0,0,1-.7.43A2.42,2.42,0,0,1,175.05,24.31Z"></path>
  <path class="c" d="M180.69,17.94a3.13,3.13,0,0,1,1,.28,2.49,2.49,0,0,1,.8.63,2.52,2.52,0,0,1,.47.94,3.21,3.21,0,0,1,.1,1.22.7.7,0,0,1-.08.35.22.22,0,0,1-.22.07l-4.25-.34a3.55,3.55,0,0,0,.08,1.06,2.15,2.15,0,0,0,.35.78,1.61,1.61,0,0,0,.6.5,2.19,2.19,0,0,0,.8.22,2.49,2.49,0,0,0,.74,0,3.86,3.86,0,0,0,.54-.17,2.92,2.92,0,0,0,.39-.18.51.51,0,0,1,.26-.08.27.27,0,0,1,.21.13l.28.43a2,2,0,0,1-.54.4,2.75,2.75,0,0,1-.64.25,3.32,3.32,0,0,1-.7.13,4.09,4.09,0,0,1-.7,0,3.33,3.33,0,0,1-1.2-.32,2.63,2.63,0,0,1-.91-.74,3,3,0,0,1-.55-1.12,4.38,4.38,0,0,1-.11-1.48,3.84,3.84,0,0,1,.31-1.23,3,3,0,0,1,.67-.95,2.61,2.61,0,0,1,1-.59A3.11,3.11,0,0,1,180.69,17.94Zm0,.83a1.75,1.75,0,0,0-1.32.37,2.2,2.2,0,0,0-.68,1.25l3.47.28a2.4,2.4,0,0,0-.05-.72,1.88,1.88,0,0,0-.27-.59,1.43,1.43,0,0,0-.48-.4A1.59,1.59,0,0,0,180.65,18.77Z"></path>
  <path class="c" d="M189.26,20.45l-.12.09a.24.24,0,0,1-.15,0,.34.34,0,0,1-.19-.12l-.25-.22a2.38,2.38,0,0,0-.37-.24,1.66,1.66,0,0,0-.57-.19,1.86,1.86,0,0,0-.85,0,1.5,1.5,0,0,0-.68.36,2.27,2.27,0,0,0-.5.69,4.1,4.1,0,0,0-.3,1,3.76,3.76,0,0,0-.06,1,2.4,2.4,0,0,0,.23.81,1.57,1.57,0,0,0,.49.56,1.75,1.75,0,0,0,.74.3,2,2,0,0,0,.68,0,1.75,1.75,0,0,0,.47-.14,2.56,2.56,0,0,0,.33-.16.32.32,0,0,1,.24-.05.21.21,0,0,1,.19.14l.24.46a2.41,2.41,0,0,1-1.16.55,3.55,3.55,0,0,1-1.34,0,2.83,2.83,0,0,1-1.06-.41,2.42,2.42,0,0,1-.76-.8A3,3,0,0,1,184.1,23a4.53,4.53,0,0,1,.48-2.68,2.86,2.86,0,0,1,.76-.92,2.56,2.56,0,0,1,1-.5,3,3,0,0,1,1.31,0,3.09,3.09,0,0,1,1.13.42,2.93,2.93,0,0,1,.79.78Z"></path>
  <path class="c" d="M191.46,26.57a1.56,1.56,0,0,1-1-.71,1.69,1.69,0,0,1-.07-1.29l1-3.78-.75-.2a.24.24,0,0,1-.14-.1.23.23,0,0,1,0-.2l.12-.43,1,.14.77-1.84a.28.28,0,0,1,.12-.12.25.25,0,0,1,.19,0l.55.14-.58,2.13,1.77.48-.22.79-1.77-.48-1,3.71a.83.83,0,0,0,0,.63.7.7,0,0,0,.44.32,1.06,1.06,0,0,0,.55,0l.19-.06a.26.26,0,0,1,.12,0c.06,0,.1.06.13.14l.17.61a2.2,2.2,0,0,1-.79.23A2.49,2.49,0,0,1,191.46,26.57Z"></path>
  <path class="c" d="M197.27,21.59l-2.07,6.06-1.07-.37,2.08-6.05Zm.89-1.82a.76.76,0,0,1-.41.45.64.64,0,0,1-.3.08.65.65,0,0,1-.31,0,.61.61,0,0,1-.27-.16.88.88,0,0,1-.19-.24,1,1,0,0,1-.08-.3.85.85,0,0,1,0-.31.92.92,0,0,1,.16-.27.76.76,0,0,1,.25-.19.61.61,0,0,1,.3-.08.84.84,0,0,1,.31,0,.92.92,0,0,1,.27.16.83.83,0,0,1,.18.25.86.86,0,0,1,.09.3A.69.69,0,0,1,198.16,19.77Z"></path>
  <path class="c" d="M201.89,23.3A3.32,3.32,0,0,1,203,24a2.69,2.69,0,0,1,.61,1,2.93,2.93,0,0,1,.14,1.19,4.1,4.1,0,0,1-.35,1.34,4.05,4.05,0,0,1-.74,1.16,3,3,0,0,1-1,.71,2.62,2.62,0,0,1-1.15.22,3.3,3.3,0,0,1-1.25-.3,3.18,3.18,0,0,1-1.07-.71,2.84,2.84,0,0,1-.62-1,2.73,2.73,0,0,1-.14-1.19,3.92,3.92,0,0,1,.35-1.34,4,4,0,0,1,.74-1.16,3,3,0,0,1,1-.71,2.73,2.73,0,0,1,1.14-.22A3.48,3.48,0,0,1,201.89,23.3Zm-2.29,5.24a1.63,1.63,0,0,0,1.55,0,2.88,2.88,0,0,0,1.14-1.43,3,3,0,0,0,.29-1.82,1.64,1.64,0,0,0-1.05-1.15,2,2,0,0,0-.83-.19,1.57,1.57,0,0,0-.73.2,2.31,2.31,0,0,0-.63.56,4.08,4.08,0,0,0-.51.88,4.32,4.32,0,0,0-.3,1,2.13,2.13,0,0,0,0,.84,1.51,1.51,0,0,0,.35.66A2,2,0,0,0,199.6,28.54Z"></path>
  <path class="c" d="M203.09,31l3.21-5.54.58.33a.28.28,0,0,1,.14.36l-.27.64a4.08,4.08,0,0,1,1.18-.18,2.45,2.45,0,0,1,1.18.36,2.26,2.26,0,0,1,.71.61,1.84,1.84,0,0,1,.33.76,2.14,2.14,0,0,1,0,.87,3,3,0,0,1-.38.93l-2,3.53-1-.57,2-3.52a1.74,1.74,0,0,0,.28-1.15,1.24,1.24,0,0,0-.68-.85,1.81,1.81,0,0,0-.92-.26,3.06,3.06,0,0,0-1,.16l-2.37,4.08Z"></path>
  <path class="c" d="M214.42,33.87,212,36.8l-.95-.77,5.73-7,2,1.62a5.44,5.44,0,0,1,1,1.07,3,3,0,0,1,.49,1,2,2,0,0,1,0,1,2.65,2.65,0,0,1-.5.93,2.59,2.59,0,0,1-.69.6,2.33,2.33,0,0,1-.81.3,2.72,2.72,0,0,1-.9,0,3.55,3.55,0,0,1-.95-.32,1.23,1.23,0,0,1,.06.55l-.22,4.46-.84-.69a.51.51,0,0,1-.22-.51l.22-4a.62.62,0,0,0,0-.31.79.79,0,0,0-.25-.29Zm.56-.69,1,.81a3.17,3.17,0,0,0,.82.5,1.92,1.92,0,0,0,.76.14,1.46,1.46,0,0,0,.68-.17,1.69,1.69,0,0,0,.56-.48,1.41,1.41,0,0,0,.36-1.28,2.5,2.5,0,0,0-1-1.32l-1-.85Z"></path>
  <path class="c" d="M223.31,38.22a3,3,0,0,1,.6.89,2.44,2.44,0,0,1-.08,2,3.41,3.41,0,0,1-.73,1,.77.77,0,0,1-.29.2c-.07,0-.14,0-.22-.09l-3-3.06A3.63,3.63,0,0,0,219,40a2.28,2.28,0,0,0-.24.83,1.64,1.64,0,0,0,.11.76,2.07,2.07,0,0,0,.47.69,2.29,2.29,0,0,0,.58.46,3.2,3.2,0,0,0,.52.23l.41.12a.49.49,0,0,1,.25.12.26.26,0,0,1,.07.22l-.08.52a2.14,2.14,0,0,1-.66-.06,3.15,3.15,0,0,1-.65-.23,3.2,3.2,0,0,1-.61-.37,3.89,3.89,0,0,1-.53-.46,3.11,3.11,0,0,1-.69-1,2.69,2.69,0,0,1-.2-1.15,2.83,2.83,0,0,1,.32-1.2,4.35,4.35,0,0,1,.9-1.19,3.6,3.6,0,0,1,1-.72,2.89,2.89,0,0,1,1.13-.28,2.84,2.84,0,0,1,1.14.21A3.08,3.08,0,0,1,223.31,38.22Zm-.58.59a1.71,1.71,0,0,0-1.23-.59,2.18,2.18,0,0,0-1.34.49l2.42,2.5a2.17,2.17,0,0,0,.44-.58,1.42,1.42,0,0,0,.18-.62,1.34,1.34,0,0,0-.09-.62A1.66,1.66,0,0,0,222.73,38.81Z"></path>
  <path class="c" d="M227.71,43.25a2.81,2.81,0,0,1,.41.67,2.25,2.25,0,0,1,.2.69L229.4,46l-.33.26a.27.27,0,0,1-.37,0l-.53-.51a2.05,2.05,0,0,1-.59.73,2.2,2.2,0,0,1-.78.39,2.06,2.06,0,0,1-.82,0,2.33,2.33,0,0,1-.8-.34,3,3,0,0,1-.71-.67,3.08,3.08,0,0,1-.44-.73,1.07,1.07,0,0,0-.41-.07.5.5,0,0,0-.29.1.4.4,0,0,0-.17.37,1.46,1.46,0,0,0,.16.49,4.15,4.15,0,0,0,.39.57l.48.62a3.93,3.93,0,0,1,.43.66,2.17,2.17,0,0,1,.25.68,1.23,1.23,0,0,1-.05.66,1.24,1.24,0,0,1-.46.59,1.55,1.55,0,0,1-.76.34,2.34,2.34,0,0,1-.91,0,3.16,3.16,0,0,1-1-.44,4,4,0,0,1-.92-.88,4.77,4.77,0,0,1-.65-1,2.77,2.77,0,0,1-.25-.92A1.65,1.65,0,0,1,220,46a1.31,1.31,0,0,1,.4-.53,1.14,1.14,0,0,1,.82-.26,2,2,0,0,1,.92.32,1.27,1.27,0,0,1,0-.55,1,1,0,0,1,.35-.48.84.84,0,0,1,.25-.13.88.88,0,0,1,.33-.06,1.27,1.27,0,0,1,.38,0,1.69,1.69,0,0,1,.4.13,2,2,0,0,1,.09-1,2,2,0,0,1,.64-.84,2,2,0,0,1,.78-.39,1.94,1.94,0,0,1,.83,0,2.22,2.22,0,0,1,.8.34A3,3,0,0,1,227.71,43.25ZM223.58,49a.56.56,0,0,0,.22-.34.82.82,0,0,0,0-.43,2.59,2.59,0,0,0-.23-.48,3.46,3.46,0,0,0-.36-.52l-.41-.53a2.46,2.46,0,0,1-.34-.56,1.65,1.65,0,0,0-.69-.2.79.79,0,0,0-.6.19.73.73,0,0,0-.24.33.9.9,0,0,0,0,.47,1.91,1.91,0,0,0,.18.58,4.09,4.09,0,0,0,.44.69,4.61,4.61,0,0,0,.57.59,2.26,2.26,0,0,0,.57.33,1.21,1.21,0,0,0,.52.07A.89.89,0,0,0,223.58,49Zm1.48-3.7a1.91,1.91,0,0,0,.44.42,1.35,1.35,0,0,0,.48.18,1,1,0,0,0,.49,0,1.39,1.39,0,0,0,.46-.25,1.26,1.26,0,0,0,.52-.86,1.73,1.73,0,0,0-1.28-1.63,1.28,1.28,0,0,0-1,.3,1.41,1.41,0,0,0-.35.39,1.14,1.14,0,0,0-.16.47,1.46,1.46,0,0,0,.06.5A1.78,1.78,0,0,0,225.06,45.34Z"></path>
  <path class="c" d="M231,48l-3.46,2.17a1.7,1.7,0,0,0-.78.88,1.25,1.25,0,0,0,.2,1.06,1.93,1.93,0,0,0,.69.67,3.24,3.24,0,0,0,1,.34l4-2.5.6,1-5.43,3.39-.36-.57a.29.29,0,0,1,0-.38l.54-.44a3.53,3.53,0,0,1-1.13-.4,2.46,2.46,0,0,1-.87-.86,2.54,2.54,0,0,1-.34-.88,1.94,1.94,0,0,1,.06-.83,2.2,2.2,0,0,1,.43-.75,3.8,3.8,0,0,1,.77-.64L230.41,47Z"></path>
  <path class="c" d="M237.41,53.25l-8.28,4.27-.52-1,8.28-4.27Z"></path>
  <path class="c" d="M231.78,63.47l-.19-.46a.73.73,0,0,1-.06-.26.3.3,0,0,1,.15-.21l.5-.35a5,5,0,0,1-.57-.29,2.73,2.73,0,0,1-.47-.35,2.47,2.47,0,0,1-.4-.45,3.62,3.62,0,0,1-.31-.59,2.22,2.22,0,0,1-.18-.68,1.74,1.74,0,0,1,.07-.65,1.56,1.56,0,0,1,.34-.56,1.83,1.83,0,0,1,.65-.42,1.35,1.35,0,0,1,.75-.09,1.74,1.74,0,0,1,.84.38,4.26,4.26,0,0,1,.88.94,8.35,8.35,0,0,1,.88,1.63l.46-.19a1.74,1.74,0,0,0,.92-.74,1.14,1.14,0,0,0,0-1,2.38,2.38,0,0,0-.36-.6,2.55,2.55,0,0,0-.41-.35c-.13-.1-.25-.17-.35-.24a.51.51,0,0,1-.21-.23.31.31,0,0,1,0-.21.42.42,0,0,1,.08-.18L235,57a3.73,3.73,0,0,1,1.14.76,3.39,3.39,0,0,1,.76,1.16,2.4,2.4,0,0,1,.21,1,1.9,1.9,0,0,1-.18.83,2.1,2.1,0,0,1-.54.7,3.36,3.36,0,0,1-.85.51Zm-.49-3a2.19,2.19,0,0,0,.26.48,1.67,1.67,0,0,0,.34.36,2,2,0,0,0,.41.28,3.51,3.51,0,0,0,.48.22l1.22-.51a7.54,7.54,0,0,0-.6-1.18,4.38,4.38,0,0,0-.58-.72,1.26,1.26,0,0,0-.54-.31.81.81,0,0,0-.51,0,1,1,0,0,0-.37.24.82.82,0,0,0-.19.32.77.77,0,0,0,0,.37A1.2,1.2,0,0,0,231.29,60.51Z"></path>
  <path class="c" d="M232.76,66.79a1.54,1.54,0,0,1,.05-1.24,1.67,1.67,0,0,1,1-.76l3.73-1.2-.23-.73a.23.23,0,0,1,0-.18.21.21,0,0,1,.16-.12l.42-.14.45,1,2-.36a.28.28,0,0,1,.18,0,.42.42,0,0,1,.11.15l.17.55-2.1.67.56,1.74-.78.25-.56-1.74-3.66,1.17a.82.82,0,0,0-.51.36.81.81,0,0,0,.11.82,1.06,1.06,0,0,0,.16.19l.15.12a.16.16,0,0,1,.08.09.21.21,0,0,1-.05.19l-.41.47a2,2,0,0,1-.62-.53A2.34,2.34,0,0,1,232.76,66.79Z"></path>
  <path class="c" d="M240.1,68.94l-6.21,1.56-.27-1.09,6.21-1.56Zm2-.24a.65.65,0,0,1-.31,0,.92.92,0,0,1-.29-.11.66.66,0,0,1-.23-.21.74.74,0,0,1-.14-.28.65.65,0,0,1,0-.31.91.91,0,0,1,.1-.29.93.93,0,0,1,.21-.23.67.67,0,0,1,.28-.14.86.86,0,0,1,.32,0,.76.76,0,0,1,.52.31.67.67,0,0,1,.14.28.81.81,0,0,1,0,.31.72.72,0,0,1-.1.29,1.21,1.21,0,0,1-.21.24A.78.78,0,0,1,242.11,68.7Z"></path>
  <path class="c" d="M241.18,73.75a3.27,3.27,0,0,1,0,1.29,2.76,2.76,0,0,1-.5,1,2.82,2.82,0,0,1-.93.77,3.89,3.89,0,0,1-1.31.43,4,4,0,0,1-1.38,0,3,3,0,0,1-1.12-.43,2.71,2.71,0,0,1-.81-.84,3.63,3.63,0,0,1-.41-2.5,2.65,2.65,0,0,1,.49-1.06,2.89,2.89,0,0,1,.92-.77,4,4,0,0,1,1.31-.44,4.27,4.27,0,0,1,1.38,0,3,3,0,0,1,1.13.43,2.64,2.64,0,0,1,.81.85A3.23,3.23,0,0,1,241.18,73.75Zm-5.64.93a1.66,1.66,0,0,0,.86,1.3,3,3,0,0,0,1.83.17,3,3,0,0,0,1.68-.76,1.63,1.63,0,0,0,.4-1.5,2,2,0,0,0-.3-.79,1.55,1.55,0,0,0-.57-.51,2.19,2.19,0,0,0-.8-.22,4.08,4.08,0,0,0-1,0,4.3,4.3,0,0,0-1,.28,2.05,2.05,0,0,0-.68.47,1.55,1.55,0,0,0-.37.66A2,2,0,0,0,235.54,74.68Z"></path>
  <path class="c" d="M235.36,79l6.4-.34,0,.67a.28.28,0,0,1-.22.31l-.68.13a3.69,3.69,0,0,1,.79.89A2.44,2.44,0,0,1,242,81.8a2.52,2.52,0,0,1-.13.94,1.8,1.8,0,0,1-.45.69,2.34,2.34,0,0,1-.75.45,3.28,3.28,0,0,1-1,.19l-4.07.22-.06-1.12,4.07-.22a1.8,1.8,0,0,0,1.11-.39,1.25,1.25,0,0,0,.34-1,1.75,1.75,0,0,0-.29-.91,2.92,2.92,0,0,0-.69-.77l-4.71.25Z"></path>
</svg>
