<?xml version="1.0" encoding="UTF-8"?>
<svg xmlns="http://www.w3.org/2000/svg" viewBox="0 0 350 170">
  <defs>
    <style>.a{fill:#5f6368;}.b{fill:#ea4335;}.c{fill:#4285f4;}.d{fill:#34a853;}.e{fill:#fbbc05;}</style>
  </defs>
  <path class="a" d="M143.51,105.54v11.12H140V89.2h9.36a8.43,8.43,0,0,1,6.06,2.38,7.94,7.94,0,0,1,0,11.62,8.46,8.46,0,0,1-6.06,2.34Zm0-13v9.59h5.91a4.67,4.67,0,0,0,3.49-1.42,4.82,4.82,0,0,0-3.49-8.17Z"></path>
  <path class="a" d="M167.36,97.25a8.78,8.78,0,0,1,6.18,2.09,7.44,7.44,0,0,1,2.26,5.74v11.58h-3.37v-2.61h-.16a6.72,6.72,0,0,1-5.83,3.22,7.54,7.54,0,0,1-5.19-1.84,5.86,5.86,0,0,1-2.09-4.6,5.59,5.59,0,0,1,2.2-4.64,9.3,9.3,0,0,1,5.89-1.73,10.51,10.51,0,0,1,5.18,1.15v-.8a4,4,0,0,0-1.46-3.13,5,5,0,0,0-3.41-1.28,5.41,5.41,0,0,0-4.68,2.49l-3.11-2A8.66,8.66,0,0,1,167.36,97.25Zm-4.56,13.66a2.82,2.82,0,0,0,1.17,2.3,4.32,4.32,0,0,0,2.74.92,5.62,5.62,0,0,0,4-1.65,5.14,5.14,0,0,0,1.75-3.87,7.27,7.27,0,0,0-4.61-1.31,6,6,0,0,0-3.58,1A3.07,3.07,0,0,0,162.8,110.91Z"></path>
  <path class="a" d="M179.79,97.87h3.38v3.06h.15q1.58-3.6,6.48-3.6l.73.08v3.68l-1.57-.16a5.64,5.64,0,0,0-4.05,1.52,5.08,5.08,0,0,0-1.59,3.85v10.36h-3.53Zm22,19.1a5.38,5.38,0,0,1-3.81-1.42,5.26,5.26,0,0,1-1.55-4V101.09h-3.3V97.87h3.3V92.11H200v5.76h4.61v3.22H200v9.36a3.46,3.46,0,0,0,.73,2.55,2.42,2.42,0,0,0,1.65.67,3.31,3.31,0,0,0,.83-.1,3.58,3.58,0,0,0,.74-.25l1.12,3.15A9.57,9.57,0,0,1,201.8,117Z"></path>
  <path class="a" d="M208.13,97.87h3.38v2.6h.15a6.35,6.35,0,0,1,2.47-2.3,7.16,7.16,0,0,1,3.48-.92,6.93,6.93,0,0,1,5.31,2,7.89,7.89,0,0,1,1.86,5.62v11.81h-3.53V105.08q-.12-4.6-4.64-4.61a4.41,4.41,0,0,0-3.53,1.71,6.17,6.17,0,0,0-1.42,4.09v10.39h-3.53Z"></path>
  <path class="a" d="M237.36,117.27a9,9,0,0,1-6.83-2.84,10,10,0,0,1-2.68-7.17,10.2,10.2,0,0,1,2.6-7.15,8.67,8.67,0,0,1,6.68-2.86,8.56,8.56,0,0,1,6.65,2.71q2.47,2.7,2.47,7.57l0,.39H231.45a6.08,6.08,0,0,0,1.84,4.44,5.94,5.94,0,0,0,9.51-1.68l3.15,1.53a9.39,9.39,0,0,1-3.51,3.72A9.67,9.67,0,0,1,237.36,117.27ZM231.72,105H242.5a4.73,4.73,0,0,0-1.6-3.24,5.53,5.53,0,0,0-3.85-1.29,5.1,5.1,0,0,0-3.43,1.23A5.89,5.89,0,0,0,231.72,105Z"></path>
  <path class="a" d="M253,116.66h-3.52V97.87h3.37v3.06H253a5.18,5.18,0,0,1,2.21-2.55,6.15,6.15,0,0,1,3.28-1,6.59,6.59,0,0,1,2.61.46L260,101.2a5.78,5.78,0,0,0-2.07-.27,4.55,4.55,0,0,0-3.47,1.62A5.39,5.39,0,0,0,253,106.3Z"></path>
  <path class="b" d="M87.74,75.3h2.2L96.23,69l.3-2.66A28.25,28.25,0,0,0,50.59,80.12,3.49,3.49,0,0,1,52.8,80l12.56-2.07s.64-1.06,1-1A15.67,15.67,0,0,1,87.78,75.3Z"></path>
  <path class="c" d="M105.18,80.12a28.29,28.29,0,0,0-8.54-13.75l-8.81,8.82a15.67,15.67,0,0,1,5.75,12.43v1.56a7.85,7.85,0,1,1,0,15.7H77.89l-1.57,1.59v9.41l1.57,1.56H93.58a20.41,20.41,0,0,0,11.6-37.32Z"></path>
  <path class="d" d="M62.17,117.36H77.86V104.79H62.17a7.69,7.69,0,0,1-3.24-.71l-2.21.69-6.32,6.28-.55,2.21a20.39,20.39,0,0,0,12.32,4.1Z"></path>
  <path class="e" d="M62.17,76.6a20.41,20.41,0,0,0-12.32,36.59l9.1-9.11A7.85,7.85,0,1,1,69.33,93.7l9.11-9.1A20.37,20.37,0,0,0,62.17,76.6Z"></path>
  <path class="a" d="M149.87,74.1a11.4,11.4,0,0,1-8.27-3.4,11.35,11.35,0,0,1,0-16.34,11.43,11.43,0,0,1,8.27-3.46,11.06,11.06,0,0,1,7.93,3.2l-2.23,2.27a8,8,0,0,0-5.7-2.26A7.91,7.91,0,0,0,144,56.62a8.44,8.44,0,0,0,0,11.83,8.41,8.41,0,0,0,11.73.13,6.64,6.64,0,0,0,1.71-3.89H149.9V61.48h10.64a9.84,9.84,0,0,1,.13,2,10,10,0,0,1-2.75,7.4,10.67,10.67,0,0,1-8,3.27ZM174.6,72A7.67,7.67,0,0,1,164,72a7.62,7.62,0,0,1,0-10.65,7.67,7.67,0,0,1,10.61,0,7.61,7.61,0,0,1,0,10.65Zm-8.27-2.09a4.06,4.06,0,0,0,5.74.18l.19-.18a4.82,4.82,0,0,0,0-6.48,4.12,4.12,0,0,0-5.83-.13l-.12.13a4.78,4.78,0,0,0,0,6.48ZM190.92,72a7.68,7.68,0,0,1-10.62,0,7.64,7.64,0,0,1,0-10.65,7.66,7.66,0,0,1,10.62,0,7.62,7.62,0,0,1,0,10.65Zm-8.27-2.09a4.06,4.06,0,0,0,5.74.18l.19-.18a4.82,4.82,0,0,0,0-6.48,4.12,4.12,0,0,0-5.83-.13.8.8,0,0,0-.13.13,4.8,4.8,0,0,0,0,6.48Zm19,10.91a6.55,6.55,0,0,1-4.18-1.33A7.71,7.71,0,0,1,195,76.38l2.86-1.19a4.91,4.91,0,0,0,1.41,1.87,3.58,3.58,0,0,0,2.35.78,3.76,3.76,0,0,0,2.92-1.12,4.64,4.64,0,0,0,1-3.26V72.38h-.12a4.74,4.74,0,0,1-3.92,1.69,6.77,6.77,0,0,1-5-2.18,7.18,7.18,0,0,1-2.14-5.25,7.28,7.28,0,0,1,2.14-5.29,6.81,6.81,0,0,1,5-2.19,5.42,5.42,0,0,1,2.31.52,4.55,4.55,0,0,1,1.63,1.19h.11V59.68h3.11V73a7.85,7.85,0,0,1-2,5.83,7,7,0,0,1-5.1,1.94Zm.22-9.62a3.66,3.66,0,0,0,2.83-1.26,4.59,4.59,0,0,0,1.14-3.2,4.74,4.74,0,0,0-1.14-3.28,3.68,3.68,0,0,0-2.83-1.25,3.87,3.87,0,0,0-2.93,1.25,4.58,4.58,0,0,0-1.25,3.25,4.47,4.47,0,0,0,1.25,3.21A3.88,3.88,0,0,0,201.87,71.17Zm12.39-19.43V73.65H211V51.74Zm9,22.36A7.15,7.15,0,0,1,218,72a7.88,7.88,0,0,1-.07-10.68,6.71,6.71,0,0,1,5-2.09,6.13,6.13,0,0,1,2.5.49,5.69,5.69,0,0,1,1.92,1.25,9,9,0,0,1,1.25,1.51,9.2,9.2,0,0,1,.74,1.47l.34.85-10,4.13a3.75,3.75,0,0,0,3.61,2.25,4.26,4.26,0,0,0,3.67-2.07l2.5,1.7a8.28,8.28,0,0,1-2.4,2.28,6.89,6.89,0,0,1-3.77,1Zm-4.19-7.68,6.67-2.77a2.36,2.36,0,0,0-1-1.14,3.37,3.37,0,0,0-1.72-.44,3.81,3.81,0,0,0-2.69,1.19,4,4,0,0,0-1.22,3.16Zm27.73,7.68A10.33,10.33,0,0,1,236.28,64v-.42A10.32,10.32,0,0,1,246.36,53h.42a9.34,9.34,0,0,1,7.43,3.31L252.41,58a6.86,6.86,0,0,0-5.62-2.57,7.66,7.66,0,0,0-5.57,2.24A7.79,7.79,0,0,0,239,63.53a7.8,7.8,0,0,0,2.27,5.84,7.61,7.61,0,0,0,5.57,2.23,8,8,0,0,0,6.27-2.93l1.8,1.81a9.78,9.78,0,0,1-3.47,2.64A10.62,10.62,0,0,1,246.78,74.1Zm12.93-.45h-2.59V53.41h2.59ZM264,61.47A7.33,7.33,0,1,1,264,72a7.89,7.89,0,0,1,0-10.52Zm1.93,8.89a4.37,4.37,0,0,0,6.18.17,1.37,1.37,0,0,0,.17-.17,5.59,5.59,0,0,0,0-7.26,4.37,4.37,0,0,0-6.18-.17l-.17.17a5.56,5.56,0,0,0,0,7.25Zm24.67,3.29h-2.5V71.73H288a4.9,4.9,0,0,1-1.83,1.73,5.16,5.16,0,0,1-2.57.69,4.87,4.87,0,0,1-3.93-1.58,6.25,6.25,0,0,1-1.34-4.24V59.81h2.59v8q0,3.87,3.42,3.87a3.17,3.17,0,0,0,2.63-1.25,4.74,4.74,0,0,0,1-3V59.81h2.59Zm8.81.45A6.13,6.13,0,0,1,294.72,72a8.07,8.07,0,0,1,0-10.5,6.13,6.13,0,0,1,4.64-2.12,5.91,5.91,0,0,1,2.83.68,4.72,4.72,0,0,1,1.88,1.69h.12l-.12-1.92v-6.4h2.6V73.65h-2.51V71.73h-.11a4.85,4.85,0,0,1-1.88,1.69A5.86,5.86,0,0,1,299.36,74.1Zm.43-2.37a4.16,4.16,0,0,0,3.12-1.35,6,6,0,0,0,0-7.3,4.25,4.25,0,0,0-6-.28l-.28.28a5.91,5.91,0,0,0,0,7.27A4.12,4.12,0,0,0,299.79,71.73Z"></path>
</svg>
