<?xml version="1.0" encoding="UTF-8"?>
<!-- Generator: Adobe Illustrator 23.0.3, SVG Export Plug-In . SVG Version: 6.00 Build 0)  -->
<svg xmlns="http://www.w3.org/2000/svg" xmlns:xlink="http://www.w3.org/1999/xlink" version="1.1" id="Layer_1" x="0px" y="0px" viewBox="0 0 210 113" style="enable-background:new 0 0 210 113;" xml:space="preserve">
<style type="text/css">
	.st0{fill-rule:evenodd;clip-rule:evenodd;fill:#D4000E;}
	.st1{fill:#6D6E70;}
</style>
<g>
	<path class="st0" d="M32.3,50.7c0.1,0.2,0.1,0.2,0.1,0.4c0,2.2,0.1,12.6,0,13.2c-0.3,0.1-2.6,0-3.3,0c-0.2,0-0.9,0-1,0c0,0,0,0,0,0   l0-13.6L32.3,50.7L32.3,50.7z M69.2,58.4c0.2-1,0-2.1-0.5-2.8c-0.4-0.7-1-1.2-2.1-1.4c-4.9-1-5.7,6-1.6,6.8   C67.3,61.3,68.8,60.2,69.2,58.4L69.2,58.4z M83.4,50.4l1.6,0l0,3.7c-2.8-0.7-4.7-0.1-5.2,2.4c-0.3,1.2-0.2,2.6-0.2,3.9   c0,1.3,0,2.6,0,3.9c-0.5,0.1-3.4,0-4.2,0V50.7l4.2,0l0,1.1c0.2-0.2,0.4-0.4,0.7-0.6C81,50.8,82.4,50.4,83.4,50.4L83.4,50.4z    M54.5,64.3l-4.2,0l0-16.6c-0.1-0.8,0.2-2.1,0.6-2.7c0.4-0.7,0.9-1.2,1.6-1.6c1.5-0.8,3.9-0.7,5.7-0.4l-0.2,3.6   c-1.2-0.3-2.6-0.5-3.1,0.4c-0.4,0.7-0.4,2.8-0.3,3.7l3.1,0c0,0.1,0-0.1,0.1,0.2c0,0,0,0.2,0,0.2c0,0.6,0.1,2.6-0.1,3l-3.2,0   L54.5,64.3L54.5,64.3z M47.9,64.3h-4.2c0-1,0.1-7.3-0.1-7.6c0.1-1.4-0.6-2.5-1.9-2.6c-1.5-0.2-2.3,0.5-2.7,1.7   c-0.5,1.8,0.1,7-0.2,8.6h-4.2l0-13.6l4.1,0l0,1.1c0.2-0.2,0.2-0.3,0.3-0.4c1.1-1,3-1.2,4.3-1.1c2,0.1,3.2,1,3.8,2.4   C48.4,55.2,47.8,61.2,47.9,64.3L47.9,64.3z M64.9,50.4c4.6-0.5,8.2,2.2,8.6,6.2c0.5,4.5-2.6,7.6-6.6,8c-4.6,0.5-8.1-2.2-8.6-6.1   C57.7,53.9,60.8,50.9,64.9,50.4L64.9,50.4z M28,46.3c0-0.3,0.3-0.3,0.5-0.5l1.6-1.1c0.4-0.3,1.9-1.3,2.2-1.4l0,5.1H28V46.3L28,46.3   z M22,89.8h67.6l-0.1-66.6H22V89.8L22,89.8z"></path>
	<path class="st1" d="M107.6,49.4l2.2-0.2c0.1,0.9,0.3,1.6,0.7,2.2c0.4,0.6,1,1,1.8,1.4c0.8,0.3,1.7,0.5,2.7,0.5   c0.9,0,1.7-0.1,2.4-0.4c0.7-0.3,1.2-0.6,1.5-1.1c0.3-0.5,0.5-1,0.5-1.5c0-0.5-0.2-1-0.5-1.4c-0.3-0.4-0.9-0.7-1.6-1   c-0.5-0.2-1.5-0.5-3.2-0.9c-1.6-0.4-2.8-0.7-3.4-1.1c-0.8-0.4-1.5-1-1.9-1.6c-0.4-0.6-0.6-1.4-0.6-2.2c0-0.9,0.3-1.7,0.8-2.5   c0.5-0.8,1.2-1.4,2.2-1.7c1-0.4,2.1-0.6,3.3-0.6c1.3,0,2.5,0.2,3.5,0.6c1,0.4,1.8,1,2.3,1.8c0.5,0.8,0.8,1.7,0.9,2.8l-2.3,0.2   c-0.1-1.1-0.5-1.9-1.2-2.5c-0.7-0.6-1.7-0.8-3.1-0.8c-1.4,0-2.5,0.3-3.1,0.8s-1,1.1-1,1.9c0,0.6,0.2,1.1,0.7,1.6   c0.5,0.4,1.6,0.8,3.5,1.2c1.9,0.4,3.2,0.8,3.9,1.1c1,0.5,1.8,1.1,2.3,1.8c0.5,0.7,0.7,1.5,0.7,2.5c0,0.9-0.3,1.8-0.8,2.6   c-0.5,0.8-1.3,1.5-2.3,1.9c-1,0.5-2.1,0.7-3.4,0.7c-1.6,0-2.9-0.2-4-0.7c-1.1-0.5-1.9-1.2-2.5-2.1C108,51.6,107.6,50.6,107.6,49.4   L107.6,49.4z"></path>
	<path class="st1" d="M133.4,50.9l2.3,0.3c-0.4,1.3-1,2.3-2,3c-1,0.7-2.2,1.1-3.7,1.1c-1.9,0-3.4-0.6-4.5-1.7   c-1.1-1.1-1.6-2.7-1.6-4.8c0-2.1,0.6-3.8,1.7-4.9c1.1-1.2,2.5-1.8,4.3-1.8c1.7,0,3.1,0.6,4.2,1.7c1.1,1.2,1.6,2.8,1.6,4.9   c0,0.1,0,0.3,0,0.6h-9.6c0.1,1.4,0.5,2.5,1.2,3.2c0.7,0.7,1.6,1.1,2.7,1.1c0.8,0,1.5-0.2,2-0.6C132.6,52.5,133.1,51.8,133.4,50.9   L133.4,50.9z M126.3,47.5h7.2c-0.1-1.1-0.4-1.9-0.8-2.4c-0.7-0.8-1.6-1.2-2.7-1.2c-1,0-1.8,0.3-2.5,1   C126.7,45.5,126.3,46.4,126.3,47.5L126.3,47.5z"></path>
	<path class="st1" d="M138.4,55V42.4h2v1.9c0.5-0.9,1-1.5,1.4-1.8c0.4-0.3,0.9-0.4,1.4-0.4c0.7,0,1.5,0.2,2.2,0.7l-0.8,2   c-0.5-0.3-1.1-0.4-1.6-0.4c-0.5,0-0.9,0.1-1.3,0.4c-0.4,0.3-0.6,0.7-0.8,1.2c-0.2,0.8-0.4,1.6-0.4,2.5V55H138.4L138.4,55z"></path>
	<path class="st1" d="M150.1,55l-4.8-12.7h2.3l2.7,7.6c0.3,0.8,0.6,1.7,0.8,2.6c0.2-0.7,0.5-1.5,0.8-2.4l2.9-7.7h2.2L152.2,55H150.1   L150.1,55z"></path>
	<path class="st1" d="M159,40v-2.4h2.2V40H159L159,40z M159,55V42.4h2.2V55H159L159,55z"></path>
	<path class="st1" d="M172.9,50.4l2.1,0.3c-0.2,1.4-0.8,2.6-1.8,3.4c-1,0.8-2.1,1.2-3.5,1.2c-1.8,0-3.2-0.6-4.2-1.7   c-1.1-1.1-1.6-2.8-1.6-4.9c0-1.4,0.2-2.6,0.7-3.6c0.5-1,1.2-1.8,2.1-2.3c0.9-0.5,2-0.8,3.1-0.8c1.4,0,2.5,0.3,3.4,1   c0.9,0.7,1.5,1.7,1.7,3l-2.1,0.3c-0.2-0.9-0.6-1.5-1.1-1.9c-0.5-0.4-1.1-0.6-1.9-0.6c-1.1,0-2,0.4-2.7,1.2c-0.7,0.8-1,2-1,3.7   c0,1.7,0.3,2.9,1,3.7c0.7,0.8,1.5,1.2,2.6,1.2c0.9,0,1.6-0.3,2.1-0.8C172.4,52.3,172.8,51.5,172.9,50.4L172.9,50.4z"></path>
	<path class="st1" d="M185.7,50.9l2.3,0.3c-0.4,1.3-1,2.3-2,3c-1,0.7-2.2,1.1-3.7,1.1c-1.9,0-3.4-0.6-4.5-1.7   c-1.1-1.1-1.6-2.7-1.6-4.8c0-2.1,0.6-3.8,1.7-4.9c1.1-1.2,2.5-1.8,4.3-1.8c1.7,0,3.1,0.6,4.2,1.7c1.1,1.2,1.6,2.8,1.6,4.9   c0,0.1,0,0.3,0,0.6h-9.6c0.1,1.4,0.5,2.5,1.2,3.2c0.7,0.7,1.6,1.1,2.7,1.1c0.8,0,1.5-0.2,2-0.6C184.9,52.5,185.3,51.8,185.7,50.9   L185.7,50.9z M178.5,47.5h7.2c-0.1-1.1-0.4-1.9-0.8-2.4c-0.7-0.8-1.6-1.2-2.7-1.2c-1,0-1.8,0.3-2.5,1   C179,45.5,178.6,46.4,178.5,47.5L178.5,47.5z"></path>
	<path class="st1" d="M107.6,76.3V58.8h6.7c1.2,0,2.1,0.1,2.7,0.2c0.9,0.1,1.6,0.4,2.2,0.8c0.6,0.4,1.1,1,1.4,1.7   c0.4,0.7,0.5,1.5,0.5,2.4c0,1.5-0.5,2.7-1.4,3.8c-1,1-2.7,1.5-5.2,1.5H110v7.1H107.6L107.6,76.3z M110,67.1h4.6   c1.5,0,2.6-0.3,3.2-0.8c0.6-0.6,1-1.3,1-2.4c0-0.7-0.2-1.4-0.6-1.9c-0.4-0.5-0.9-0.9-1.5-1c-0.4-0.1-1.1-0.2-2.2-0.2H110V67.1   L110,67.1z"></path>
	<path class="st1" d="M132.2,74.7c-0.8,0.7-1.6,1.2-2.3,1.4c-0.7,0.3-1.5,0.4-2.4,0.4c-1.4,0-2.5-0.3-3.3-1   c-0.8-0.7-1.1-1.5-1.1-2.6c0-0.6,0.1-1.2,0.4-1.7c0.3-0.5,0.7-0.9,1.1-1.2c0.5-0.3,1-0.5,1.6-0.7c0.4-0.1,1.1-0.2,1.9-0.3   c1.8-0.2,3.1-0.5,3.9-0.7c0-0.3,0-0.5,0-0.6c0-0.9-0.2-1.5-0.6-1.8c-0.6-0.5-1.4-0.7-2.5-0.7c-1,0-1.8,0.2-2.3,0.5   c-0.5,0.4-0.9,1-1.1,1.9l-2.1-0.3c0.2-0.9,0.5-1.6,1-2.2c0.4-0.6,1.1-1,1.9-1.3c0.8-0.3,1.8-0.4,2.9-0.4c1.1,0,2,0.1,2.7,0.4   c0.7,0.3,1.2,0.6,1.5,1c0.3,0.4,0.5,0.9,0.7,1.5c0.1,0.4,0.1,1,0.1,2V71c0,2,0,3.2,0.1,3.8c0.1,0.5,0.3,1,0.5,1.5h-2.3   C132.4,75.8,132.3,75.3,132.2,74.7L132.2,74.7z M132.1,69.9c-0.8,0.3-2,0.6-3.6,0.8c-0.9,0.1-1.5,0.3-1.9,0.4   c-0.4,0.2-0.7,0.4-0.9,0.7c-0.2,0.3-0.3,0.6-0.3,1c0,0.6,0.2,1,0.7,1.4c0.4,0.4,1.1,0.6,1.9,0.6c0.8,0,1.6-0.2,2.2-0.5   c0.7-0.4,1.1-0.9,1.4-1.5c0.2-0.5,0.4-1.2,0.4-2.1L132.1,69.9L132.1,69.9z"></path>
	<path class="st1" d="M137.6,76.3V63.6h2v1.9c0.5-0.9,1-1.5,1.4-1.8c0.4-0.3,0.9-0.4,1.4-0.4c0.7,0,1.5,0.2,2.2,0.7l-0.8,2   c-0.5-0.3-1.1-0.4-1.6-0.4c-0.5,0-0.9,0.1-1.3,0.4c-0.4,0.3-0.6,0.7-0.8,1.2c-0.2,0.8-0.4,1.6-0.4,2.5v6.6H137.6L137.6,76.3z"></path>
	<path class="st1" d="M150.6,74.4l0.3,1.9c-0.6,0.1-1.2,0.2-1.6,0.2c-0.8,0-1.4-0.1-1.8-0.4c-0.4-0.2-0.7-0.6-0.9-1   c-0.2-0.4-0.3-1.2-0.3-2.5v-7.3h-1.6v-1.7h1.6v-3.1l2.2-1.3v4.4h2.2v1.7h-2.2v7.4c0,0.6,0,1,0.1,1.2c0.1,0.2,0.2,0.3,0.4,0.4   c0.2,0.1,0.4,0.2,0.7,0.2C149.9,74.5,150.2,74.4,150.6,74.4L150.6,74.4z"></path>
	<path class="st1" d="M152.7,76.3V63.6h2v1.8c0.9-1.4,2.3-2.1,4.1-2.1c0.8,0,1.5,0.1,2.1,0.4c0.6,0.3,1.1,0.6,1.5,1.1   c0.3,0.4,0.5,1,0.7,1.6c0.1,0.4,0.1,1.1,0.1,2.1v7.8H161v-7.7c0-0.9-0.1-1.5-0.3-2c-0.2-0.4-0.5-0.8-0.9-1   c-0.4-0.3-0.9-0.4-1.5-0.4c-0.9,0-1.7,0.3-2.4,0.9c-0.7,0.6-1,1.7-1,3.3v6.9H152.7L152.7,76.3z"></path>
	<path class="st1" d="M175.3,72.2l2.3,0.3c-0.4,1.3-1,2.3-2,3c-1,0.7-2.2,1.1-3.7,1.1c-1.9,0-3.4-0.6-4.5-1.7   c-1.1-1.1-1.6-2.7-1.6-4.8c0-2.1,0.6-3.8,1.7-4.9c1.1-1.2,2.5-1.8,4.3-1.8c1.7,0,3.1,0.6,4.2,1.7c1.1,1.2,1.6,2.8,1.6,4.9   c0,0.1,0,0.3,0,0.6H168c0.1,1.4,0.5,2.5,1.2,3.2c0.7,0.7,1.6,1.1,2.7,1.1c0.8,0,1.5-0.2,2-0.6C174.5,73.8,174.9,73.1,175.3,72.2   L175.3,72.2z M168.1,68.7h7.2c-0.1-1.1-0.4-1.9-0.8-2.4c-0.7-0.8-1.6-1.2-2.7-1.2c-1,0-1.8,0.3-2.5,1   C168.6,66.7,168.2,67.6,168.1,68.7L168.1,68.7z"></path>
	<path class="st1" d="M180.3,76.3V63.6h2v1.9c0.5-0.9,1-1.5,1.4-1.8c0.4-0.3,0.9-0.4,1.4-0.4c0.7,0,1.5,0.2,2.2,0.7l-0.8,2   c-0.5-0.3-1.1-0.4-1.6-0.4c-0.5,0-0.9,0.1-1.3,0.4c-0.4,0.3-0.6,0.7-0.8,1.2c-0.2,0.8-0.4,1.6-0.4,2.5v6.6H180.3L180.3,76.3z"></path>
</g>
</svg>
