<?xml version="1.0" encoding="UTF-8"?>
<svg xmlns="http://www.w3.org/2000/svg" viewBox="0 0 350 170">
  <defs>
    <style>.a{fill:#231f20;}.a,.b{fill-rule:evenodd;}.b{fill:#242021;}</style>
  </defs>
  <path class="a" d="M66.18,85.72V84.13c0-14.33,7.24-26.5,14.19-33.3a45.48,45.48,0,0,1,14-9.71,48.21,48.21,0,0,1,68.2,43.45,48.6,48.6,0,0,1-8.54,27.8,21.13,21.13,0,0,1-2.61,3.33c-1,1.16-1.88,2-2.9,3.18a47.39,47.39,0,0,1-6.37,5.51,38.13,38.13,0,0,1-7.53,4.34,47.92,47.92,0,0,1-40.11,0A46.61,46.61,0,0,1,87,124.39,48.64,48.64,0,0,1,70.81,105a43.91,43.91,0,0,1-4.63-19.26ZM136.7,36.93h94.12a104.26,104.26,0,0,1,11.73.43,48.26,48.26,0,0,1,23.6,10.28,34.48,34.48,0,0,1,4.78,4.49l2.9,3.33A48.26,48.26,0,0,1,284,82.25c.72,12.45-3.19,23.17-10.29,32.58a48,48,0,0,1-37.07,18.24H137s4.92-2.6,6.23-3.47c6.08-4.2,10.71-8.25,14.91-14.34a53.41,53.41,0,0,0,9.41-29.54v-1.3A52.88,52.88,0,0,0,158,54.74,52,52,0,0,0,143.07,40.4c-1.16-.72-3.47-2-4.63-2.75a6.69,6.69,0,0,1-1.74-.72ZM61.26,82.25v5.07l.58,5.79a52.09,52.09,0,0,0,4.63,15.06,56.12,56.12,0,0,0,4.92,8.11c1.16,1.59,1.89,2.31,2.9,3.62A56.83,56.83,0,0,0,84.71,129a53.36,53.36,0,0,0,8.55,4.63A44.84,44.84,0,0,0,109,137.42c.87,0,5.94.14,6.23.29H238.35l5.65-.58a49.5,49.5,0,0,0,14.48-4.49A52.27,52.27,0,0,0,279,115.41,53.69,53.69,0,0,0,288.16,93a17,17,0,0,0,.29-2.75,15.2,15.2,0,0,1,.29-2.89V82.54l-.58-5.65a49.49,49.49,0,0,0-4.48-14.48,53.61,53.61,0,0,0-10.43-14.77,52,52,0,0,0-29.4-14.77c-.86-.14-5.5-.43-5.79-.58h-125c-.44.15-5.07.29-5.94.44A52.43,52.43,0,0,0,84,41.41,46.05,46.05,0,0,0,77,47.21,51.74,51.74,0,0,0,66.47,62.12,54.46,54.46,0,0,0,62,76.6a50.16,50.16,0,0,0-.72,5.65Z"></path>
  <path class="a" d="M114.54,127.72c.44-.87,1.16-1.89,1.6-2.9,2.6-4.49,24.47-41.27,24.61-41.85H88.05c.14.44,5.79,10,6.51,11.3l16.65,27.94a63,63,0,0,0,3.33,5.51Z"></path>
  <path class="a" d="M114.69,71.24c-.29-.14-.44-.58-.72-.87A14.4,14.4,0,0,0,108,65.89a16.15,16.15,0,0,0-10.14-.44,14.34,14.34,0,0,0-7.09,4.78A11.79,11.79,0,0,0,88.62,74a13,13,0,0,0-1,4.78h53.87a12.84,12.84,0,0,0-1-4.78,14.81,14.81,0,0,0-19.25-8,12.57,12.57,0,0,0-3.62,2.17,11.11,11.11,0,0,0-2.9,3Z"></path>
  <path class="a" d="M104.26,51.84a2.42,2.42,0,0,1,1.74-.72c2.61-.44,3.48,1.15,3.48,3.76,0,3.91-1.6,4.78-5.22,3.33V51.84Zm-2.6,9h1.59l.43-.87c.87.29,1.16.87,2.76,1a5.08,5.08,0,0,0,3.33-.43c3.47-1.74,2.89-9.41.57-11a4.72,4.72,0,0,0-3-.87c-1.59,0-1.88.44-3,.87V43.15h-2.6V60.82Z"></path>
  <path class="a" d="M113,58.36v2.17c2.61.87,7.82,1.3,8.69-2a4.28,4.28,0,0,0-.43-3.33A4.89,4.89,0,0,0,118.45,54c-1-.14-2.75,0-2.89-1.16-.29-1.44,1.16-1.73,2.31-1.73a12.4,12.4,0,0,1,3.48.58V49.38c-1.16-.73-7.82-1.74-8.4,2.46-.43,2.9,1.45,3.76,3.91,4,1.16.15,2.46.15,2.32,1.6-.15,2.46-5.5.87-6.23.87Z"></path>
  <path class="a" d="M190.42,48.65c2.75-.58,4.06.87,4.2,3.48.58,7.24-4.63,5.65-5.5,4.92-1.45-1.45-2-7.67,1.3-8.4Zm-.14-1.73c-3.77.58-4.35,3.91-4.06,7.24.29,3.62,2.32,5.64,6.37,4.92,3.33-.58,4.2-3.62,3.91-7.24s-2.31-5.5-6.22-4.92Z"></path>
  <path class="a" d="M205.92,67.19a2.78,2.78,0,0,1,2.75.58,4.74,4.74,0,0,1,.58,2.89c0,2,.29,4.93-1.6,5.51a2.87,2.87,0,0,1-2.75-.58,6.07,6.07,0,0,1-.72-2.9c0-2-.29-4.92,1.74-5.5Zm-.29-1.59a3.48,3.48,0,0,0-2.9,2.31,18,18,0,0,0-.43,4.78c.14,3.48,1.44,5.65,5.35,4.93,3.19-.58,3.48-3.91,3.33-7.25-.14-1.59-.43-3.18-1.3-4.05a5.69,5.69,0,0,0-4.05-.72Z"></path>
  <path class="a" d="M193.46,73.27c-.14-2-.29-5.07,1.31-5.94a2.91,2.91,0,0,1,2.89.29,3.93,3.93,0,0,1,.87,2.75c.15,1.89.29,5.07-1.3,5.8a2.65,2.65,0,0,1-2.75-.29,3.6,3.6,0,0,1-1-2.61Zm1.6-7.67a3.27,3.27,0,0,0-2.9,2.31,17.66,17.66,0,0,0-.44,4.93c.15,3.62,1.6,5.64,5.51,4.92,3-.58,3.33-4.05,3.18-7.39-.14-1.59-.29-3-1.3-3.9a4.78,4.78,0,0,0-4.05-.87Z"></path>
  <path class="a" d="M177.24,57.49l-.14.14v.15l-.15.43a1.36,1.36,0,0,1-.14.73c2,.28,5.07.72,6.66-.44a3.44,3.44,0,0,0,.29-5.21c-1.3-1-4.49-1.31-5.07-2.61-.43-1.3.58-1.88,1.6-2a32.45,32.45,0,0,1,3.76.15c0-.44.29-1,.15-1.45-3-.58-7.82-.87-7.39,3.33.43,3.91,6.37,2.32,6.08,5.36,0,2.32-4.34,1.45-5.65,1.45Z"></path>
  <path class="a" d="M215.62,53.58V52.27c0-.14.43-.14-1-.14h-3.33V48.8h4.78c.58,0,.44,0,.58-.15V47.21h-7.09V59.08c.14.29-.15.14.29.14h.43c1.74,0,5.07.15,6.37,0a2.87,2.87,0,0,0,0-1.59h-5.36V53.87h4.2c.29-.29,0-.15.15-.29Z"></path>
  <path class="a" d="M172.47,66.32l.43,1.45c.87-.15,2.9-1,4.34-.29,1.31.58,1.16,2.32.44,3.62-1.16,2-3.48,3.76-5.07,5.21v1.45h7.68V76.17h-5.22c.15-.29,0,0,.15-.15s2.17-1.88,2.89-2.75c4.93-5.21.29-9.7-5.64-7Z"></path>
  <path class="a" d="M226.62,58.36l-.43-1.45c-2.17.43-6.37,2.46-6.52-3.62-.14-6.81,4.64-4.35,6.52-4.64l.14-1.44c-5.79-1-8.54.29-8.4,6.37,0,8,7.68,5.5,8.69,4.78Z"></path>
  <path class="a" d="M174.49,100.93l1.89,5.5h1.3c.43-.58,1.59-4.78,2-5.36l.29,6.81h1.3c0-2-.15-4.78-.29-6.81V99.91c0-.72.29-.72-1.88-.57-.58.86-1.6,5.06-2,5.64l-2-5.64h-1.88l-.43,8.68h1.3l.43-7.09Z"></path>
  <path class="a" d="M126.56,61v-2l-.14-.15c-.73-.29-.73-.14-.73-1.59s.15-7.68-.14-8.11h-2.46c-.15.58,0,6.66,0,7.67-.15,2.32-.15,4.64,3.47,4.2Z"></path>
  <path class="a" d="M182,67.19H188l-2.32,4.92c-.43,1-1.73,4.35-1.73,5.51h1.88a37.5,37.5,0,0,1,2-6.09c.43-1,.86-1.73,1.3-2.75.58-1.3,1-1.45.87-3.18h-7.82L182,67.19Z"></path>
  <path class="a" d="M199.11,87.17c-.29-.43.14-.43-1.16-.43V93h1.16V88.19c.87-.58,2.32-.73,2.46.72a39,39,0,0,0,0,4h1.16V88.19c3.62-1.6,2,1.73,2.46,4.77h1.16a21.24,21.24,0,0,0-.14-5.21,2.26,2.26,0,0,0-1.6-1.16c-1.16-.14-1.45.44-2.17.73-.87-.73-1.3-1.31-3.33-.15Z"></path>
  <path class="a" d="M216.05,103c1-.58,2.32-.87,2.46.86a36.31,36.31,0,0,0,0,3.91h1.16v-4.92c2.9-.72,2.46-.43,2.46,4.92h1.31c0-3.18.72-6.22-1.89-6.37a2.83,2.83,0,0,0-2,.73l-.29-.29a2.05,2.05,0,0,0-1.31-.44,3.1,3.1,0,0,0-1.73.58c-.44-.43.14-.43-1.16-.43v6.22h1.3l-.29-4.77Z"></path>
  <path class="a" d="M205.92,106.58c-1.89.86-2.61,0-2.61-1.89s.58-2.46,2.61-2v3.91Zm1.3-4.64a6.17,6.17,0,0,0-3.62-.29c-2.17.73-1.74,4.93-.73,5.79,1.16,1,2.61.29,3,.15,0,.87.14,1.45-.73,1.74s-1.59-.15-2.32,0l-.14,1c2,.29,4.34.58,4.49-1.74v-6.66Z"></path>
  <path class="a" d="M212,67.33l.43,1.16,2.46-.87V77.76h1.74v-12a4.21,4.21,0,0,0-3,.73,4.3,4.3,0,0,0-1.59.86Z"></path>
  <path class="a" d="M238.35,91.66l-.14,1c1.16.44,3.76.44,4.63-.28a2.49,2.49,0,0,0,.29-3.77c-.87-.87-3.33-1-3.62-1.88-.72-2.17,3.19-1.31,3.91-1.31l.14-1c-1.59-.29-3.47-.58-4.63.44a2.27,2.27,0,0,0,.44,3.62c1.15.57,3.47.57,3.18,2.17s-2.89,1.16-4.2,1Z"></path>
  <polygon class="a" points="205.05 59.08 206.93 59.08 206.93 47.06 205.19 47.06 205.05 59.08"></polygon>
  <polygon class="a" points="172.9 59.08 174.64 59.08 174.78 47.06 172.9 47.06 172.9 59.08"></polygon>
  <path class="a" d="M186.37,106.58c-.73.29-2.17.72-2.32-.44s1.3-1.16,2.32-1.16v1.6Zm-2,1.3a3,3,0,0,0,2.32-.58c.43.58.14.43,1.16.43a32.08,32.08,0,0,0-.15-5.35c-.58-1.31-2.75-1.16-4.34-.73l.14,1c2.61-.29,3-.44,3,1.3a5.7,5.7,0,0,0-2.75.29,2,2,0,0,0,.58,3.62Z"></path>
  <path class="a" d="M223.87,87.75c2.46-.72,2.61,3.77.87,4.2-2.46.58-2.46-3.76-.87-4.2Zm-.43-1.16c-2.61.73-2.46,4.93-.73,5.94s4.93.58,4.35-3.77c-.29-1.59-1.6-2.6-3.62-2.17Z"></path>
  <path class="a" d="M189,87.75c1.31-.29,1.89.44,2,1.59.29,3.48-2.75,3.33-3,1-.14-1.31,0-2.46,1-2.61Zm-.43-1.16c-1.88.58-2.17,2.46-1.88,4.06.58,3.47,6.22,3.33,5.5-1.89a2.67,2.67,0,0,0-3.62-2.17Z"></path>
  <path class="a" d="M211.56,91.52c-2.46,1.88-3.91-2.18,0-1.45v1.45Zm-3.18-4.78.14,1c2.17-.14,3.19-.72,3.19,1.3-1.16,0-4.06-.29-3.62,2.32a1.85,1.85,0,0,0,1.45,1.45,2.84,2.84,0,0,0,2.31-.43c.29.43-.14.43,1.16.43-.14-5.65.29-6.81-4.63-6.08Z"></path>
  <path class="a" d="M199.4,105c.14,1.16.14,1.45-.43,1.74-2,.72-2.32-1-1.6-1.59.44-.29,1.31-.15,2-.15Zm-3.62,1.31a2,2,0,0,0,1.45,1.59c1.16.29,1.59-.29,2.31-.58.29.43-.14.43,1,.43a32.08,32.08,0,0,0-.15-5.35c-.58-1.31-2.75-1.16-4.34-.73l.14,1c2.61-.29,3-.44,3,1.3-.86.14-3.91-.29-3.47,2.32Z"></path>
  <path class="a" d="M209.68,104.11c0-.86.43-1.59,1.3-1.59,1,0,1.31.73,1.31,1.59Zm3.77,1c.29-1.6-.15-3.19-1.45-3.62-3.48-1.16-4.49,4-2.61,5.79.87.87,2.75.87,4.06.14l-.29-1c-.87.29-3.62,1.16-3.48-1.3Z"></path>
  <path class="a" d="M246.17,89.2c0-.87.44-1.59,1.3-1.59,1,0,1.16.72,1.31,1.59Zm3.77,3.33-.29-1c-.44.14-3.62,1.15-3.48-1.31h3.62c.44-4.92-3.91-4.49-4.78-1.88-1,3.33,1.45,5.94,4.93,4.2Z"></path>
  <path class="a" d="M225.9,104.11c0-.86.43-1.59,1.3-1.59,1,0,1.16.73,1.31,1.59Zm3.62,1c.43-4.93-3.91-4.35-4.78-1.88-1.16,3.91,2,5.64,4.78,4.19l-.29-1a4.41,4.41,0,0,1-2.46.29,1.45,1.45,0,0,1-1-1.59Z"></path>
  <path class="a" d="M197.52,59.08H199c.43-.72,4.48-11.58,4.63-12h-1.45c-.58,1.59-4.63,11.44-4.63,12Z"></path>
  <path class="a" d="M277.59,93.11l-.87,2.17H278c.29-1.3,1-2.75,1.45-4.2a41.45,41.45,0,0,0,1.15-4.49h-1.3a26.73,26.73,0,0,1-1.45,5.22c-.43-.44-1.3-4.35-1.44-5.22h-1.31a25.28,25.28,0,0,0,.87,3.48l.72,2.46c.15.43,0,.14.58.29s0,0,.29.29Z"></path>
  <path class="a" d="M229.66,87.17l-.14-.29c-.29-.43-.29-.29-1-.29v6.23h1.3V88c1-.58,2.46-.87,2.46.72a39.24,39.24,0,0,0,0,4.06h1.16a20.93,20.93,0,0,0-.15-5.21,1.73,1.73,0,0,0-1.59-1.16,3.19,3.19,0,0,0-2,.72Z"></path>
  <path class="a" d="M177.24,87.17c-.14-.43.15-.43-1-.43V93h1.3V88.19c1-.58,2.47-.87,2.47.72a36.45,36.45,0,0,0,0,4h1.15a20.5,20.5,0,0,0-.14-5.21c-.87-2.32-3.77-.72-3.77-.58Z"></path>
  <path class="a" d="M232.13,102.09h0l-.15-.29c-.14-.29.15-.29-.87-.29-.14.87,0,5.07,0,6.22h1.16V103c3.91-1.89,2,2.75,2.61,4.77H236a20.68,20.68,0,0,0-.14-5.21c-.58-1.45-2.61-1.3-3.76-.43Z"></path>
  <path class="b" d="M190.57,103c3.91-1.74,2,2.6,2.6,4.77h1.16a20.29,20.29,0,0,0-.14-5.21c-.58-1.45-2.47-1.3-3.77-.58-.43-.43.29-.58-1.16-.43v6.22h1.16c.29-.72.15-3.76.15-4.77Z"></path>
  <path class="a" d="M260.8,92.39l.14.28c.29.29,0,.15,1,.15V86.59h-1.3v4.93c-1.16.58-2.46.72-2.46-.87V86.59H257c0,1-.14,4.49.15,5.22.58,1.59,2.46,1.44,3.62.58Z"></path>
  <path class="a" d="M184.77,84.13c-1.44,0-1.59,1.3-1.59,2.61h-.87v.87h.87v5.21h1.16V87.61h1.3v-1h-1.3c0-.72-.14-1.3.43-1.45h1.31v-1Z"></path>
  <path class="a" d="M271.51,86.74h-.87v.87h.87c.29,1.15-.14,3,.15,4.2s1.88,1.3,3,.72l-.44-.87c-1.44.15-1.44.73-1.44-1.74V87.75h1.73v-1h-1.73V85h-1.16l-.15,1.74Z"></path>
  <path class="a" d="M236.9,102.52h.87c.15,1.16-.14,3.33.15,4.35s1.88,1.15,3,.57l-.44-1c-.58.15-1.3.44-1.44-.29a31.42,31.42,0,0,1,0-3.76h1.73v-1h-1.73V99.63h-1l-.14,1.73h-.87l-.15,1.16Z"></path>
  <path class="a" d="M213.88,86.74v.87h.87c.43,2.75-1.16,6.37,3,4.92l-.43-1c-.87.29-1.45.43-1.45-.73V87.46h1.73v-1h-1.73V84.71h-1.16c-.15,2.32.29,2-.87,2Z"></path>
  <path class="a" d="M255.73,92.53l-.29-1c-.73.14-1.59.58-2.46.14s-1.16-3.33,0-3.91c.87-.43,1.73,0,2.46-.14l.14-.87c-.72-.44-4.78-1.16-4.63,3.18a2.69,2.69,0,0,0,1.45,2.75c1.3.73,2.17.15,3.33-.14Z"></path>
  <polygon class="a" points="172.9 92.82 174.2 92.96 174.2 84.28 173.04 84.28 172.9 92.82"></polygon>
  <path class="a" d="M194.62,87.32l-.14-.73h-.87v6.23h1.16V88c.57-.58,1.15-.58,2.17-.43l.14-1.16a3.23,3.23,0,0,0-2,.43c-.29.29-.15.29-.44.44Z"></path>
  <path class="a" d="M264.85,87.32l-.14-.73h-.87v6.23H265c.29-1.16-.15-3.91.14-4.78.29-.58,1.59-.43,1.74-.43l.29-.15h.14l.15-1c-1.6,0-1.89.14-2.61.87Z"></path>
  <path class="a" d="M123.67,44c-.58.29-.58.15-.87.72a2.52,2.52,0,0,0-.15,1.45,1.79,1.79,0,0,0,2.18,1c2.17-.73.72-4.06-1.16-3.19Z"></path>
  <path class="a" d="M128.74,57.78a1.72,1.72,0,1,0,.86,3.33c2-.58,1.31-3.91-.86-3.33Z"></path>
  <polygon class="a" points="268.18 92.96 269.49 92.82 269.49 86.74 269.05 86.59 268.18 86.59 268.18 92.96"></polygon>
  <polygon class="a" points="218.95 92.82 220.25 92.96 220.25 86.74 218.95 86.59 218.95 92.82"></polygon>
  <path class="b" d="M219.24,84.28a.68.68,0,1,0,.72,1.15c.73-.29.15-1.59-.72-1.15Z"></path>
  <path class="b" d="M268.47,84.28a.68.68,0,1,0,.73,1.15.68.68,0,0,0-.73-1.15Z"></path>
</svg>
