<?xml version="1.0" encoding="UTF-8"?>
<svg xmlns="http://www.w3.org/2000/svg" viewBox="0 0 350 170">
  <defs>
    <style>.a,.c{fill:#004b7c;}.a,.d{fill-rule:evenodd;}.b{fill:#4b4b4d;}.d{fill:#d41044;}.e{fill:#8c7037;}.f{fill:#fefefe;}</style>
  </defs>
  <path class="a" d="M78.65,91.23l-3.79.07,0,9.08,4,.09.36-2.08c2.42,3.8,10.17,2.91,12.57-.1a7.71,7.71,0,0,0-2-11.63,50.14,50.14,0,0,0-5.93-2.36c-11.06-4.23,4.51-13.62,4.71-1.52H92.8l0-8.76-3.74,0-.57,1.87c-2.35-3.46-9.64-3-12.14.49C73,81.06,75.26,86.06,79.6,87.84c3.32,1.35,10.7,2.62,8.25,7.63-1.1,2.26-6.41,3.41-8.07-1-.61-1.6,0-2.55-1.13-3.26"></path>
  <path class="a" d="M96.46,83.07l4.35-.08V77.58l4,0V97l-3.51.11c-.42,4.39,0,3.38,4.29,3.36,2.51,0,5.22.11,7.7,0l.16-3.25L110,97l0-19.44h4L114,83l4.32.1v-9l-21.69,0Z"></path>
  <polygon class="a" points="58.15 77.37 61.22 77.46 61.38 96.97 58.21 97.11 58.25 100.46 69.48 100.46 69.67 97.12 66.48 97.02 66.44 77.47 69.66 77.39 69.6 74.11 58.27 74.06 58.15 77.37"></polygon>
  <path class="a" d="M148.48,77.41l2.9.07.09,19.4-2.93.25v3.29c4.53.3,16,.67,18.85-1.31,4.07-2.79,4.5-10.3-1.93-12.34,2.38-1.06,4-1.87,4.28-5.18.82-9.86-10.95-7.53-21-7.54Zm8.13,0c3.9,0,8.39-.76,8,4.14-.31,4.31-4.27,3.71-8.07,3.69Zm0,11.25c4.34-.05,8.83-.53,8.62,4.38-.19,4.39-4.57,4-8.63,4Z"></path>
  <path class="a" d="M145.9,100.62l.16-3.44-5.85.15c5-4.16,6-13.69,1.69-19.31-4.18-5.43-13.71-6.06-18.47-.92-4.24,4.6-4.72,14.78-.44,19.83,4.83,5.71,13.89,3.68,22.91,3.69M125.57,89.85c-2-15.2,11.88-17.22,13.44-5.3C140.94,99.41,127.18,102.28,125.57,89.85Z"></path>
  <path class="b" d="M175.54,73.74a2.68,2.68,0,0,0-3.74,0,2.54,2.54,0,0,0,0,3.66,2.68,2.68,0,0,0,3.74,0,2.56,2.56,0,0,0,0-3.66M173,75.47h.79a1.27,1.27,0,0,0,.39,0,.43.43,0,0,0,.22-.17.45.45,0,0,0,.07-.25.42.42,0,0,0-.14-.33.71.71,0,0,0-.45-.12H173ZM172.66,77V74.24h1.23a1.69,1.69,0,0,1,.57.07.62.62,0,0,1,.31.27.78.78,0,0,1,.11.42.69.69,0,0,1-.19.5,1,1,0,0,1-.59.26.84.84,0,0,1,.22.14,2,2,0,0,1,.31.37l.48.76h-.46l-.37-.58a3.54,3.54,0,0,0-.27-.39,1,1,0,0,0-.18-.18.65.65,0,0,0-.17-.08H173V77Zm1-4.48a3.09,3.09,0,0,1,2.17.88,3,3,0,0,1,0,4.27,3.1,3.1,0,0,1-2.17.89,3.06,3.06,0,0,1-2.17-.89,3,3,0,0,1,0-4.27A3.05,3.05,0,0,1,173.67,72.55Z"></path>
  <path class="c" d="M177.85,134.36a.62.62,0,0,0,.17.46.79.79,0,0,0,.52.16,2.61,2.61,0,0,0,1.21-.37v-1.19a3.51,3.51,0,0,0-1.44.31c-.31.18-.46.38-.46.63m1.34-4.58a2.76,2.76,0,0,1,1.76.47,1.87,1.87,0,0,1,.59,1.55v4.32H180l-.15-.48a3.07,3.07,0,0,1-1,.52,3.5,3.5,0,0,1-1,.15,2.09,2.09,0,0,1-1-.22,1.6,1.6,0,0,1-.66-.6,1.77,1.77,0,0,1-.23-.9,1.8,1.8,0,0,1,1-1.64,6.23,6.23,0,0,1,2.72-.64v-.15a1.93,1.93,0,0,0-.08-.6.55.55,0,0,0-.26-.32,1,1,0,0,0-.52-.1,3.54,3.54,0,0,0-1.9.7l-.69-1.12a5.6,5.6,0,0,1,1.4-.71A4.44,4.44,0,0,1,179.19,129.78Zm-6,6.53a3.21,3.21,0,0,1-2.14-.71,3,3,0,0,1-.83-2.41,3.75,3.75,0,0,1,.45-1.93,2.84,2.84,0,0,1,1.18-1.13,3.3,3.3,0,0,1,1.5-.35,3.94,3.94,0,0,1,1,.12,5.13,5.13,0,0,1,1,.45l-.62,1.21a5.66,5.66,0,0,0-.72-.3,2.46,2.46,0,0,0-.59-.08,1.22,1.22,0,0,0-1,.5,2.46,2.46,0,0,0-.38,1.49,1.8,1.8,0,0,0,.38,1.31,1.4,1.4,0,0,0,1,.36,2,2,0,0,0,.7-.12,5.41,5.41,0,0,0,.73-.36l.64,1.19A4.16,4.16,0,0,1,173.22,136.31Zm-6-.19V130l1.79-.18v6.28Zm.87-7.05a1.11,1.11,0,0,1-.57-.16,1.16,1.16,0,0,1-.43-.42,1.11,1.11,0,0,1-.16-.57,1.18,1.18,0,0,1,.16-.58,1.09,1.09,0,0,1,.43-.42,1,1,0,0,1,.57-.16,1.14,1.14,0,0,1,.59.16,1.15,1.15,0,0,1,.43.42,1.18,1.18,0,0,1,.16.58,1.11,1.11,0,0,1-.16.57,1.2,1.2,0,0,1-1,.58Zm-2.52-.88a.72.72,0,0,0-.59.25,1,1,0,0,0-.23.71V130h1.53l-.2,1.46h-1.33v4.68H163v-4.68h-.87V130H163v-.79a3.12,3.12,0,0,1,.28-1.32,2.13,2.13,0,0,1,.82-.91,2.54,2.54,0,0,1,1.31-.32,4.4,4.4,0,0,1,.65,0,3.84,3.84,0,0,1,.62.17l-.48,1.46A1.25,1.25,0,0,0,165.58,128.19Zm-6.25,7.93V130l1.79-.18v6.28Zm.86-7.05a1.11,1.11,0,0,1-.57-.16,1.24,1.24,0,0,1-.43-.42,1.11,1.11,0,0,1-.16-.57,1.18,1.18,0,0,1,.16-.58,1.15,1.15,0,0,1,.43-.42,1,1,0,0,1,.57-.16,1.11,1.11,0,0,1,.59.16,1.15,1.15,0,0,1,.43.42,1.08,1.08,0,0,1,.16.58,1,1,0,0,1-.16.57,1.24,1.24,0,0,1-.43.42A1.21,1.21,0,0,1,160.19,129.07Zm-4.26,7.05v-9.39l1.79-.18v9.57Zm-5.23-1.76a.59.59,0,0,0,.18.46.74.74,0,0,0,.51.16,2.58,2.58,0,0,0,1.21-.37v-1.19a3.51,3.51,0,0,0-1.44.31C150.85,133.91,150.7,134.11,150.7,134.36Zm1.34-4.58a2.74,2.74,0,0,1,1.76.47,1.87,1.87,0,0,1,.59,1.55v4.32h-1.53l-.14-.48a3.22,3.22,0,0,1-1,.52,3.5,3.5,0,0,1-1,.15,2.12,2.12,0,0,1-1-.22,1.6,1.6,0,0,1-.66-.6,1.77,1.77,0,0,1-.23-.9,1.8,1.8,0,0,1,1-1.64,6.23,6.23,0,0,1,2.72-.64v-.15a2.35,2.35,0,0,0-.07-.6.57.57,0,0,0-.27-.32,1,1,0,0,0-.51-.1,3.57,3.57,0,0,0-1.91.7l-.69-1.12a5.78,5.78,0,0,1,1.4-.71A4.44,4.44,0,0,1,152,129.78Zm-4.29.06v6.28h-1.52l-.15-.49a3.69,3.69,0,0,1-2.1.68,1.85,1.85,0,0,1-1.38-.5,1.94,1.94,0,0,1-.48-1.39V130l1.79-.18v4a1.31,1.31,0,0,0,.17.78.74.74,0,0,0,.63.24,2.77,2.77,0,0,0,1.25-.42V130Zm-13.57,1.82a3.75,3.75,0,0,0,.6,2.26,2,2,0,0,0,1.75.81,2.38,2.38,0,0,0,1.33-.36,2.14,2.14,0,0,0,.82-1,4.07,4.07,0,0,0,.28-1.59,3.75,3.75,0,0,0-.6-2.26,2,2,0,0,0-1.74-.81,2.19,2.19,0,0,0-1.82.8A3.5,3.5,0,0,0,134.18,131.66Zm5.8,6.79-3-2.15h-.41a4.42,4.42,0,0,1-2.34-.58,3.81,3.81,0,0,1-1.46-1.64,5.71,5.71,0,0,1-.49-2.42,5,5,0,0,1,.6-2.56,3.9,3.9,0,0,1,1.59-1.53,4.82,4.82,0,0,1,2.19-.49,4.42,4.42,0,0,1,2.34.58,3.7,3.7,0,0,1,1.45,1.63,5.79,5.79,0,0,1,.48,2.43,4.76,4.76,0,0,1-.55,2.34,4.3,4.3,0,0,1-1.49,1.59l2.16,1.13Zm-14.75-.9a2.58,2.58,0,0,0,1-.17.54.54,0,0,0,.37-.49.37.37,0,0,0-.11-.3.71.71,0,0,0-.37-.18,5.53,5.53,0,0,0-.76-.13l-.75-.06a3.53,3.53,0,0,1-.56-.1,1.85,1.85,0,0,0-.18.38,1.16,1.16,0,0,0-.06.34.58.58,0,0,0,.29.54A2.49,2.49,0,0,0,125.23,137.55Zm-.08-6.45q-1.11,0-1.11.93a.78.78,0,0,0,.29.67,1.47,1.47,0,0,0,.86.22,1.22,1.22,0,0,0,.82-.23.83.83,0,0,0,.25-.66.85.85,0,0,0-.29-.69A1.22,1.22,0,0,0,125.15,131.1Zm1,3.77a5.57,5.57,0,0,1,1.33.24,1.8,1.8,0,0,1,.84.54,1.51,1.51,0,0,1,.3,1,1.86,1.86,0,0,1-.42,1.19,2.62,2.62,0,0,1-1.2.78,5.54,5.54,0,0,1-1.82.27,5,5,0,0,1-2.23-.43,1.39,1.39,0,0,1-.88-1.32,1.47,1.47,0,0,1,.25-.85,2.18,2.18,0,0,1,.68-.59.93.93,0,0,1-.36-.74,1,1,0,0,1,.17-.53,1.87,1.87,0,0,1,.55-.53,2.09,2.09,0,0,1-.82-.76,2.12,2.12,0,0,1-.27-1.06,2,2,0,0,1,.41-1.28,2.43,2.43,0,0,1,1.09-.75,4.7,4.7,0,0,1,1.49-.23,4.15,4.15,0,0,1,.77.06l2.09-.91.52,1.43-1.25.3a1.75,1.75,0,0,1,.68,1.44,1.82,1.82,0,0,1-.41,1.22,2.4,2.4,0,0,1-1.08.69,4.73,4.73,0,0,1-1.44.21,4.88,4.88,0,0,1-.68,0,.52.52,0,0,0-.08.24.24.24,0,0,0,.07.17.57.57,0,0,0,.27.12,3,3,0,0,0,.55.07Zm-6.95-5.09a1.65,1.65,0,0,1,1.85,1.84v4.5h-1.79v-4a1.86,1.86,0,0,0-.07-.59.65.65,0,0,0-.25-.31,1.12,1.12,0,0,0-.5-.09,2.52,2.52,0,0,0-1.26.43v4.52h-1.79V130l1.79-.18v.6a5.68,5.68,0,0,1,1-.49A3,3,0,0,1,119.18,129.78Zm-7.2,6.34V130l1.79-.18v6.28Zm.86-7.05a1.17,1.17,0,0,1-.57-.16,1.3,1.3,0,0,1-.42-.42,1,1,0,0,1-.16-.57,1.08,1.08,0,0,1,.16-.58,1.21,1.21,0,0,1,.42-.42,1.07,1.07,0,0,1,.57-.16,1.2,1.2,0,0,1,1,.58,1.17,1.17,0,0,1,.15.58,1.1,1.1,0,0,1-.15.57,1.24,1.24,0,0,1-.43.42A1.25,1.25,0,0,1,112.84,129.07Zm-1.77,6.79a3.43,3.43,0,0,1-1.75.45,1.92,1.92,0,0,1-.9-.2,1.53,1.53,0,0,1-.68-.63,2.07,2.07,0,0,1-.27-1.11v-2.93h-1.09V130h1.09V128.6l1.79-.26V130h1.66l-.19,1.46h-1.47v2.65a.91.91,0,0,0,.14.57.48.48,0,0,0,.39.16,1.37,1.37,0,0,0,.36,0,3.47,3.47,0,0,0,.43-.16Zm-7.55.45a5.08,5.08,0,0,1-1.52-.21,4.38,4.38,0,0,1-1.26-.63l.76-1.19a3.31,3.31,0,0,0,1,.52,3.14,3.14,0,0,0,1,.16,1.11,1.11,0,0,0,.64-.14.41.41,0,0,0,.21-.36.5.5,0,0,0-.08-.27.93.93,0,0,0-.33-.23,4.25,4.25,0,0,0-.73-.25l-.38-.11a3.06,3.06,0,0,1-1.38-.71,1.65,1.65,0,0,1-.42-1.19,1.74,1.74,0,0,1,.3-1,2.06,2.06,0,0,1,.87-.68,3.34,3.34,0,0,1,1.27-.23,4.72,4.72,0,0,1,2.46.66l-.7,1.19a5.22,5.22,0,0,0-.93-.39,2.65,2.65,0,0,0-.81-.11.86.86,0,0,0-.5.12.37.37,0,0,0-.17.31.35.35,0,0,0,.07.23.57.57,0,0,0,.25.16c.12.05.31.11.57.19l.44.12a3.28,3.28,0,0,1,1.51.76,1.71,1.71,0,0,1,.48,1.25,2,2,0,0,1-.29,1,1.92,1.92,0,0,1-.87.73A3.67,3.67,0,0,1,103.52,136.31ZM97.45,131a1,1,0,0,0-.72.29,1.83,1.83,0,0,0-.38.92h2v0a1.32,1.32,0,0,0-.25-.91A.9.9,0,0,0,97.45,131Zm2.72,1.46c0,.18,0,.5,0,1H96.3a1.61,1.61,0,0,0,.49,1.12,1.43,1.43,0,0,0,1,.36,2.81,2.81,0,0,0,.82-.12,3.72,3.72,0,0,0,.85-.39l.61,1.11a3.49,3.49,0,0,1-1.1.58,4.45,4.45,0,0,1-1.35.2A3.58,3.58,0,0,1,96,136a2.44,2.44,0,0,1-1.12-1,3.62,3.62,0,0,1-.41-1.85,4.11,4.11,0,0,1,.35-1.79,2.47,2.47,0,0,1,1-1.14,3.06,3.06,0,0,1,1.58-.38,3,3,0,0,1,1.5.35,2.32,2.32,0,0,1,.92,1A3.12,3.12,0,0,1,100.17,132.49Zm-4.88-5.21v1.65H92.56v7.19H90.73v-7.19H88v-1.65Zm116.83-16.2a1,1,0,0,0-.72.29,1.79,1.79,0,0,0-.38.92h2v0a1.29,1.29,0,0,0-.25-.9A.9.9,0,0,0,212.12,111.08Zm2.72,1.46c0,.18,0,.5-.05.95H211a1.63,1.63,0,0,0,.49,1.13,1.43,1.43,0,0,0,1,.36,2.81,2.81,0,0,0,.82-.12,3.79,3.79,0,0,0,.85-.4l.61,1.12a3.38,3.38,0,0,1-1.1.57,4.24,4.24,0,0,1-1.35.21,3.66,3.66,0,0,1-1.58-.33,2.52,2.52,0,0,1-1.11-1,3.64,3.64,0,0,1-.42-1.85,4.26,4.26,0,0,1,.35-1.79,2.54,2.54,0,0,1,1-1.14,3.06,3.06,0,0,1,1.58-.39,2.88,2.88,0,0,1,1.49.36,2.23,2.23,0,0,1,.93,1A3.12,3.12,0,0,1,214.84,112.54Zm-6.7-2.72a2,2,0,0,1,.72.13l-.27,1.87a2.54,2.54,0,0,0-.39-.13,2.25,2.25,0,0,0-.4,0,1.48,1.48,0,0,0-.67.17,2.14,2.14,0,0,0-.65.61v3.74h-1.79v-6.1l1.79-.18v.86A2,2,0,0,1,208.14,109.82Zm-8.67,4.59a.55.55,0,0,0,.18.45.73.73,0,0,0,.51.16,2.47,2.47,0,0,0,1.21-.37v-1.18a3.43,3.43,0,0,0-1.44.31A.75.75,0,0,0,199.47,114.41Zm1.34-4.59a2.78,2.78,0,0,1,1.76.47,1.86,1.86,0,0,1,.59,1.55v4.33h-1.52l-.15-.48a3,3,0,0,1-1,.52,3.38,3.38,0,0,1-1,.15,2.07,2.07,0,0,1-1-.22,1.56,1.56,0,0,1-.66-.61,1.71,1.71,0,0,1-.23-.89,1.78,1.78,0,0,1,1-1.65,6.33,6.33,0,0,1,2.71-.63v-.15a2,2,0,0,0-.07-.6.55.55,0,0,0-.26-.32,1.09,1.09,0,0,0-.52-.1,3.66,3.66,0,0,0-1.91.69l-.69-1.12a6.84,6.84,0,0,1,1.4-.71A4.75,4.75,0,0,1,200.81,109.82Zm-3.34.21v.09l-1.71,6h-1.67l-.84-3c-.12-.46-.2-.84-.25-1.12a8.43,8.43,0,0,1-.22,1.12l-.79,3h-1.72l-1.81-6.08V110h1.95l.64,2.88a9.08,9.08,0,0,1,.17,1.13c.07-.41.15-.78.23-1.12l.73-2.89h1.72l.75,2.81c.09.43.17.82.23,1.17q.06-.57.18-1.17l.54-2.81Zm-9.17,5.88a3.39,3.39,0,0,1-1.74.45,2.13,2.13,0,0,1-.91-.2,1.58,1.58,0,0,1-.68-.63,2.17,2.17,0,0,1-.26-1.11v-2.93h-1.09V110h1.09v-1.38l1.79-.26V110h1.66l-.19,1.46H186.5v2.64a.87.87,0,0,0,.14.58.47.47,0,0,0,.39.16,1.12,1.12,0,0,0,.36-.05l.42-.15Zm-5.63-7.7a.73.73,0,0,0-.59.26,1.11,1.11,0,0,0-.23.74V110h1.56l-.19,1.46h-1.37v4.68h-1.79v-4.68h-.87V110h.87v-.78a3.12,3.12,0,0,1,.28-1.32,2.18,2.18,0,0,1,.82-.93,2.45,2.45,0,0,1,1.31-.33,3.74,3.74,0,0,1,.79.07,3.4,3.4,0,0,1,.71.22l-.44,1.44a2.87,2.87,0,0,0-.44-.15A2.72,2.72,0,0,0,182.67,108.21ZM175.41,115a1.09,1.09,0,0,0,1-.51,2.85,2.85,0,0,0,.29-1.39,2.55,2.55,0,0,0-.31-1.4,1.09,1.09,0,0,0-1-.48,1.18,1.18,0,0,0-1,.47,3.2,3.2,0,0,0,0,2.81A1.11,1.11,0,0,0,175.41,115Zm-.1,1.38a3.15,3.15,0,0,1-1.69-.44,2.71,2.71,0,0,1-1-1.18,3.88,3.88,0,0,1-.34-1.66,3.53,3.53,0,0,1,.44-1.89,2.68,2.68,0,0,1,1.17-1,4.1,4.1,0,0,1,1.64-.32,3.22,3.22,0,0,1,1.7.42,2.57,2.57,0,0,1,1,1.15,4,4,0,0,1,.35,1.71,3.68,3.68,0,0,1-.43,1.86A2.62,2.62,0,0,1,177,116,4,4,0,0,1,175.31,116.36Zm-7.37,0a5.42,5.42,0,0,1-3.39-1.06l.85-1.35a4.46,4.46,0,0,0,2.42.8,2.3,2.3,0,0,0,1.18-.25.79.79,0,0,0,.44-.73.87.87,0,0,0-.14-.5,1.41,1.41,0,0,0-.5-.38,9.94,9.94,0,0,0-1.05-.47l-.3-.13a8.91,8.91,0,0,1-1.37-.65,2.36,2.36,0,0,1-.82-.81,2.24,2.24,0,0,1-.31-1.24,2.08,2.08,0,0,1,.47-1.38,2.74,2.74,0,0,1,1.19-.82,4.66,4.66,0,0,1,1.55-.25,4.9,4.9,0,0,1,1.53.25,5.43,5.43,0,0,1,1.51.74l-.86,1.34a5.15,5.15,0,0,0-1.12-.57,3,3,0,0,0-1.05-.18,1.71,1.71,0,0,0-1,.22.71.71,0,0,0-.19,1,1.56,1.56,0,0,0,.48.37,9.68,9.68,0,0,0,1,.43l.3.11a10.84,10.84,0,0,1,1.36.61,2.33,2.33,0,0,1,1.23,2.2,2.42,2.42,0,0,1-.45,1.49,2.66,2.66,0,0,1-1.23.91A4.79,4.79,0,0,1,167.94,116.36Zm-9.21-.19v-9.39l1.79-.18v9.57Zm-5.23-1.76a.58.58,0,0,0,.17.45.74.74,0,0,0,.52.16,2.47,2.47,0,0,0,1.21-.37v-1.18a3.35,3.35,0,0,0-1.44.31A.73.73,0,0,0,153.5,114.41Zm1.34-4.59a2.8,2.8,0,0,1,1.76.47,1.89,1.89,0,0,1,.59,1.55v4.33h-1.53l-.14-.48a3.22,3.22,0,0,1-1,.52,3.5,3.5,0,0,1-1,.15,2.12,2.12,0,0,1-1-.22,1.62,1.62,0,0,1-.66-.61,1.71,1.71,0,0,1-.23-.89,1.8,1.8,0,0,1,1-1.65,6.38,6.38,0,0,1,2.72-.63v-.15a1.93,1.93,0,0,0-.08-.6.55.55,0,0,0-.26-.32,1,1,0,0,0-.51-.1,3.63,3.63,0,0,0-1.91.69l-.69-1.12a6.37,6.37,0,0,1,1.4-.71A4.7,4.7,0,0,1,154.84,109.82Zm-6.07,0a1.87,1.87,0,0,1,1.38.47,1.85,1.85,0,0,1,.47,1.38v4.5h-1.79v-4a2.2,2.2,0,0,0-.07-.59.56.56,0,0,0-.25-.31,1.12,1.12,0,0,0-.5-.09,2.52,2.52,0,0,0-1.26.43v4.52H145v-6.1l1.8-.18v.6a4.79,4.79,0,0,1,1-.49A3,3,0,0,1,148.77,109.82Zm-8.2,5.16a1.06,1.06,0,0,0,1-.51,2.73,2.73,0,0,0,.3-1.39,2.54,2.54,0,0,0-.32-1.4,1.07,1.07,0,0,0-1-.48,1.15,1.15,0,0,0-1,.47,2.47,2.47,0,0,0-.32,1.41,2.54,2.54,0,0,0,.33,1.4A1.09,1.09,0,0,0,140.57,115Zm-.1,1.38a3.13,3.13,0,0,1-1.69-.44,2.65,2.65,0,0,1-1-1.18,3.88,3.88,0,0,1-.35-1.66,3.62,3.62,0,0,1,.44-1.89,2.65,2.65,0,0,1,1.18-1,4.09,4.09,0,0,1,1.63-.32,3.28,3.28,0,0,1,1.71.42,2.63,2.63,0,0,1,1,1.15,4,4,0,0,1,.34,1.71,3.58,3.58,0,0,1-.43,1.86,2.6,2.6,0,0,1-1.16,1.07A4.08,4.08,0,0,1,140.47,116.36Zm-6.09-.19v-6.1l1.79-.18v6.28Zm.86-7.06a1.16,1.16,0,0,1-.57-.15,1.3,1.3,0,0,1-.42-.42,1,1,0,0,1-.16-.57,1.08,1.08,0,0,1,.16-.58,1.24,1.24,0,0,1,.42-.43,1.16,1.16,0,0,1,.57-.15,1.2,1.2,0,0,1,.59.15,1.18,1.18,0,0,1,.43.43,1.08,1.08,0,0,1,.16.58,1,1,0,0,1-.16.57,1.24,1.24,0,0,1-.43.42A1.2,1.2,0,0,1,135.24,109.11Zm-1.77,6.8a3.48,3.48,0,0,1-1.75.45,2.13,2.13,0,0,1-.91-.2,1.64,1.64,0,0,1-.68-.63,2.17,2.17,0,0,1-.26-1.11v-2.93h-1.09V110h1.09v-1.38l1.79-.26V110h1.66l-.19,1.46h-1.47v2.64a.93.93,0,0,0,.14.58.47.47,0,0,0,.39.16,1.08,1.08,0,0,0,.36-.05,3.15,3.15,0,0,0,.42-.15Zm-9.08-1.5a.55.55,0,0,0,.17.45.73.73,0,0,0,.51.16,2.5,2.5,0,0,0,1.22-.37v-1.18a3.35,3.35,0,0,0-1.44.31A.73.73,0,0,0,124.39,114.41Zm1.34-4.59a2.82,2.82,0,0,1,1.76.47,1.89,1.89,0,0,1,.59,1.55v4.33h-1.53l-.14-.48a3.22,3.22,0,0,1-1,.52,3.5,3.5,0,0,1-1,.15,2.09,2.09,0,0,1-1-.22,1.62,1.62,0,0,1-.66-.61,1.71,1.71,0,0,1-.23-.89,1.8,1.8,0,0,1,1-1.65,6.38,6.38,0,0,1,2.72-.63v-.15a1.93,1.93,0,0,0-.08-.6.55.55,0,0,0-.26-.32,1.07,1.07,0,0,0-.52-.1,3.6,3.6,0,0,0-1.9.69l-.69-1.12a6.54,6.54,0,0,1,1.39-.71A4.81,4.81,0,0,1,125.73,109.82Zm-6.07,0a1.65,1.65,0,0,1,1.85,1.85v4.5h-1.79v-4a1.82,1.82,0,0,0-.08-.59.55.55,0,0,0-.24-.31,1.15,1.15,0,0,0-.5-.09,2.58,2.58,0,0,0-1.27.43v4.52h-1.79v-6.1l1.79-.18v.6a4.86,4.86,0,0,1,1-.49A3,3,0,0,1,119.66,109.82Zm-5.48,0a1.88,1.88,0,0,1,.72.13l-.27,1.87a2.87,2.87,0,0,0-.38-.13,2.35,2.35,0,0,0-.4,0,1.52,1.52,0,0,0-.68.17,2,2,0,0,0-.64.61v3.74h-1.8v-6.1l1.8-.18v.86A2,2,0,0,1,114.18,109.82Zm-7.39,1.26a1,1,0,0,0-.72.29,1.79,1.79,0,0,0-.38.92h2v0a1.29,1.29,0,0,0-.25-.9A.9.9,0,0,0,106.79,111.08Zm2.72,1.46c0,.18,0,.5-.05.95h-3.82a1.68,1.68,0,0,0,.49,1.13,1.43,1.43,0,0,0,1,.36,2.81,2.81,0,0,0,.82-.12,3.79,3.79,0,0,0,.85-.4l.61,1.12a3.28,3.28,0,0,1-1.1.57,4.15,4.15,0,0,1-1.35.21,3.62,3.62,0,0,1-1.57-.33,2.49,2.49,0,0,1-1.12-1,3.64,3.64,0,0,1-.42-1.85,4.11,4.11,0,0,1,.36-1.79,2.47,2.47,0,0,1,1-1.14,3.06,3.06,0,0,1,1.58-.39,2.88,2.88,0,0,1,1.49.36,2.18,2.18,0,0,1,.93,1A3.12,3.12,0,0,1,109.51,112.54Zm-6.07,3.37a3.43,3.43,0,0,1-1.75.45,2.08,2.08,0,0,1-.9-.2,1.53,1.53,0,0,1-.68-.63,2.07,2.07,0,0,1-.27-1.11v-2.93H98.75V110h1.09v-1.38l1.79-.26V110h1.66l-.18,1.46h-1.48v2.64a.93.93,0,0,0,.14.58.48.48,0,0,0,.39.16,1,1,0,0,0,.36-.05,3.22,3.22,0,0,0,.43-.15Zm-7.24-6.09a1.87,1.87,0,0,1,1.38.47,1.85,1.85,0,0,1,.47,1.38v4.5H96.26v-4a1.86,1.86,0,0,0-.07-.59.56.56,0,0,0-.25-.31,1.12,1.12,0,0,0-.5-.09,2.52,2.52,0,0,0-1.26.43v4.52h-1.8v-6.1l1.8-.18v.6a5.05,5.05,0,0,1,1-.49A3,3,0,0,1,96.2,109.82Zm-7.4,6.35v-8.85h1.83v8.85Z"></path>
  <path class="c" d="M242.58,133.17a2.46,2.46,0,0,0,.28,1.33.93.93,0,0,0,.84.42,1.8,1.8,0,0,0,.6-.1,2.66,2.66,0,0,0,.6-.28v-3.36a3.74,3.74,0,0,0-.78-.09,1.36,1.36,0,0,0-1.12.53,2.49,2.49,0,0,0-.42,1.55m4.11-6.62v9.57h-1.53l-.13-.42a3.12,3.12,0,0,1-1.81.61,2.23,2.23,0,0,1-1.87-.8,3.67,3.67,0,0,1-.63-2.32,3.86,3.86,0,0,1,.45-2,2.66,2.66,0,0,1,1.16-1.1,3.45,3.45,0,0,1,1.52-.34,4.54,4.54,0,0,1,1.05.14v-3.19Zm-7,3.23a2.09,2.09,0,0,1,.72.12l-.27,1.87a2.45,2.45,0,0,0-.38-.13,2.35,2.35,0,0,0-.4,0,1.35,1.35,0,0,0-.67.18,1.88,1.88,0,0,0-.65.6v3.74h-1.79V130l1.79-.18v.86A2,2,0,0,1,239.69,129.78ZM231,134.36a.59.59,0,0,0,.18.46.74.74,0,0,0,.51.16,2.58,2.58,0,0,0,1.21-.37v-1.19a3.51,3.51,0,0,0-1.44.31C231.18,133.91,231,134.11,231,134.36Zm1.34-4.58a2.76,2.76,0,0,1,1.76.47,1.87,1.87,0,0,1,.59,1.55v4.32h-1.53l-.14-.48a3.22,3.22,0,0,1-1,.52,3.45,3.45,0,0,1-1,.15,2.12,2.12,0,0,1-1-.22,1.51,1.51,0,0,1-.65-.6,1.68,1.68,0,0,1-.24-.9,1.8,1.8,0,0,1,1-1.64,6.23,6.23,0,0,1,2.72-.64v-.15a2.35,2.35,0,0,0-.07-.6.57.57,0,0,0-.27-.32,1,1,0,0,0-.51-.1,3.57,3.57,0,0,0-1.91.7l-.69-1.12a5.78,5.78,0,0,1,1.4-.71A4.44,4.44,0,0,1,232.37,129.78Zm-7.08,5.15a1.09,1.09,0,0,0,1-.51,2.83,2.83,0,0,0,.29-1.38,2.5,2.5,0,0,0-.32-1.41,1,1,0,0,0-1-.48,1.16,1.16,0,0,0-1,.47A2.59,2.59,0,0,0,224,133a2.53,2.53,0,0,0,.33,1.39A1.09,1.09,0,0,0,225.29,134.93Zm-.1,1.38a3.15,3.15,0,0,1-1.69-.43,2.82,2.82,0,0,1-1-1.18,3.92,3.92,0,0,1-.35-1.66,3.56,3.56,0,0,1,.45-1.9,2.55,2.55,0,0,1,1.17-1,3.94,3.94,0,0,1,1.64-.32,3.22,3.22,0,0,1,1.7.41,2.63,2.63,0,0,1,1,1.15,4,4,0,0,1,.35,1.71,3.66,3.66,0,0,1-.43,1.86,2.62,2.62,0,0,1-1.17,1.07A4,4,0,0,1,225.19,136.31Zm-7.47-1.74a1.83,1.83,0,0,0,1.18-.31,1.06,1.06,0,0,0,.35-.83,1,1,0,0,0-.37-.8,1.7,1.7,0,0,0-1.1-.3h-1.41v2.24Zm-1.35-5.76v2.06h1.06q1.47,0,1.47-1.08a.86.86,0,0,0-.33-.73,1.52,1.52,0,0,0-.95-.25Zm3.14,2.66a2.45,2.45,0,0,1,.94.47,1.84,1.84,0,0,1,.55.73,2.11,2.11,0,0,1,.18.86,2.32,2.32,0,0,1-.84,1.92,3.84,3.84,0,0,1-2.43.67h-3.37v-8.84h3.14a4.63,4.63,0,0,1,1.73.29,2.33,2.33,0,0,1,1.07.82,2.13,2.13,0,0,1,.36,1.24,1.91,1.91,0,0,1-.33,1.08A2.06,2.06,0,0,1,219.51,131.47Zm-11.78,4.84a5.08,5.08,0,0,1-1.52-.21,4.32,4.32,0,0,1-1.25-.63l.75-1.19a3.47,3.47,0,0,0,1,.52,3.08,3.08,0,0,0,1,.16,1.11,1.11,0,0,0,.64-.14.41.41,0,0,0,.21-.36.5.5,0,0,0-.08-.27.77.77,0,0,0-.33-.23,4.4,4.4,0,0,0-.72-.25l-.39-.11a3.06,3.06,0,0,1-1.38-.71,1.65,1.65,0,0,1-.42-1.19,1.68,1.68,0,0,1,.31-1,2,2,0,0,1,.86-.68,3.34,3.34,0,0,1,1.27-.23,4.7,4.7,0,0,1,2.46.66l-.7,1.19a5.22,5.22,0,0,0-.93-.39,2.65,2.65,0,0,0-.81-.11.86.86,0,0,0-.5.12.37.37,0,0,0-.17.31.42.42,0,0,0,.07.23.63.63,0,0,0,.25.16c.12.05.31.11.57.19l.44.12a3.23,3.23,0,0,1,1.51.76,1.71,1.71,0,0,1,.48,1.25,2,2,0,0,1-.29,1,1.92,1.92,0,0,1-.87.73A3.6,3.6,0,0,1,207.73,136.31Zm-5.5-6.53a1.65,1.65,0,0,1,1.85,1.84v4.5h-1.79v-4a1.86,1.86,0,0,0-.07-.59.6.6,0,0,0-.25-.31,1.12,1.12,0,0,0-.5-.09,2.52,2.52,0,0,0-1.26.43v4.52h-1.8V130l1.8-.18v.6a5.68,5.68,0,0,1,1-.49A3,3,0,0,1,202.23,129.78Zm-8.2,5.15a1.06,1.06,0,0,0,1-.51,2.72,2.72,0,0,0,.3-1.38,2.58,2.58,0,0,0-.32-1.41,1.07,1.07,0,0,0-1-.48,1.15,1.15,0,0,0-1,.47,2.59,2.59,0,0,0-.32,1.42,2.53,2.53,0,0,0,.33,1.39A1.07,1.07,0,0,0,194,134.93Zm-.1,1.38a3.12,3.12,0,0,1-1.69-.43,2.75,2.75,0,0,1-1-1.18,3.92,3.92,0,0,1-.35-1.66,3.56,3.56,0,0,1,.45-1.9,2.5,2.5,0,0,1,1.17-1,3.92,3.92,0,0,1,1.63-.32,3.28,3.28,0,0,1,1.71.41,2.63,2.63,0,0,1,1,1.15,4,4,0,0,1,.34,1.71,3.56,3.56,0,0,1-.43,1.86A2.6,2.6,0,0,1,195.6,136,4.08,4.08,0,0,1,193.93,136.31Zm-6.09-.19V130l1.79-.18v6.28Zm.86-7.05a1.17,1.17,0,0,1-.57-.16,1.13,1.13,0,0,1-.42-.42,1,1,0,0,1-.16-.57,1.08,1.08,0,0,1,.16-.58,1.17,1.17,0,0,1,1-.58,1.17,1.17,0,0,1,1.18,1.16,1,1,0,0,1-.16.57,1.16,1.16,0,0,1-.43.42A1.18,1.18,0,0,1,188.7,129.07Zm-1.77,6.79a3.48,3.48,0,0,1-1.75.45,1.92,1.92,0,0,1-.9-.2,1.6,1.6,0,0,1-.69-.63,2.17,2.17,0,0,1-.26-1.11v-2.93h-1.09V130h1.09V128.6l1.79-.26V130h1.66l-.19,1.46h-1.47v2.65a.91.91,0,0,0,.14.57.47.47,0,0,0,.39.16,1.42,1.42,0,0,0,.36,0,4.15,4.15,0,0,0,.42-.16Z"></path>
  <path class="d" d="M111,48.26c-5.12,4-16.09,12.38-18.41,18.29,2.44.16,11.75.51,13.72.12,2.24-.44,4-3.45,7.55-6.39,13.57-11.31,27.69-18.8,44.7-25a229.55,229.55,0,0,1,22.26-6.66c3.35-.83,9.49-1.74,12-2.77-25.44-1.81-60.61,7.33-81.84,22.36"></path>
  <path class="d" d="M74.19,132c1.09-2,2.55-10.58,3.54-13.86.74-2.41,3.3-11,4.49-12.11-.5-1.67.83-.61-1.87-1.08a18.86,18.86,0,0,0-3.08.11c-2.17,3.81-3.37,22.57-3.08,26.94"></path>
  <rect class="e" x="178.41" y="75.61" width="121.59" height="24.93"></rect>
  <path class="f" d="M198.34,81.43l.34,4.26h-.36A5.86,5.86,0,0,0,197,83.3a4.17,4.17,0,0,0-3-1.16,4.28,4.28,0,0,0-3.84,2,7.45,7.45,0,0,0-1.1,4.1,8.32,8.32,0,0,0,.73,3.53,5.29,5.29,0,0,0,1.92,2.34,4.6,4.6,0,0,0,2.44.74,5.59,5.59,0,0,0,1.42-.19,5.82,5.82,0,0,0,1.32-.56V90.22a3.7,3.7,0,0,0-.15-1.33,1.09,1.09,0,0,0-.47-.48,2.72,2.72,0,0,0-1.12-.16v-.37h5.12v.37H200a1.1,1.1,0,0,0-1,.51,3.65,3.65,0,0,0-.19,1.46v4.15a9.49,9.49,0,0,1-2.21.91,9.33,9.33,0,0,1-2.44.29,7,7,0,0,1-5.83-2.51,6.85,6.85,0,0,1-1.49-4.35,7.39,7.39,0,0,1,.84-3.42,7.23,7.23,0,0,1,2.73-3,6.68,6.68,0,0,1,3.44-.86,6.57,6.57,0,0,1,1.31.12,12,12,0,0,1,1.68.52,2.64,2.64,0,0,0,.73.21.37.37,0,0,0,.32-.17,1.33,1.33,0,0,0,.16-.68Z"></path>
  <path class="f" d="M205.26,86.51a2.08,2.08,0,0,0-1,.31,2.19,2.19,0,0,0-.85,1.1,5.31,5.31,0,0,0-.32,2,7.09,7.09,0,0,0,.78,3.43,2.3,2.3,0,0,0,2,1.45,1.92,1.92,0,0,0,1.57-.8,4.58,4.58,0,0,0,.61-2.73,6.31,6.31,0,0,0-1-3.83,2.11,2.11,0,0,0-1.76-.95m.3-.65a3.94,3.94,0,0,1,3.27,1.57,5,5,0,0,1,1,3.09A6,6,0,0,1,209.3,93a4.36,4.36,0,0,1-1.59,1.9,4.21,4.21,0,0,1-2.26.63,3.79,3.79,0,0,1-3.22-1.64,5.19,5.19,0,0,1-1-3.11,5.6,5.6,0,0,1,.62-2.5,4.15,4.15,0,0,1,1.61-1.83A4,4,0,0,1,205.56,85.86Z"></path>
  <path class="f" d="M214.26,81.08V93.21a3.34,3.34,0,0,0,.12,1.12.89.89,0,0,0,.38.43,2.17,2.17,0,0,0,.94.14v.37h-4.38V94.9a1.81,1.81,0,0,0,.84-.13.92.92,0,0,0,.35-.42,3.48,3.48,0,0,0,.13-1.14V84.9a15.35,15.35,0,0,0-.07-1.88.86.86,0,0,0-.22-.48.56.56,0,0,0-.39-.13,2,2,0,0,0-.64.16l-.17-.37,2.67-1.12Z"></path>
  <path class="f" d="M223,93.51V88.84a3.23,3.23,0,0,0-.35-1.25,2,2,0,0,0-.78-.84,1.82,1.82,0,0,0-.94-.28,2,2,0,0,0-1.54.78,4.55,4.55,0,0,0-.89,3,4.83,4.83,0,0,0,.86,3.08,2.47,2.47,0,0,0,1.92,1.07,2.35,2.35,0,0,0,1.72-.92m0,.7a4.54,4.54,0,0,1-1.28,1,3,3,0,0,1-1.34.3,3.31,3.31,0,0,1-2.57-1.25,4.68,4.68,0,0,1-1.09-3.21A5.89,5.89,0,0,1,218,87.48a3.74,3.74,0,0,1,3.12-1.62,2.65,2.65,0,0,1,1.95.77V84.94A13.77,13.77,0,0,0,223,83a.89.89,0,0,0-.23-.49.59.59,0,0,0-.39-.13,2.22,2.22,0,0,0-.68.16l-.13-.37,2.69-1.12h.44V91.63a14.22,14.22,0,0,0,.07,2,.87.87,0,0,0,.24.49.55.55,0,0,0,.37.14,2.22,2.22,0,0,0,.71-.17l.11.37-2.68,1.12H223Z"></path>
  <path class="f" d="M235.22,88.35c.34.07.65.12.91.15a6.58,6.58,0,0,0,.68,0,2.3,2.3,0,0,0,1.75-.8,3,3,0,0,0,.74-2.07,3.85,3.85,0,0,0-.35-1.63,2.46,2.46,0,0,0-1-1.13,2.9,2.9,0,0,0-1.46-.37,5.41,5.41,0,0,0-1.27.19Zm0,.57v4a2.8,2.8,0,0,0,.27,1.58,1.4,1.4,0,0,0,1.12.44h.51v.37h-5.69V94.9h.5a1.34,1.34,0,0,0,1.21-.56,3.33,3.33,0,0,0,.19-1.46V84.12a2.83,2.83,0,0,0-.26-1.58,1.44,1.44,0,0,0-1.14-.44h-.5v-.37h4.87a8.49,8.49,0,0,1,2.81.38,3.91,3.91,0,0,1,1.73,1.26,3.26,3.26,0,0,1,.7,2.1,3.56,3.56,0,0,1-1.07,2.7,4.16,4.16,0,0,1-3,1,7.67,7.67,0,0,1-1-.07A9.65,9.65,0,0,1,235.22,88.92Z"></path>
  <path class="f" d="M247.93,93.29V89.82a19.53,19.53,0,0,0-1.92.84,3.57,3.57,0,0,0-1.11.92,1.81,1.81,0,0,0-.33,1,1.71,1.71,0,0,0,.42,1.19,1.27,1.27,0,0,0,1,.48,3.59,3.59,0,0,0,2-1m0,.65a14.81,14.81,0,0,1-1.73,1.26,2.52,2.52,0,0,1-1.12.25,2,2,0,0,1-1.53-.65,2.4,2.4,0,0,1-.6-1.7,2.15,2.15,0,0,1,.29-1.16,4,4,0,0,1,1.39-1.28,22.45,22.45,0,0,1,3.3-1.46v-.35a3,3,0,0,0-.42-1.87,1.54,1.54,0,0,0-1.24-.51,1.35,1.35,0,0,0-1,.34,1,1,0,0,0-.37.78l0,.57a1,1,0,0,1-.23.71.77.77,0,0,1-.6.25.73.73,0,0,1-.6-.26,1,1,0,0,1-.23-.71,2,2,0,0,1,.86-1.58,3.66,3.66,0,0,1,2.42-.71,4.17,4.17,0,0,1,2,.4,1.94,1.94,0,0,1,.85,1,5.8,5.8,0,0,1,.17,1.75v3.09a15,15,0,0,0,0,1.6.8.8,0,0,0,.16.4.44.44,0,0,0,.27.09.6.6,0,0,0,.27-.06,6.16,6.16,0,0,0,.79-.73v.56q-1.09,1.5-2.1,1.5a.93.93,0,0,1-.76-.34A1.87,1.87,0,0,1,247.93,93.94Z"></path>
  <path class="f" d="M254.4,85.86v2.06c.74-1.38,1.5-2.06,2.29-2.06a1.25,1.25,0,0,1,.88.33,1,1,0,0,1,.35.78.92.92,0,0,1-.25.66.8.8,0,0,1-.6.27,1.26,1.26,0,0,1-.76-.35,1.33,1.33,0,0,0-.63-.35.59.59,0,0,0-.38.2,5,5,0,0,0-.9,1.36v4.36a2.9,2.9,0,0,0,.18,1.16,1,1,0,0,0,.45.44,1.94,1.94,0,0,0,.93.18v.37h-4.59V94.9a1.8,1.8,0,0,0,1-.22.79.79,0,0,0,.34-.51,4.19,4.19,0,0,0,.06-1V89.67a14.7,14.7,0,0,0-.07-1.89.74.74,0,0,0-.23-.44.64.64,0,0,0-.43-.14,1.87,1.87,0,0,0-.68.15l-.1-.37L254,85.86Z"></path>
  <path class="f" d="M261,83.12v3h2.1v.67l-2.1,0v5.92a2,2,0,0,0,.25,1.2.81.81,0,0,0,.64.31,1.1,1.1,0,0,0,.63-.21,1.32,1.32,0,0,0,.46-.61h.39a3.19,3.19,0,0,1-1,1.48,2.08,2.08,0,0,1-1.3.5,1.72,1.72,0,0,1-.88-.26,1.46,1.46,0,0,1-.63-.73,3.78,3.78,0,0,1-.21-1.46V86.79H258v-.31a3.67,3.67,0,0,0,1.1-.74,5.63,5.63,0,0,0,1-1.23,12.4,12.4,0,0,0,.63-1.39Z"></path>
  <path class="f" d="M266.61,87.77c1-1.27,2-1.91,3-1.91a2.11,2.11,0,0,1,1.26.37,2.53,2.53,0,0,1,.84,1.23,6,6,0,0,1,.21,1.84v3.91a3.36,3.36,0,0,0,.14,1.17.84.84,0,0,0,.34.38,2,2,0,0,0,.88.14v.37h-4.42V94.9H269a1.51,1.51,0,0,0,.87-.19,1,1,0,0,0,.35-.57,5.42,5.42,0,0,0,0-.93V89.45a3.89,3.89,0,0,0-.32-1.82,1.11,1.11,0,0,0-1.06-.57,3.16,3.16,0,0,0-2.3,1.3v4.85a3.65,3.65,0,0,0,.1,1.14,1,1,0,0,0,.38.42,2.34,2.34,0,0,0,1,.13v.37h-4.45V94.9h.2a1,1,0,0,0,.92-.35,2.6,2.6,0,0,0,.24-1.34V89.82a14.87,14.87,0,0,0-.07-2,.83.83,0,0,0-.22-.49.59.59,0,0,0-.41-.13,1.81,1.81,0,0,0-.65.15l-.15-.37,2.7-1.12h.43Z"></path>
  <path class="f" d="M275.49,89h4.15a3.93,3.93,0,0,0-.2-1.23,1.94,1.94,0,0,0-.74-.88,1.8,1.8,0,0,0-1-.32,2,2,0,0,0-1.45.64,2.86,2.86,0,0,0-.75,1.79m0,.57a4.78,4.78,0,0,0,1,3.18,3,3,0,0,0,2.3,1.15,2.46,2.46,0,0,0,1.53-.49,3.59,3.59,0,0,0,1.09-1.69l.3.19a4.77,4.77,0,0,1-1.19,2.5A3.15,3.15,0,0,1,278,95.53a3.56,3.56,0,0,1-2.76-1.28,5,5,0,0,1-1.15-3.44,5.28,5.28,0,0,1,1.18-3.64,3.77,3.77,0,0,1,2.95-1.31,3.24,3.24,0,0,1,2.47,1,3.71,3.71,0,0,1,1,2.7Z"></path>
  <path class="f" d="M285.52,85.86v2.06c.74-1.38,1.51-2.06,2.29-2.06a1.22,1.22,0,0,1,.88.33A1,1,0,0,1,289,87a1,1,0,0,1-.24.66.84.84,0,0,1-.61.27,1.28,1.28,0,0,1-.76-.35,1.27,1.27,0,0,0-.62-.35.61.61,0,0,0-.39.2,5.2,5.2,0,0,0-.9,1.36v4.36a2.71,2.71,0,0,0,.19,1.16.94.94,0,0,0,.44.44,2,2,0,0,0,.93.18v.37H282.5V94.9a1.82,1.82,0,0,0,1-.22.83.83,0,0,0,.34-.51,5.33,5.33,0,0,0,0-1V89.67a12.91,12.91,0,0,0-.07-1.89.69.69,0,0,0-.23-.44.59.59,0,0,0-.42-.14,1.82,1.82,0,0,0-.68.15l-.1-.37,2.71-1.12Z"></path>
</svg>
