<?xml version="1.0" encoding="UTF-8"?>
<svg xmlns="http://www.w3.org/2000/svg" width="152.3" height="28">
  <path d="M52.56 17.28a19 19 0 00-1.46-1.6L40.4 5.4V23h2.83V12.04a13.17 13.17 0 001.25 1.4l10.9 10.47V6.3h-2.82zm39.27-2.58a6.58 6.58 0 00-1.76-.87c-.62-.2-1.26-.39-1.92-.54s-1.3-.3-1.9-.42a9.5 9.5 0 01-1.6-.47 2.95 2.95 0 01-1.05-.67 1.34 1.34 0 01-.34-.97 2.29 2.29 0 01.25-1.15 2.04 2.04 0 01.7-.72 3.24 3.24 0 011.04-.41 6.25 6.25 0 011.27-.13 4.23 4.23 0 012.54.72 3.05 3.05 0 011.1 2.27l.04.33h2.74l-.02-.37a6.1 6.1 0 00-.54-2.45A4.86 4.86 0 0091 7.12a5.62 5.62 0 00-2-1 9.16 9.16 0 00-4.66 0 6.35 6.35 0 00-2 .9 4.75 4.75 0 00-1.42 1.6 4.66 4.66 0 00-.55 2.3 3.72 3.72 0 001.79 3.37 7.25 7.25 0 001.75.79c.62.18 1.26.35 1.92.5l1.89.42a8.33 8.33 0 011.6.5 2.91 2.91 0 011.04.77 1.7 1.7 0 01.36 1.12 2.13 2.13 0 01-1.13 2.04 4 4 0 01-1.21.42 7.08 7.08 0 01-3.07-.08 4.04 4.04 0 01-1.39-.65 3.17 3.17 0 01-1.29-2.68v-.36h-2.76v.36a6.07 6.07 0 00.57 2.71 5.25 5.25 0 001.56 1.9 6.75 6.75 0 002.24 1.1 9.84 9.84 0 002.67.35 10.23 10.23 0 002.31-.27 6.8 6.8 0 002.14-.9 5.13 5.13 0 001.6-1.6 4.97 4.97 0 00.14-4.59 4.32 4.32 0 00-1.28-1.43zm18.33 1.7c0 2.85-1.27 4.24-3.88 4.24s-3.87-1.39-3.87-4.24V6.3H99.4v10.35c0 4.5 2.32 6.79 6.88 6.79 4.58 0 6.9-2.29 6.9-6.8V6.3h-3.02zm22.1.88a19.37 19.37 0 00-1.46-1.6L120.1 5.4V23h2.83V12.04a13.13 13.13 0 001.25 1.4l10.9 10.47V6.3h-2.82zm9.87-10.98h3.03V23h-3.03z" fill="#435663"></path>
  <path d="M68.14 5.4L59.94 23h3.2l1.9-4.2h6.23l1.85 4.2h3.22zm-2.24 11l1.67-3.73a12.59 12.59 0 00.6-1.85 15.65 15.65 0 00.61 1.85l1.67 3.72z" fill="#3f505d"></path>
  <path d="M28.75 18.43l-.06-.05-.06.05-.75.48-.1.05.07.09a2.36 2.36 0 01.56 1.43 2.43 2.43 0 01-.84 1.63c-1.62 1.63-5.75 3.37-12.5 3.37-9.13 0-13.3-2.93-13.33-5A2.21 2.21 0 012.48 19l.09-.1-.1-.05c-.32-.19-.62-.38-.9-.58l-.06-.05-.06.05A3.85 3.85 0 000 21.23C0 25.73 9.42 28 14.7 28c4.01 0 15.46-1.24 15.46-6.77a3.68 3.68 0 00-1.41-2.8zM7.28 15.4l-1.24.27 1.22.35c.35.1.7.2 1.07.28l.08.02.07-.02a30.27 30.27 0 016.6-.67 33.5 33.5 0 016.71.61l.07.02.07-.02c.26-.06.5-.12.73-.2l1.22-.34-1.24-.28a37.14 37.14 0 00-7.56-.86 39.22 39.22 0 00-7.8.83zm7.42-2.34c4 0 15.45-1.25 15.45-6.78 0-2.12-2.03-3.85-5.87-4.99A35.47 35.47 0 0015.08 0C9.86 0 0 1.31 0 6.3c0 4.5 9.42 6.77 14.7 6.77zm13.7-7.52a2.43 2.43 0 01-.84 1.63c-1.62 1.63-5.75 3.37-12.5 3.37-9.13 0-13.3-2.93-13.33-5a2.1 2.1 0 01.72-1.43C4.02 2.5 8.16.8 15.07.8c9.14 0 13.33 2.45 13.34 4.73z" fill="#57a745"></path>
  <path d="M7.28 7.54l-1.24.28 1.22.35c.35.1.71.2 1.07.28l.08.02.07-.02a30.26 30.26 0 016.6-.67 33.52 33.52 0 016.71.61l.07.02.07-.02c.26-.06.5-.13.73-.2l1.22-.34-1.24-.28a37.15 37.15 0 00-7.56-.86 39.22 39.22 0 00-7.8.83zm7.42 13.37c4 0 15.45-1.24 15.45-6.77a3.68 3.68 0 00-1.4-2.8l-.06-.05-.06.04-.75.49-.1.05.07.09a2.36 2.36 0 01.56 1.42 2.42 2.42 0 01-.84 1.63c-1.62 1.64-5.75 3.38-12.5 3.38-9.13 0-13.3-2.93-13.33-5a2.22 2.22 0 01.74-1.49l.09-.09-.1-.06c-.32-.18-.62-.38-.9-.58l-.07-.04-.05.05a3.85 3.85 0 00-1.46 2.95c.01 4.52 9.43 6.78 14.7 6.78z" fill="#57a745"></path>
  <path d="M152.3 21.05a2 2 0 01-.15.8 1.86 1.86 0 01-.42.62 1.88 1.88 0 01-.61.4 1.91 1.91 0 01-.73.14 1.98 1.98 0 01-.77-.15 1.82 1.82 0 01-.6-.4 1.9 1.9 0 01-.4-.62 2.07 2.07 0 01-.15-.78 2 2 0 01.15-.8 1.86 1.86 0 011.03-1.01 1.95 1.95 0 01.74-.14 1.93 1.93 0 01.73.14 1.9 1.9 0 01.6.4 1.87 1.87 0 01.42.61 2 2 0 01.16.8zm-.42 0a1.8 1.8 0 00-.11-.65 1.54 1.54 0 00-.32-.5 1.43 1.43 0 00-1.06-.46 1.49 1.49 0 00-.6.12 1.44 1.44 0 00-.47.33 1.53 1.53 0 00-.32.51 1.8 1.8 0 00-.11.66 1.85 1.85 0 00.1.62 1.53 1.53 0 00.3.51 1.42 1.42 0 00.47.35 1.56 1.56 0 001.21 0 1.43 1.43 0 00.48-.32 1.55 1.55 0 00.31-.51 1.8 1.8 0 00.12-.66zM150 22.18h-.35v-2.16h.82a1 1 0 01.59.15.55.55 0 01.2.47.53.53 0 01-.16.43.73.73 0 01-.4.16l.6.95h-.4l-.56-.92H150zm.4-1.22l.2-.01a.4.4 0 00.15-.05.3.3 0 00.11-.1.34.34 0 00.05-.18.24.24 0 00-.05-.16.3.3 0 00-.11-.09.5.5 0 00-.15-.03l-.16-.01H150v.63z" fill="#3f505d"></path>
</svg>
