<?xml version="1.0" encoding="UTF-8"?>
<!-- Generator: Adobe Illustrator 23.0.3, SVG Export Plug-In . SVG Version: 6.00 Build 0)  -->
<svg xmlns="http://www.w3.org/2000/svg" xmlns:xlink="http://www.w3.org/1999/xlink" version="1.1" id="Layer_1" x="0px" y="0px" viewBox="0 0 210 113" style="enable-background:new 0 0 210 113;" xml:space="preserve">
<style type="text/css">
	.st0{fill:#231F20;}
	.st1{fill:#836B2B;}
	.st2{fill-rule:evenodd;clip-rule:evenodd;fill:#737573;}
	.st3{fill-rule:evenodd;clip-rule:evenodd;fill:#2DA0D8;}
	.st4{fill-rule:evenodd;clip-rule:evenodd;fill:#EE5227;}
	.st5{fill-rule:evenodd;clip-rule:evenodd;fill:#7FBD42;}
	.st6{fill-rule:evenodd;clip-rule:evenodd;fill:#FAB613;}
</style>
<g>
	<polygon class="st0" points="95.2,25.4 94.9,88.6 94.4,88.6 94.7,25.4  "></polygon>
	<path class="st1" d="M105.7,25.4l2.4,6.3v0.1h-0.9l-0.7-1.8h-2.7l-0.7,1.8h-0.9v-0.1l2.4-6.3L105.7,25.4L105.7,25.4z M104.1,29.2   h2.1l-1.1-2.9L104.1,29.2L104.1,29.2z"></path>
	<path class="st1" d="M111,27.3c0.4,0,0.7,0.1,1,0.3s0.5,0.5,0.6,0.8s0.2,0.7,0.2,1.1c0,0.5-0.1,0.9-0.3,1.3   c-0.2,0.4-0.5,0.6-0.8,0.8s-0.7,0.3-1.1,0.3c-0.3,0-0.6,0-0.9-0.1v1.8h-0.8v-6.1l0.8-0.1v0.4c0.2-0.1,0.5-0.2,0.7-0.3   C110.6,27.4,110.8,27.3,111,27.3L111,27.3z M110.6,31.2c0.3,0,0.5-0.1,0.7-0.2s0.4-0.3,0.5-0.6s0.2-0.6,0.2-1   c0-0.5-0.1-0.9-0.3-1.1c-0.2-0.2-0.5-0.4-0.8-0.4c-0.4,0-0.7,0.1-1.1,0.3v2.7C110,31.2,110.3,31.2,110.6,31.2L110.6,31.2z"></path>
	<path class="st1" d="M116,27.3c0.4,0,0.7,0.1,1,0.3s0.5,0.5,0.6,0.8s0.2,0.7,0.2,1.1c0,0.5-0.1,0.9-0.3,1.3   c-0.2,0.4-0.5,0.6-0.8,0.8s-0.7,0.3-1.1,0.3c-0.3,0-0.6,0-0.9-0.1v1.8h-0.8v-6.1l0.8-0.1v0.4c0.2-0.1,0.5-0.2,0.7-0.3   C115.6,27.4,115.8,27.3,116,27.3L116,27.3z M115.5,31.2c0.3,0,0.5-0.1,0.7-0.2s0.4-0.3,0.5-0.6s0.2-0.6,0.2-1   c0-0.5-0.1-0.9-0.3-1.1c-0.2-0.2-0.5-0.4-0.8-0.4c-0.4,0-0.7,0.1-1.1,0.3v2.7C115,31.2,115.3,31.2,115.5,31.2L115.5,31.2z"></path>
	<polygon class="st1" points="118.8,31.8 118.8,25 119.6,24.9 119.6,31.8  "></polygon>
	<path class="st1" d="M121.4,26.6c-0.1,0-0.2,0-0.3-0.1c-0.1-0.1-0.2-0.1-0.2-0.2c-0.1-0.1-0.1-0.2-0.1-0.3c0-0.1,0-0.2,0.1-0.3   c0.1-0.1,0.1-0.2,0.2-0.2c0.1-0.1,0.2-0.1,0.3-0.1c0.1,0,0.2,0,0.3,0.1c0.1,0.1,0.2,0.1,0.2,0.2c0.1,0.1,0.1,0.2,0.1,0.3   c0,0.1,0,0.2-0.1,0.3c-0.1,0.1-0.1,0.2-0.2,0.2C121.6,26.6,121.5,26.6,121.4,26.6L121.4,26.6z M121,31.8v-4.3l0.8-0.1v4.4L121,31.8   L121,31.8z"></path>
	<path class="st1" d="M124.8,31.9c-0.6,0-1.1-0.2-1.5-0.5s-0.5-0.9-0.5-1.6c0-0.5,0.1-1,0.3-1.3c0.2-0.4,0.5-0.6,0.8-0.8   s0.7-0.2,1-0.2c0.4,0,0.9,0.1,1.3,0.4l-0.3,0.6c-0.2-0.1-0.4-0.2-0.6-0.2s-0.3-0.1-0.5-0.1c-0.4,0-0.7,0.1-0.9,0.4   c-0.2,0.3-0.3,0.7-0.3,1.2s0.1,0.9,0.3,1.1c0.2,0.2,0.5,0.3,0.9,0.3c0.2,0,0.4,0,0.6-0.1s0.4-0.2,0.6-0.3l0.3,0.6   c-0.2,0.2-0.5,0.3-0.7,0.4C125.4,31.8,125.1,31.9,124.8,31.9L124.8,31.9z"></path>
	<path class="st1" d="M129,27.3c0.5,0,0.9,0.1,1.1,0.3c0.2,0.2,0.4,0.6,0.4,1.1v3h-0.8v-0.4c-0.4,0.3-1,0.5-1.5,0.5   c-0.2,0-0.5,0-0.7-0.1s-0.3-0.2-0.5-0.4c-0.1-0.2-0.2-0.4-0.2-0.6c0-0.4,0.1-0.7,0.4-0.9s0.6-0.4,1-0.5c0.4-0.1,0.9-0.2,1.4-0.2   v-0.2c0-0.3-0.1-0.5-0.2-0.6c-0.1-0.1-0.3-0.2-0.6-0.2c-0.5,0-1,0.2-1.5,0.5l-0.4-0.6C127.6,27.6,128.3,27.3,129,27.3L129,27.3z    M127.7,30.6c0,0.2,0,0.3,0.1,0.4c0.1,0.1,0.2,0.1,0.5,0.1c0.4,0,0.9-0.1,1.3-0.4v-1c-0.6,0-1,0.1-1.4,0.3   C127.9,30.2,127.7,30.4,127.7,30.6L127.7,30.6z"></path>
	<path class="st1" d="M134.3,31.6c-0.3,0.2-0.7,0.3-1.1,0.3c-0.4,0-0.7-0.1-0.9-0.3s-0.3-0.6-0.3-1v-2.4h-0.9v-0.7h0.9v-1l0.8-0.1   v1.1h1.4l-0.1,0.7h-1.3v2.2c0,0.5,0.2,0.8,0.6,0.8c0.1,0,0.2,0,0.3,0s0.2-0.1,0.4-0.1L134.3,31.6L134.3,31.6z"></path>
	<path class="st1" d="M135.5,26.6c-0.1,0-0.2,0-0.3-0.1s-0.2-0.1-0.2-0.2c-0.1-0.1-0.1-0.2-0.1-0.3c0-0.1,0-0.2,0.1-0.3   c0.1-0.1,0.1-0.2,0.2-0.2c0.1-0.1,0.2-0.1,0.3-0.1s0.2,0,0.3,0.1s0.2,0.1,0.2,0.2c0.1,0.1,0.1,0.2,0.1,0.3c0,0.1,0,0.2-0.1,0.3   c-0.1,0.1-0.1,0.2-0.2,0.2C135.7,26.6,135.6,26.6,135.5,26.6L135.5,26.6z M135.1,31.8v-4.3l0.8-0.1v4.4L135.1,31.8L135.1,31.8z"></path>
	<path class="st1" d="M139,31.9c-0.5,0-0.8-0.1-1.1-0.3s-0.5-0.5-0.7-0.8c-0.1-0.3-0.2-0.7-0.2-1.2s0.1-1,0.3-1.3s0.5-0.6,0.8-0.7   c0.3-0.2,0.7-0.2,1.1-0.2c0.5,0,0.8,0.1,1.1,0.3s0.5,0.5,0.7,0.8c0.1,0.3,0.2,0.7,0.2,1.2s-0.1,1-0.3,1.3s-0.5,0.6-0.8,0.7   C139.8,31.8,139.4,31.9,139,31.9L139,31.9z M139.1,31.2c0.8,0,1.2-0.5,1.2-1.6c0-0.5-0.1-0.9-0.3-1.1c-0.2-0.3-0.5-0.4-0.9-0.4   c-0.5,0-0.8,0.1-1,0.4c-0.2,0.3-0.3,0.7-0.3,1.2s0.1,0.9,0.3,1.2C138.3,31,138.7,31.2,139.1,31.2L139.1,31.2z"></path>
	<path class="st1" d="M144.6,27.3c0.9,0,1.3,0.5,1.3,1.4v3h-0.8V29c0-0.2,0-0.4-0.1-0.6c0-0.1-0.1-0.2-0.2-0.3   c-0.1-0.1-0.3-0.1-0.5-0.1s-0.4,0-0.6,0.1c-0.2,0.1-0.4,0.1-0.6,0.2v3.4h-0.8v-4.2l0.8-0.1v0.4C143.6,27.5,144.1,27.3,144.6,27.3   L144.6,27.3z"></path>
	<path class="st1" d="M151.5,25.4c1.1,0,1.9,0.3,2.4,0.8c0.6,0.5,0.8,1.3,0.8,2.4c0,0.7-0.1,1.3-0.4,1.8c-0.3,0.5-0.7,0.8-1.2,1.1   c-0.5,0.2-1.1,0.3-1.8,0.3h-1.7v-6.4L151.5,25.4L151.5,25.4z M151.2,31c0.6,0,1-0.1,1.4-0.2c0.4-0.1,0.7-0.4,0.9-0.7   c0.2-0.4,0.3-0.8,0.3-1.5c0-0.8-0.2-1.4-0.6-1.8c-0.4-0.4-1-0.6-1.8-0.6h-1V31H151.2L151.2,31z"></path>
	<path class="st1" d="M159.4,29.8h-3c0,0.5,0.1,0.8,0.4,1.1c0.2,0.2,0.5,0.3,0.9,0.3c0.3,0,0.5,0,0.7-0.1s0.4-0.2,0.6-0.3l0.3,0.6   c-0.5,0.3-1.1,0.5-1.7,0.5c-0.6,0-1.1-0.2-1.5-0.5s-0.6-0.9-0.6-1.7c0-0.4,0.1-0.8,0.2-1.2c0.2-0.4,0.4-0.6,0.7-0.8   s0.7-0.3,1.1-0.3c0.4,0,0.7,0.1,1,0.2c0.3,0.2,0.5,0.4,0.6,0.6c0.1,0.3,0.2,0.6,0.2,0.9L159.4,29.8L159.4,29.8z M157.6,28   c-0.3,0-0.6,0.1-0.8,0.3s-0.3,0.5-0.4,0.8h2.1l0,0c0-0.4-0.1-0.6-0.2-0.8C158.2,28.1,157.9,28,157.6,28L157.6,28z"></path>
	<path class="st1" d="M163.9,27.5L163.9,27.5l-1.7,4.3h-0.8l-1.7-4.2v-0.1h0.9l1,2.8c0,0.1,0.1,0.2,0.2,0.5l0.1,0.2   c0.1-0.2,0.1-0.4,0.2-0.6l1-2.8h0.8V27.5z"></path>
	<path class="st1" d="M167.9,29.8h-3c0,0.5,0.1,0.8,0.4,1.1c0.2,0.2,0.5,0.3,0.9,0.3c0.3,0,0.5,0,0.7-0.1s0.4-0.2,0.6-0.3l0.3,0.6   c-0.5,0.3-1.1,0.5-1.7,0.5c-0.6,0-1.1-0.2-1.5-0.5s-0.6-0.9-0.6-1.7c0-0.4,0.1-0.8,0.2-1.2c0.2-0.4,0.4-0.6,0.7-0.8   s0.7-0.3,1.1-0.3c0.4,0,0.7,0.1,1,0.2c0.3,0.2,0.5,0.4,0.6,0.6c0.1,0.3,0.2,0.6,0.2,0.9L167.9,29.8L167.9,29.8z M166.2,28   c-0.3,0-0.6,0.1-0.8,0.3s-0.3,0.5-0.4,0.8h2.1l0,0c0-0.4-0.1-0.6-0.2-0.8C166.7,28.1,166.5,28,166.2,28L166.2,28z"></path>
	<polygon class="st1" points="169,31.8 169,25 169.8,24.9 169.8,31.8  "></polygon>
	<path class="st1" d="M172.9,31.9c-0.5,0-0.8-0.1-1.1-0.3s-0.5-0.5-0.7-0.8c-0.1-0.3-0.2-0.7-0.2-1.2s0.1-1,0.3-1.3s0.5-0.6,0.8-0.7   c0.3-0.2,0.7-0.2,1.1-0.2c0.5,0,0.8,0.1,1.1,0.3s0.5,0.5,0.7,0.8c0.1,0.3,0.2,0.7,0.2,1.2s-0.1,1-0.3,1.3s-0.5,0.6-0.8,0.7   C173.7,31.8,173.3,31.9,172.9,31.9L172.9,31.9z M172.9,31.2c0.8,0,1.2-0.5,1.2-1.6c0-0.5-0.1-0.9-0.3-1.1c-0.2-0.3-0.5-0.4-0.9-0.4   c-0.5,0-0.8,0.1-1,0.4c-0.2,0.3-0.3,0.7-0.3,1.2s0.1,0.9,0.3,1.2C172.2,31,172.5,31.2,172.9,31.2L172.9,31.2z"></path>
	<path class="st1" d="M178.2,27.3c0.4,0,0.7,0.1,1,0.3s0.5,0.5,0.6,0.8s0.2,0.7,0.2,1.1c0,0.5-0.1,0.9-0.3,1.3   c-0.2,0.4-0.5,0.6-0.8,0.8s-0.7,0.3-1.1,0.3c-0.3,0-0.6,0-0.9-0.1v1.8h-0.8v-6.1l0.8-0.1v0.4c0.2-0.1,0.5-0.2,0.7-0.3   C177.8,27.4,178,27.3,178.2,27.3L178.2,27.3z M177.8,31.2c0.3,0,0.5-0.1,0.7-0.2s0.4-0.3,0.5-0.6s0.2-0.6,0.2-1   c0-0.5-0.1-0.9-0.3-1.1c-0.2-0.2-0.5-0.4-0.8-0.4c-0.4,0-0.7,0.1-1.1,0.3v2.7C177.2,31.2,177.5,31.2,177.8,31.2L177.8,31.2z"></path>
	<path class="st1" d="M186,27.3c0.4,0,0.7,0.1,0.9,0.3s0.3,0.5,0.3,1v3.1h-0.8V29c0-0.2,0-0.4-0.1-0.6c0-0.1-0.1-0.2-0.2-0.3   c-0.1-0.1-0.2-0.1-0.4-0.1s-0.4,0-0.6,0.1c-0.2,0.1-0.4,0.1-0.6,0.2c0,0.1,0,0.2,0,0.3v3.1h-0.8V29c0-0.2,0-0.4-0.1-0.6   c0-0.1-0.1-0.2-0.2-0.3c-0.1-0.1-0.2-0.1-0.4-0.1s-0.4,0-0.6,0.1c-0.2,0.1-0.4,0.1-0.6,0.2v3.4H181v-4.2l0.8-0.1v0.4   c0.5-0.3,1-0.4,1.5-0.4s0.8,0.2,1,0.5c0.2-0.1,0.5-0.3,0.8-0.3C185.4,27.4,185.7,27.3,186,27.3L186,27.3z"></path>
	<path class="st1" d="M192,29.8h-3c0,0.5,0.1,0.8,0.4,1.1c0.2,0.2,0.5,0.3,0.9,0.3c0.3,0,0.5,0,0.7-0.1s0.4-0.2,0.6-0.3l0.3,0.6   c-0.5,0.3-1.1,0.5-1.7,0.5c-0.6,0-1.1-0.2-1.5-0.5s-0.6-0.9-0.6-1.7c0-0.4,0.1-0.8,0.2-1.2c0.2-0.4,0.4-0.6,0.7-0.8   s0.7-0.3,1.1-0.3c0.4,0,0.7,0.1,1,0.2c0.3,0.2,0.5,0.4,0.6,0.6c0.1,0.3,0.2,0.6,0.2,0.9L192,29.8L192,29.8z M190.2,28   c-0.3,0-0.6,0.1-0.8,0.3s-0.3,0.5-0.4,0.8h2.1l0,0c0-0.4-0.1-0.6-0.2-0.8C190.7,28.1,190.5,28,190.2,28L190.2,28z"></path>
	<path class="st1" d="M195.4,27.3c0.9,0,1.3,0.5,1.3,1.4v3h-0.8V29c0-0.2,0-0.4-0.1-0.6c0-0.1-0.1-0.2-0.2-0.3   c-0.1-0.1-0.3-0.1-0.5-0.1s-0.4,0-0.6,0.1c-0.2,0.1-0.4,0.1-0.6,0.2v3.4h-0.8v-4.2l0.8-0.1v0.4C194.4,27.5,194.9,27.3,195.4,27.3   L195.4,27.3z"></path>
	<path class="st1" d="M200.5,31.6c-0.3,0.2-0.7,0.3-1.1,0.3c-0.4,0-0.7-0.1-0.9-0.3s-0.3-0.6-0.3-1v-2.4h-0.9v-0.7h0.9v-1l0.8-0.1   v1.1h1.4l-0.1,0.7H199v2.2c0,0.5,0.2,0.8,0.6,0.8c0.1,0,0.2,0,0.3,0s0.2-0.1,0.4-0.1L200.5,31.6L200.5,31.6z"></path>
	<path class="st1" d="M105.3,43.1c-0.6,0-1.2-0.1-1.6-0.4c-0.4-0.3-0.8-0.6-1-1.1s-0.3-1.1-0.3-1.7c0-0.8,0.1-1.4,0.4-1.9   s0.6-0.9,1.1-1.1c0.4-0.2,0.9-0.3,1.4-0.3c0.4,0,0.8,0,1.1,0.1c0.3,0.1,0.7,0.2,1,0.4l-0.4,0.7c-0.5-0.3-1-0.5-1.6-0.5   c-0.7,0-1.2,0.2-1.5,0.7c-0.3,0.4-0.5,1-0.5,1.8s0.2,1.4,0.5,1.9s0.8,0.7,1.5,0.7c0.3,0,0.6,0,0.9-0.1s0.5-0.2,0.8-0.4l0.4,0.7   c-0.3,0.2-0.7,0.4-1,0.5C106,43.1,105.7,43.1,105.3,43.1L105.3,43.1z"></path>
	<polygon class="st1" points="108.2,43 108.2,36.2 109,36.1 109,43  "></polygon>
	<path class="st1" d="M112.1,43.1c-0.5,0-0.8-0.1-1.1-0.3c-0.3-0.2-0.5-0.5-0.7-0.8c-0.1-0.3-0.2-0.7-0.2-1.2s0.1-1,0.3-1.3   c0.2-0.3,0.5-0.6,0.8-0.7c0.3-0.2,0.7-0.2,1.1-0.2c0.5,0,0.8,0.1,1.1,0.3c0.3,0.2,0.5,0.5,0.7,0.8c0.1,0.3,0.2,0.7,0.2,1.2   s-0.1,1-0.3,1.3c-0.2,0.3-0.5,0.6-0.8,0.7C112.9,43,112.5,43.1,112.1,43.1L112.1,43.1z M112.2,42.4c0.8,0,1.2-0.5,1.2-1.6   c0-0.5-0.1-0.9-0.3-1.1c-0.2-0.3-0.5-0.4-0.9-0.4c-0.5,0-0.8,0.1-1,0.4c-0.2,0.3-0.3,0.7-0.3,1.2s0.1,0.9,0.3,1.2   C111.4,42.3,111.7,42.4,112.2,42.4L112.2,42.4z"></path>
	<path class="st1" d="M118.9,38.6V43h-0.7v-0.3c-0.5,0.3-1,0.4-1.5,0.4c-0.4,0-0.7-0.1-1-0.3c-0.2-0.2-0.4-0.6-0.4-1v-3l0.8-0.1v2.8   c0,0.2,0,0.4,0.1,0.5s0.1,0.2,0.3,0.3c0.1,0.1,0.3,0.1,0.5,0.1c0.3,0,0.7-0.1,1.2-0.4v-3.3L118.9,38.6L118.9,38.6z"></path>
	<path class="st1" d="M123.8,36.1v6.8H123v-0.3c-0.2,0.1-0.5,0.2-0.7,0.3s-0.5,0.1-0.7,0.1c-0.4,0-0.7-0.1-1-0.3s-0.5-0.4-0.6-0.7   s-0.2-0.7-0.2-1.1c0-0.5,0.1-0.9,0.3-1.3c0.2-0.4,0.5-0.6,0.8-0.8s0.7-0.3,1.1-0.3c0.3,0,0.6,0,0.9,0.1v-2.5H123.8L123.8,36.1z    M120.8,40.9c0,0.5,0.1,0.9,0.3,1.1c0.2,0.2,0.5,0.4,0.8,0.4c0.4,0,0.7-0.1,1.1-0.3v-2.7c-0.3-0.1-0.6-0.1-0.9-0.1   s-0.5,0.1-0.7,0.2c-0.2,0.1-0.4,0.3-0.5,0.6C120.8,40.2,120.8,40.6,120.8,40.9L120.8,40.9z"></path>
	<path class="st1" d="M129.7,36.6c0.5,0,0.9,0.1,1.3,0.2c0.3,0.2,0.6,0.4,0.8,0.7s0.3,0.6,0.3,1s-0.1,0.7-0.3,1s-0.4,0.6-0.8,0.7   c-0.4,0.2-0.8,0.3-1.3,0.3h-1.2v2.3h-0.9v-6.4h2.1V36.6z M129.6,39.9c0.5,0,0.9-0.1,1.1-0.3s0.4-0.5,0.4-0.9s-0.1-0.7-0.4-0.9   c-0.2-0.2-0.6-0.3-1.1-0.3h-1.1V40L129.6,39.9L129.6,39.9z"></path>
	<polygon class="st1" points="133,43 133,36.2 133.8,36.1 133.8,43  "></polygon>
	<path class="st1" d="M136.9,38.6c0.5,0,0.9,0.1,1.1,0.3c0.2,0.2,0.4,0.6,0.4,1.1v3h-0.8v-0.4c-0.4,0.3-1,0.5-1.5,0.5   c-0.2,0-0.5,0-0.7-0.1s-0.3-0.2-0.5-0.4c-0.1-0.2-0.2-0.4-0.2-0.6c0-0.4,0.1-0.7,0.4-0.9c0.3-0.2,0.6-0.4,1-0.5s0.9-0.2,1.4-0.2   v-0.2c0-0.3-0.1-0.5-0.2-0.6c-0.1-0.1-0.3-0.2-0.6-0.2c-0.5,0-1,0.2-1.5,0.5l-0.4-0.6C135.6,38.8,136.2,38.6,136.9,38.6L136.9,38.6   z M135.7,41.9c0,0.2,0.1,0.3,0.2,0.4c0.1,0.1,0.2,0.1,0.5,0.1c0.4,0,0.9-0.1,1.3-0.4v-1c-0.6,0-1,0.1-1.4,0.3   C135.8,41.4,135.7,41.6,135.7,41.9L135.7,41.9z"></path>
	<path class="st1" d="M142.2,42.8c-0.3,0.2-0.7,0.3-1.1,0.3c-0.4,0-0.7-0.1-0.9-0.3s-0.3-0.6-0.3-1v-2.4H139v-0.7h0.9v-1l0.8-0.1   v1.1h1.4l-0.1,0.7h-1.3v2.2c0,0.5,0.2,0.8,0.6,0.8c0.1,0,0.2,0,0.3,0s0.2-0.1,0.4-0.1L142.2,42.8L142.2,42.8z"></path>
	<path class="st1" d="M144.8,36.9c-0.2,0-0.4,0.1-0.5,0.2c-0.1,0.2-0.2,0.4-0.2,0.7v0.9h1.3l-0.1,0.7h-1.2V43h-0.8v-3.6h-0.8v-0.7   h0.8v-0.9c0-0.3,0.1-0.6,0.2-0.9c0.1-0.2,0.3-0.4,0.5-0.6c0.2-0.1,0.5-0.2,0.8-0.2c0.4,0,0.7,0.1,1,0.2l-0.2,0.7   C145.3,36.9,145,36.9,144.8,36.9L144.8,36.9z"></path>
	<path class="st1" d="M147.6,43.1c-0.5,0-0.8-0.1-1.1-0.3s-0.5-0.5-0.7-0.8c-0.1-0.3-0.2-0.7-0.2-1.2s0.1-1,0.3-1.3s0.5-0.6,0.8-0.7   c0.3-0.2,0.7-0.2,1.1-0.2c0.5,0,0.8,0.1,1.1,0.3s0.5,0.5,0.7,0.8c0.1,0.3,0.2,0.7,0.2,1.2s-0.1,1-0.3,1.3s-0.5,0.6-0.8,0.7   C148.4,43,148,43.1,147.6,43.1L147.6,43.1z M147.7,42.4c0.8,0,1.2-0.5,1.2-1.6c0-0.5-0.1-0.9-0.3-1.1c-0.2-0.3-0.5-0.4-0.9-0.4   c-0.5,0-0.8,0.1-1,0.4c-0.2,0.3-0.3,0.7-0.3,1.2s0.1,0.9,0.3,1.2C147,42.3,147.3,42.4,147.7,42.4L147.7,42.4z"></path>
	<path class="st1" d="M152.9,38.6c0.1,0,0.2,0,0.3,0s0.2,0,0.3,0.1l-0.2,0.9c-0.2-0.1-0.4-0.1-0.6-0.1c-0.2,0-0.4,0-0.6,0.1   c-0.2,0.1-0.3,0.3-0.5,0.5V43h-0.8v-4.3l0.8-0.1v0.6c0.2-0.2,0.3-0.4,0.6-0.5C152.4,38.6,152.7,38.6,152.9,38.6L152.9,38.6z"></path>
	<path class="st1" d="M159.3,38.6c0.4,0,0.7,0.1,0.9,0.3s0.3,0.5,0.3,1V43h-0.8v-2.7c0-0.2,0-0.4-0.1-0.6c0-0.1-0.1-0.2-0.2-0.3   c-0.1-0.1-0.2-0.1-0.4-0.1s-0.4,0-0.6,0.1c-0.2,0.1-0.4,0.1-0.6,0.2c0,0.1,0,0.2,0,0.3V43H157v-2.7c0-0.2,0-0.4-0.1-0.6   c0-0.1-0.1-0.2-0.2-0.3c-0.1-0.1-0.2-0.1-0.4-0.1s-0.4,0-0.6,0.1c-0.2,0.1-0.4,0.1-0.6,0.2V43h-0.8v-4.3l0.8-0.1V39   c0.5-0.3,1-0.4,1.5-0.4s0.8,0.2,1,0.5c0.2-0.1,0.5-0.3,0.8-0.3C158.7,38.6,159,38.6,159.3,38.6L159.3,38.6z"></path>
	<path class="st1" d="M124.9,81.3c0.5,0,0.9,0.1,1.3,0.2c0.3,0.2,0.6,0.4,0.8,0.7c0.2,0.3,0.3,0.6,0.3,1s-0.1,0.7-0.3,1   c-0.2,0.3-0.4,0.6-0.8,0.7c-0.4,0.2-0.8,0.3-1.3,0.3h-1.2v2.3h-0.9v-6.4h2.1V81.3z M124.8,84.6c0.5,0,0.9-0.1,1.1-0.3   c0.2-0.2,0.4-0.5,0.4-0.9s-0.1-0.7-0.4-0.9c-0.2-0.2-0.6-0.3-1.1-0.3h-1.1v2.5L124.8,84.6L124.8,84.6z"></path>
	<polygon class="st1" points="128.2,87.7 128.2,80.9 129,80.8 129,87.7  "></polygon>
	<path class="st1" d="M132.1,83.3c0.5,0,0.9,0.1,1.1,0.3c0.2,0.2,0.4,0.6,0.4,1.1v3h-0.8v-0.4c-0.4,0.3-1,0.5-1.5,0.5   c-0.2,0-0.5,0-0.7-0.1s-0.3-0.2-0.5-0.4c-0.1-0.2-0.2-0.4-0.2-0.6c0-0.4,0.1-0.7,0.4-0.9c0.3-0.2,0.6-0.4,1-0.5s0.9-0.2,1.4-0.2   v-0.2c0-0.3-0.1-0.5-0.2-0.6c-0.1-0.1-0.3-0.2-0.6-0.2c-0.5,0-1,0.2-1.5,0.5L130,84C130.8,83.5,131.4,83.3,132.1,83.3L132.1,83.3z    M130.9,86.6c0,0.2,0.1,0.3,0.2,0.4c0.1,0.1,0.2,0.1,0.5,0.1c0.4,0,0.9-0.1,1.3-0.4v-1c-0.6,0-1,0.1-1.4,0.3   C131,86.1,130.9,86.3,130.9,86.6L130.9,86.6z"></path>
	<path class="st1" d="M137.4,87.5c-0.3,0.2-0.7,0.3-1.1,0.3c-0.4,0-0.7-0.1-0.9-0.3c-0.2-0.2-0.3-0.6-0.3-1v-2.4h-0.9v-0.7h0.9v-1   l0.8-0.1v1.1h1.4l-0.1,0.7h-1.3v2.2c0,0.5,0.2,0.8,0.6,0.8c0.1,0,0.2,0,0.3,0s0.2-0.1,0.4-0.1L137.4,87.5L137.4,87.5z"></path>
	<path class="st1" d="M140,81.6c-0.2,0-0.4,0.1-0.5,0.2c-0.1,0.2-0.2,0.4-0.2,0.7v0.9h1.3l-0.1,0.7h-1.2v3.6h-0.8v-3.6h-0.8v-0.7   h0.8v-0.9c0-0.3,0.1-0.6,0.2-0.9c0.1-0.2,0.3-0.4,0.5-0.6c0.2-0.1,0.5-0.2,0.8-0.2c0.4,0,0.7,0.1,1,0.2l-0.2,0.7   C140.5,81.6,140.2,81.6,140,81.6L140,81.6z"></path>
	<path class="st1" d="M142.8,87.8c-0.5,0-0.8-0.1-1.1-0.3c-0.3-0.2-0.5-0.5-0.7-0.8c-0.1-0.3-0.2-0.7-0.2-1.2s0.1-1,0.3-1.3   c0.2-0.3,0.5-0.6,0.8-0.7c0.3-0.2,0.7-0.2,1.1-0.2c0.5,0,0.8,0.1,1.1,0.3c0.3,0.2,0.5,0.5,0.7,0.8c0.1,0.3,0.2,0.7,0.2,1.2   s-0.1,1-0.3,1.3c-0.2,0.3-0.5,0.6-0.8,0.7C143.6,87.7,143.2,87.8,142.8,87.8L142.8,87.8z M142.9,87.1c0.8,0,1.2-0.5,1.2-1.6   c0-0.5-0.1-0.9-0.3-1.1c-0.2-0.3-0.5-0.4-0.9-0.4c-0.5,0-0.8,0.1-1,0.4s-0.3,0.7-0.3,1.2s0.1,0.9,0.3,1.2   C142.2,87,142.5,87.1,142.9,87.1L142.9,87.1z"></path>
	<path class="st1" d="M148.1,83.3c0.1,0,0.2,0,0.3,0s0.2,0,0.3,0.1l-0.2,0.9c-0.2-0.1-0.4-0.1-0.6-0.1c-0.2,0-0.4,0-0.6,0.1   c-0.2,0.1-0.3,0.3-0.5,0.5v2.9H146v-4.3l0.8-0.1v0.6c0.2-0.2,0.3-0.4,0.6-0.5C147.6,83.3,147.9,83.3,148.1,83.3L148.1,83.3z"></path>
	<path class="st1" d="M154.5,83.3c0.4,0,0.7,0.1,0.9,0.3c0.2,0.2,0.3,0.5,0.3,1v3.1h-0.8V85c0-0.2,0-0.4-0.1-0.6   c0-0.1-0.1-0.2-0.2-0.3c-0.1-0.1-0.2-0.1-0.4-0.1s-0.4,0-0.6,0.1c-0.2,0.1-0.4,0.1-0.6,0.2c0,0.1,0,0.2,0,0.3v3.1h-0.8V85   c0-0.2,0-0.4-0.1-0.6c0-0.1-0.1-0.2-0.2-0.3c-0.1-0.1-0.2-0.1-0.4-0.1s-0.4,0-0.6,0.1c-0.2,0.1-0.4,0.1-0.6,0.2v3.4h-0.8v-4.3   l0.8-0.1v0.4c0.5-0.3,1-0.4,1.5-0.4s0.8,0.2,1,0.5c0.2-0.1,0.5-0.3,0.8-0.3C153.9,83.3,154.2,83.3,154.5,83.3L154.5,83.3z"></path>
	<path class="st1" d="M104.3,47.6c1.1,0,1.9,0.3,2.4,0.8c0.6,0.5,0.8,1.3,0.8,2.4c0,0.7-0.1,1.3-0.4,1.8s-0.7,0.8-1.2,1.1   c-0.5,0.2-1.1,0.3-1.8,0.3h-1.7v-6.4L104.3,47.6L104.3,47.6z M104,53.2c0.6,0,1-0.1,1.4-0.2c0.4-0.1,0.7-0.4,0.9-0.7   c0.2-0.4,0.3-0.8,0.3-1.5c0-0.8-0.2-1.4-0.6-1.8c-0.4-0.4-1-0.6-1.8-0.6h-1v4.8H104L104,53.2z"></path>
	<path class="st1" d="M110.4,49.6c0.5,0,0.9,0.1,1.1,0.3s0.4,0.6,0.4,1.1v3h-0.8v-0.4c-0.4,0.3-1,0.5-1.5,0.5c-0.2,0-0.5,0-0.7-0.1   s-0.3-0.2-0.4-0.4s-0.2-0.4-0.2-0.6c0-0.4,0.1-0.7,0.4-0.9s0.6-0.4,1-0.5s0.9-0.2,1.4-0.2v-0.2c0-0.3-0.1-0.5-0.2-0.6   s-0.3-0.2-0.6-0.2c-0.5,0-1,0.2-1.5,0.5l-0.4-0.6C109.1,49.8,109.7,49.6,110.4,49.6L110.4,49.6z M109.2,52.9c0,0.2,0.1,0.3,0.2,0.4   c0.1,0.1,0.2,0.1,0.5,0.1c0.4,0,0.9-0.1,1.3-0.4v-1c-0.6,0-1,0.1-1.4,0.3C109.3,52.4,109.2,52.6,109.2,52.9L109.2,52.9z"></path>
	<path class="st1" d="M115.7,53.8c-0.3,0.2-0.7,0.3-1.1,0.3s-0.7-0.1-0.9-0.3c-0.2-0.2-0.3-0.6-0.3-1v-2.4h-0.9v-0.7h0.9v-1l0.8-0.1   v1.1h1.4l-0.1,0.7h-1.3v2.2c0,0.5,0.2,0.8,0.6,0.8c0.1,0,0.2,0,0.3,0c0.1,0,0.2-0.1,0.4-0.1L115.7,53.8L115.7,53.8z"></path>
	<path class="st1" d="M118.3,49.6c0.5,0,0.9,0.1,1.1,0.3s0.4,0.6,0.4,1.1v3H119v-0.4c-0.4,0.3-1,0.5-1.5,0.5c-0.2,0-0.5,0-0.7-0.1   s-0.3-0.2-0.5-0.4c-0.1-0.2-0.2-0.4-0.2-0.6c0-0.4,0.1-0.7,0.4-0.9s0.6-0.4,1-0.5s0.9-0.2,1.4-0.2v-0.2c0-0.3-0.1-0.5-0.2-0.6   s-0.3-0.2-0.6-0.2c-0.5,0-1,0.2-1.5,0.5l-0.4-0.6C117,49.8,117.6,49.6,118.3,49.6L118.3,49.6z M117,52.9c0,0.2,0.1,0.3,0.2,0.4   c0.1,0.1,0.2,0.1,0.5,0.1c0.4,0,0.9-0.1,1.3-0.4v-1c-0.6,0-1,0.1-1.4,0.3C117.2,52.4,117,52.6,117,52.9L117,52.9z"></path>
	<path class="st1" d="M104.3,81.2c1.1,0,1.9,0.3,2.4,0.8c0.6,0.5,0.8,1.3,0.8,2.4c0,0.7-0.1,1.3-0.4,1.8s-0.7,0.8-1.2,1.1   c-0.5,0.2-1.1,0.3-1.8,0.3h-1.7v-6.4L104.3,81.2L104.3,81.2z M104,86.8c0.6,0,1-0.1,1.4-0.2s0.7-0.4,0.9-0.7   c0.2-0.4,0.3-0.8,0.3-1.5c0-0.8-0.2-1.4-0.6-1.8c-0.4-0.4-1-0.6-1.8-0.6h-1v4.8H104L104,86.8z"></path>
	<path class="st1" d="M110.4,83.2c0.5,0,0.9,0.1,1.1,0.3c0.2,0.2,0.4,0.6,0.4,1.1v3h-0.8v-0.4c-0.4,0.3-1,0.5-1.5,0.5   c-0.2,0-0.5,0-0.7-0.1s-0.3-0.2-0.4-0.4c-0.1-0.2-0.2-0.4-0.2-0.6c0-0.4,0.1-0.7,0.4-0.9c0.3-0.2,0.6-0.4,1-0.5s0.9-0.2,1.4-0.2   v-0.2c0-0.3-0.1-0.5-0.2-0.6s-0.3-0.2-0.6-0.2c-0.5,0-1,0.2-1.5,0.5l-0.4-0.6C109.1,83.4,109.7,83.2,110.4,83.2L110.4,83.2z    M109.2,86.5c0,0.2,0.1,0.3,0.2,0.4c0.1,0.1,0.2,0.1,0.5,0.1c0.4,0,0.9-0.1,1.3-0.4v-1c-0.6,0-1,0.1-1.4,0.3   C109.3,86,109.2,86.2,109.2,86.5L109.2,86.5z"></path>
	<path class="st1" d="M115.7,87.4c-0.3,0.2-0.7,0.3-1.1,0.3s-0.7-0.1-0.9-0.3c-0.2-0.2-0.3-0.6-0.3-1V84h-0.9v-0.7h0.9v-1l0.8-0.1   v1.1h1.4l-0.1,0.7h-1.3v2.2c0,0.5,0.2,0.8,0.6,0.8c0.1,0,0.2,0,0.3,0c0.1,0,0.2-0.1,0.4-0.1L115.7,87.4L115.7,87.4z"></path>
	<path class="st1" d="M118.3,83.2c0.5,0,0.9,0.1,1.1,0.3c0.2,0.2,0.4,0.6,0.4,1.1v3H119v-0.4c-0.4,0.3-1,0.5-1.5,0.5   c-0.2,0-0.5,0-0.7-0.1s-0.3-0.2-0.5-0.4c-0.1-0.2-0.2-0.4-0.2-0.6c0-0.4,0.1-0.7,0.4-0.9c0.3-0.2,0.6-0.4,1-0.5s0.9-0.2,1.4-0.2   v-0.2c0-0.3-0.1-0.5-0.2-0.6s-0.3-0.2-0.6-0.2c-0.5,0-1,0.2-1.5,0.5l-0.4-0.6C117,83.4,117.6,83.2,118.3,83.2L118.3,83.2z    M117,86.5c0,0.2,0.1,0.3,0.2,0.4c0.1,0.1,0.2,0.1,0.5,0.1c0.4,0,0.9-0.1,1.3-0.4v-1c-0.6,0-1,0.1-1.4,0.3   C117.2,86,117,86.2,117,86.5L117,86.5z"></path>
	<path class="st1" d="M126.3,47.6l2.4,6.3V54h-0.9l-0.7-1.8h-2.7l-0.7,1.8h-0.9v-0.1l2.4-6.3H126.3L126.3,47.6z M124.7,51.4h2.1   l-1.1-2.9L124.7,51.4L124.7,51.4z"></path>
	<path class="st1" d="M131.9,49.6c0.9,0,1.3,0.5,1.3,1.4v3h-0.8v-2.7c0-0.2,0-0.4-0.1-0.6c0-0.1-0.1-0.2-0.2-0.3   c-0.1-0.1-0.3-0.1-0.5-0.1s-0.4,0-0.6,0.1c-0.2,0.1-0.4,0.1-0.6,0.2V54h-0.9v-4.3l0.8-0.1V50C130.9,49.7,131.4,49.6,131.9,49.6   L131.9,49.6z"></path>
	<path class="st1" d="M136.2,49.6c0.5,0,0.9,0.1,1.1,0.3c0.2,0.2,0.4,0.6,0.4,1.1v3h-0.8v-0.4c-0.4,0.3-1,0.5-1.5,0.5   c-0.2,0-0.5,0-0.7-0.1s-0.3-0.2-0.4-0.4c-0.1-0.2-0.2-0.4-0.2-0.6c0-0.4,0.1-0.7,0.4-0.9c0.3-0.2,0.6-0.4,1-0.5s0.9-0.2,1.4-0.2   v-0.2c0-0.3-0.1-0.5-0.2-0.6c-0.1-0.1-0.3-0.2-0.6-0.2c-0.5,0-1,0.2-1.5,0.5l-0.4-0.6C134.9,49.8,135.6,49.6,136.2,49.6L136.2,49.6   z M135,52.9c0,0.2,0.1,0.3,0.2,0.4c0.1,0.1,0.2,0.1,0.5,0.1c0.4,0,0.9-0.1,1.3-0.4v-1c-0.6,0-1,0.1-1.4,0.3   C135.2,52.4,135,52.6,135,52.9L135,52.9z"></path>
	<polygon class="st1" points="139,54 139,47.2 139.9,47.1 139.9,54  "></polygon>
	<path class="st1" d="M144.8,49.7L144.8,49.7l-1.6,4.6c-0.1,0.4-0.3,0.7-0.5,1c-0.2,0.2-0.3,0.4-0.5,0.5s-0.4,0.2-0.7,0.2   s-0.6,0-0.8-0.1l0.2-0.6c0.2,0.1,0.4,0.1,0.6,0.1c0.1,0,0.3,0,0.4-0.1c0.1,0,0.2-0.1,0.3-0.3c0.1-0.1,0.2-0.3,0.3-0.6l0.1-0.3h-0.2   l-1.6-4.2v-0.1h0.9l1,2.7l0.1,0.3l0.2,0.5l0.2-0.8l0.9-2.7h0.7V49.7z"></path>
	<path class="st1" d="M148.3,53.8c-0.3,0.2-0.7,0.3-1.1,0.3c-0.4,0-0.7-0.1-0.9-0.3s-0.3-0.6-0.3-1v-2.4h-0.9v-0.7h0.9v-1l0.8-0.1   v1.1h1.4l-0.1,0.7h-1.3v2.2c0,0.5,0.2,0.8,0.6,0.8c0.1,0,0.2,0,0.3,0s0.2-0.1,0.4-0.1L148.3,53.8L148.3,53.8z"></path>
	<path class="st1" d="M149.5,48.8c-0.1,0-0.2,0-0.3-0.1s-0.2-0.1-0.2-0.2c-0.1-0.1-0.1-0.2-0.1-0.3s0-0.2,0.1-0.3s0.1-0.2,0.2-0.2   c0.1-0.1,0.2-0.1,0.3-0.1s0.2,0,0.3,0.1s0.2,0.1,0.2,0.2c0.1,0.1,0.1,0.2,0.1,0.3s0,0.2-0.1,0.3s-0.1,0.2-0.2,0.2   C149.7,48.8,149.6,48.8,149.5,48.8L149.5,48.8z M149.1,54v-4.3l0.8-0.1V54L149.1,54L149.1,54z"></path>
	<path class="st1" d="M152.9,54.1c-0.6,0-1.1-0.2-1.5-0.5s-0.5-0.9-0.5-1.6c0-0.5,0.1-1,0.3-1.3c0.2-0.4,0.5-0.6,0.8-0.8   s0.7-0.2,1-0.2c0.4,0,0.9,0.1,1.3,0.4l-0.3,0.6c-0.2-0.1-0.4-0.2-0.6-0.2c-0.2,0-0.3-0.1-0.5-0.1c-0.4,0-0.7,0.1-0.9,0.4   c-0.2,0.3-0.3,0.7-0.3,1.2s0.1,0.9,0.3,1.1c0.2,0.2,0.5,0.3,0.9,0.3c0.2,0,0.4,0,0.6-0.1c0.2-0.1,0.4-0.2,0.6-0.3l0.3,0.6   c-0.2,0.2-0.5,0.3-0.7,0.4C153.5,54.1,153.2,54.1,152.9,54.1L152.9,54.1z"></path>
	<path class="st1" d="M156.7,54.1c-0.4,0-0.7,0-1-0.1s-0.6-0.2-0.8-0.4l0.4-0.6c0.5,0.3,1,0.5,1.5,0.5c0.3,0,0.5-0.1,0.7-0.2   c0.2-0.1,0.2-0.2,0.2-0.4s-0.1-0.3-0.2-0.4c-0.1-0.1-0.4-0.2-0.7-0.3l-0.3-0.1c-0.5-0.1-0.8-0.3-1-0.5s-0.3-0.4-0.3-0.8   c0-0.2,0.1-0.5,0.2-0.6c0.1-0.2,0.3-0.3,0.6-0.4c0.2-0.1,0.5-0.2,0.8-0.2s0.6,0,0.8,0.1c0.3,0.1,0.5,0.2,0.8,0.3l-0.3,0.6   c-0.3-0.1-0.5-0.2-0.7-0.3s-0.4-0.1-0.6-0.1c-0.2,0-0.4,0-0.5,0.1s-0.2,0.2-0.2,0.4c0,0.1,0.1,0.2,0.2,0.3c0.1,0.1,0.3,0.1,0.6,0.2   l0.3,0.1c0.4,0.1,0.7,0.2,0.9,0.3s0.4,0.3,0.5,0.4c0.1,0.2,0.2,0.4,0.2,0.6c0,0.3-0.1,0.5-0.2,0.7c-0.1,0.2-0.3,0.4-0.6,0.5   C157.4,54,157.1,54.1,156.7,54.1L156.7,54.1z"></path>
	<path class="st1" d="M104.3,58.6c1.1,0,1.9,0.3,2.4,0.8c0.6,0.5,0.8,1.3,0.8,2.4c0,0.7-0.1,1.3-0.4,1.8s-0.7,0.8-1.2,1.1   c-0.5,0.2-1.1,0.3-1.8,0.3h-1.7v-6.4L104.3,58.6L104.3,58.6z M104,64.2c0.6,0,1-0.1,1.4-0.2s0.7-0.4,0.9-0.7   c0.2-0.4,0.3-0.8,0.3-1.5c0-0.8-0.2-1.4-0.6-1.8s-1-0.6-1.8-0.6h-1v4.8L104,64.2L104,64.2z"></path>
	<path class="st1" d="M110.4,60.6c0.5,0,0.9,0.1,1.1,0.3c0.2,0.2,0.4,0.6,0.4,1.1v3h-0.8v-0.4c-0.4,0.3-1,0.5-1.5,0.5   c-0.2,0-0.5,0-0.7-0.1s-0.3-0.2-0.4-0.4c-0.1-0.2-0.2-0.4-0.2-0.6c0-0.4,0.1-0.7,0.4-0.9c0.3-0.2,0.6-0.4,1-0.5s0.9-0.2,1.4-0.2   v-0.2c0-0.3-0.1-0.5-0.2-0.6s-0.3-0.2-0.6-0.2c-0.5,0-1,0.2-1.5,0.5l-0.4-0.6C109.1,60.8,109.7,60.6,110.4,60.6L110.4,60.6z    M109.2,63.9c0,0.2,0.1,0.3,0.2,0.4s0.2,0.1,0.5,0.1c0.4,0,0.9-0.1,1.3-0.4v-1c-0.6,0-1,0.1-1.4,0.3   C109.3,63.4,109.2,63.6,109.2,63.9L109.2,63.9z"></path>
	<path class="st1" d="M115.7,64.8c-0.3,0.2-0.7,0.3-1.1,0.3s-0.7-0.1-0.9-0.3c-0.2-0.2-0.3-0.6-0.3-1v-2.4h-0.9v-0.7h0.9v-1l0.8-0.1   v1.1h1.4l-0.1,0.7h-1.3v2.2c0,0.5,0.2,0.8,0.6,0.8c0.1,0,0.2,0,0.3,0c0.1,0,0.2-0.1,0.4-0.1L115.7,64.8L115.7,64.8z"></path>
	<path class="st1" d="M118.3,60.6c0.5,0,0.9,0.1,1.1,0.3c0.2,0.2,0.4,0.6,0.4,1.1v3H119v-0.4c-0.4,0.3-1,0.5-1.5,0.5   c-0.2,0-0.5,0-0.7-0.1s-0.3-0.2-0.5-0.4c-0.1-0.2-0.2-0.4-0.2-0.6c0-0.4,0.1-0.7,0.4-0.9c0.3-0.2,0.6-0.4,1-0.5s0.9-0.2,1.4-0.2   v-0.2c0-0.3-0.1-0.5-0.2-0.6s-0.3-0.2-0.6-0.2c-0.5,0-1,0.2-1.5,0.5l-0.4-0.6C117,60.8,117.6,60.6,118.3,60.6L118.3,60.6z    M117,63.9c0,0.2,0.1,0.3,0.2,0.4s0.2,0.1,0.5,0.1c0.4,0,0.9-0.1,1.3-0.4v-1c-0.6,0-1,0.1-1.4,0.3C117.2,63.4,117,63.6,117,63.9   L117,63.9z"></path>
	<path class="st1" d="M122.7,65.1c-0.6,0-1.1-0.2-1.5-0.5s-0.5-0.9-0.5-1.6c0-0.5,0.1-1,0.3-1.3c0.2-0.4,0.5-0.6,0.8-0.8   c0.3-0.2,0.7-0.2,1-0.2c0.4,0,0.9,0.1,1.3,0.4l-0.3,0.6c-0.2-0.1-0.4-0.2-0.6-0.2s-0.3-0.1-0.5-0.1c-0.4,0-0.7,0.1-0.9,0.4   c-0.2,0.3-0.3,0.7-0.3,1.2s0.1,0.9,0.3,1.1c0.2,0.2,0.5,0.3,0.9,0.3c0.2,0,0.4,0,0.6-0.1s0.4-0.2,0.6-0.3l0.3,0.6   c-0.2,0.2-0.5,0.3-0.7,0.4C123.3,65,123,65.1,122.7,65.1L122.7,65.1z"></path>
	<path class="st1" d="M128.6,63h-3c0,0.5,0.1,0.8,0.4,1.1c0.2,0.2,0.5,0.3,0.9,0.3c0.3,0,0.5,0,0.7-0.1s0.4-0.2,0.6-0.3l0.3,0.6   c-0.5,0.3-1.1,0.5-1.7,0.5s-1.1-0.2-1.5-0.5s-0.6-0.9-0.6-1.7c0-0.4,0.1-0.8,0.2-1.2c0.2-0.4,0.4-0.6,0.7-0.8   c0.3-0.2,0.7-0.3,1.1-0.3s0.7,0.1,1,0.2c0.3,0.2,0.5,0.4,0.6,0.6c0.1,0.3,0.2,0.6,0.2,0.9L128.6,63L128.6,63z M126.8,61.2   c-0.3,0-0.6,0.1-0.8,0.3c-0.2,0.2-0.3,0.5-0.4,0.8h2.1l0,0c0-0.4-0.1-0.6-0.2-0.8C127.4,61.3,127.1,61.2,126.8,61.2L126.8,61.2z"></path>
	<path class="st1" d="M132,60.6c0.9,0,1.3,0.5,1.3,1.4v3h-0.8v-2.7c0-0.2,0-0.4-0.1-0.6c0-0.1-0.1-0.2-0.2-0.3   c-0.1-0.1-0.3-0.1-0.5-0.1s-0.4,0-0.6,0.1c-0.2,0.1-0.4,0.1-0.6,0.2V65h-0.8v-4.3l0.8-0.1V61C131,60.7,131.5,60.6,132,60.6   L132,60.6z"></path>
	<path class="st1" d="M137.1,64.8c-0.3,0.2-0.7,0.3-1.1,0.3c-0.4,0-0.7-0.1-0.9-0.3c-0.2-0.2-0.3-0.6-0.3-1v-2.4h-0.9v-0.7h0.9v-1   l0.8-0.1v1.1h1.4l-0.1,0.7h-1.3v2.2c0,0.5,0.2,0.8,0.6,0.8c0.1,0,0.2,0,0.3,0s0.2-0.1,0.4-0.1L137.1,64.8L137.1,64.8z"></path>
	<path class="st1" d="M141.3,63h-3c0,0.5,0.1,0.8,0.4,1.1c0.2,0.2,0.5,0.3,0.9,0.3c0.3,0,0.5,0,0.7-0.1s0.4-0.2,0.6-0.3l0.3,0.6   c-0.5,0.3-1.1,0.5-1.7,0.5c-0.6,0-1.1-0.2-1.5-0.5s-0.6-0.9-0.6-1.7c0-0.4,0.1-0.8,0.2-1.2c0.2-0.4,0.4-0.6,0.7-0.8   c0.3-0.2,0.7-0.3,1.1-0.3c0.4,0,0.7,0.1,1,0.2c0.3,0.2,0.5,0.4,0.6,0.6c0.1,0.3,0.2,0.6,0.2,0.9L141.3,63L141.3,63z M139.6,61.2   c-0.3,0-0.6,0.1-0.8,0.3c-0.2,0.2-0.3,0.5-0.4,0.8h2.1l0,0c0-0.4-0.1-0.6-0.2-0.8C140.1,61.3,139.9,61.2,139.6,61.2L139.6,61.2z"></path>
	<path class="st1" d="M144.4,60.6c0.1,0,0.2,0,0.3,0s0.2,0,0.3,0.1l-0.2,0.9c-0.2-0.1-0.4-0.1-0.6-0.1c-0.2,0-0.4,0-0.6,0.1   c-0.2,0.1-0.3,0.3-0.5,0.5V65h-0.8v-4.3l0.8-0.1v0.6c0.2-0.2,0.3-0.4,0.6-0.5S144.2,60.6,144.4,60.6L144.4,60.6z"></path>
	<path class="st1" d="M104.3,69.9c1.1,0,1.9,0.3,2.4,0.8c0.6,0.5,0.8,1.3,0.8,2.4c0,0.7-0.1,1.3-0.4,1.8s-0.7,0.8-1.2,1.1   c-0.5,0.2-1.1,0.3-1.8,0.3h-1.7v-6.4L104.3,69.9L104.3,69.9z M104,75.5c0.6,0,1-0.1,1.4-0.2s0.7-0.4,0.9-0.7   c0.2-0.4,0.3-0.8,0.3-1.5c0-0.8-0.2-1.4-0.6-1.8s-1-0.6-1.8-0.6h-1v4.8H104L104,75.5z"></path>
	<path class="st1" d="M112.1,74.3h-3c0,0.5,0.1,0.8,0.4,1.1c0.2,0.2,0.5,0.3,0.9,0.3c0.3,0,0.5,0,0.7-0.1s0.4-0.2,0.6-0.3l0.3,0.6   c-0.5,0.3-1.1,0.5-1.7,0.5s-1.1-0.2-1.5-0.5s-0.6-0.9-0.6-1.7c0-0.4,0.1-0.8,0.2-1.2c0.2-0.4,0.4-0.6,0.7-0.8   c0.3-0.2,0.7-0.3,1.1-0.3s0.7,0.1,1,0.2c0.3,0.2,0.5,0.4,0.6,0.6c0.1,0.3,0.2,0.6,0.2,0.9L112.1,74.3L112.1,74.3z M110.4,72.5   c-0.3,0-0.6,0.1-0.8,0.3c-0.2,0.2-0.3,0.5-0.4,0.8h2.1l0,0c0-0.4-0.1-0.6-0.2-0.8C110.9,72.6,110.7,72.5,110.4,72.5L110.4,72.5z"></path>
	<path class="st1" d="M116.6,72L116.6,72l-1.7,4.3h-0.8l-1.7-4.2V72h0.9l1,2.8c0,0.1,0.1,0.2,0.2,0.5l0.1,0.2   c0.1-0.2,0.1-0.4,0.2-0.6l1-2.8h0.8V72z"></path>
	<path class="st1" d="M120.1,76.4c-0.6,0-1.2-0.1-1.6-0.4s-0.8-0.7-1-1.2s-0.3-1.1-0.3-1.7c0-0.7,0.1-1.3,0.4-1.8s0.6-0.9,1.1-1.1   s1-0.4,1.5-0.4c0.6,0,1.2,0.1,1.6,0.4s0.8,0.7,1,1.2s0.3,1.1,0.3,1.7c0,0.7-0.1,1.3-0.4,1.8s-0.6,0.9-1.1,1.1   C121.1,76.3,120.6,76.4,120.1,76.4L120.1,76.4z M120.1,75.6c0.5,0,0.8-0.1,1.1-0.3c0.3-0.2,0.5-0.5,0.7-0.9s0.2-0.8,0.2-1.3   s-0.1-1-0.2-1.3c-0.1-0.4-0.4-0.7-0.7-0.9c-0.3-0.2-0.7-0.3-1.1-0.3c-0.5,0-0.8,0.1-1.1,0.3c-0.3,0.2-0.5,0.5-0.7,0.9   s-0.2,0.8-0.2,1.3s0.1,1,0.2,1.3c0.1,0.4,0.4,0.7,0.7,0.9C119.2,75.5,119.6,75.6,120.1,75.6L120.1,75.6z"></path>
	<path class="st1" d="M126.3,71.9c0.4,0,0.7,0.1,1,0.3c0.3,0.2,0.5,0.5,0.6,0.8s0.2,0.7,0.2,1.1c0,0.5-0.1,0.9-0.3,1.3   c-0.2,0.4-0.5,0.6-0.8,0.8c-0.3,0.2-0.7,0.3-1.1,0.3c-0.3,0-0.6,0-0.9-0.1v1.8h-0.8v-6.1L125,72v0.4c0.2-0.1,0.5-0.2,0.7-0.3   C125.9,71.9,126.1,71.9,126.3,71.9L126.3,71.9z M125.8,75.7c0.3,0,0.5-0.1,0.7-0.2s0.4-0.3,0.5-0.6c0.1-0.3,0.2-0.6,0.2-1   c0-0.5-0.1-0.9-0.3-1.1c-0.2-0.2-0.5-0.4-0.8-0.4c-0.4,0-0.7,0.1-1.1,0.3v2.7C125.3,75.7,125.6,75.7,125.8,75.7L125.8,75.7z"></path>
	<path class="st1" d="M130.5,76.4c-0.4,0-0.7,0-1-0.1s-0.6-0.2-0.8-0.4l0.4-0.6c0.5,0.3,1,0.5,1.5,0.5c0.3,0,0.5-0.1,0.7-0.2   s0.2-0.2,0.2-0.4c0-0.2-0.1-0.3-0.2-0.4c-0.1-0.1-0.4-0.2-0.7-0.3l-0.3-0.1c-0.5-0.1-0.8-0.3-1-0.5s-0.3-0.4-0.3-0.8   c0-0.2,0.1-0.5,0.2-0.6c0.1-0.2,0.3-0.3,0.6-0.4c0.2-0.1,0.5-0.2,0.8-0.2s0.6,0,0.8,0.1c0.3,0.1,0.5,0.2,0.8,0.3l-0.3,0.6   c-0.3-0.1-0.5-0.2-0.7-0.3c-0.2-0.1-0.4-0.1-0.6-0.1c-0.2,0-0.4,0-0.5,0.1s-0.2,0.2-0.2,0.4c0,0.1,0.1,0.2,0.2,0.3   c0.1,0.1,0.3,0.1,0.6,0.2l0.3,0.1c0.4,0.1,0.7,0.2,0.9,0.3c0.2,0.1,0.4,0.3,0.5,0.4c0.1,0.2,0.2,0.4,0.2,0.6c0,0.3-0.1,0.5-0.2,0.7   c-0.1,0.2-0.3,0.4-0.6,0.5C131.2,76.3,130.9,76.4,130.5,76.4L130.5,76.4z"></path>
	<path class="st0" d="M22.4,52.5v-9.1c0-0.7,0-1.5,0.1-2.6l0,0c-0.2,0.6-0.3,1.1-0.4,1.3l-4.6,10.4h-0.7l-4.6-10.3   c-0.1-0.3-0.2-0.7-0.4-1.3l0,0c0,0.5,0.1,1.3,0.1,2.6v9.1h-1.4V39.1h1.9l4.1,9.4c0.3,0.7,0.5,1.3,0.6,1.6h0.1   c0.2-0.5,0.4-1,0.6-1.6l4.2-9.4h1.8v13.4H22.4L22.4,52.5z"></path>
	<path class="st0" d="M27,39.5c0-0.3,0.1-0.5,0.3-0.7c0.2-0.2,0.4-0.3,0.7-0.3c0.3,0,0.5,0.1,0.7,0.3s0.3,0.4,0.3,0.7   s-0.1,0.5-0.3,0.7c-0.2,0.2-0.4,0.3-0.7,0.3c-0.3,0-0.5-0.1-0.7-0.3C27.1,40,27,39.7,27,39.5L27,39.5z M27.2,52.5v-9.6h1.4v9.6   H27.2L27.2,52.5z"></path>
	<path class="st0" d="M38.1,52c-0.7,0.4-1.6,0.7-2.6,0.7c-1.3,0-2.4-0.4-3.2-1.3c-0.8-0.9-1.2-2-1.2-3.5c0-1.6,0.4-2.9,1.3-3.8   c0.9-1,2.1-1.4,3.5-1.4c0.8,0,1.5,0.2,2.2,0.5v1.5c-0.7-0.5-1.5-0.8-2.3-0.8c-1,0-1.8,0.4-2.4,1.1c-0.6,0.7-0.9,1.6-0.9,2.8   c0,1.1,0.3,2,0.9,2.7s1.4,1,2.4,1c0.8,0,1.6-0.3,2.3-0.8V52L38.1,52z"></path>
	<path class="st0" d="M45.3,44.4c-0.3-0.2-0.6-0.3-1.1-0.3c-0.7,0-1.2,0.3-1.6,1c-0.4,0.6-0.6,1.5-0.6,2.5v4.9h-1.4v-9.6H42v2l0,0   c0.2-0.7,0.5-1.2,1-1.6c0.4-0.4,0.9-0.6,1.5-0.6c0.4,0,0.7,0,0.9,0.1v1.6H45.3z"></path>
	<path class="st0" d="M46.1,47.8c0-1.6,0.4-2.8,1.3-3.8c0.9-0.9,2-1.4,3.5-1.4c1.4,0,2.5,0.4,3.3,1.3c0.8,0.9,1.2,2.1,1.2,3.7   c0,1.5-0.4,2.7-1.3,3.6c-0.9,0.9-2,1.4-3.4,1.4s-2.5-0.4-3.3-1.3C46.5,50.5,46.1,49.3,46.1,47.8L46.1,47.8z M47.5,47.8   c0,1.1,0.3,2,0.9,2.7c0.6,0.7,1.4,1,2.3,1c1,0,1.8-0.3,2.3-1s0.8-1.6,0.8-2.8s-0.3-2.2-0.8-2.8c-0.5-0.7-1.3-1-2.3-1   s-1.8,0.3-2.3,1C47.8,45.6,47.5,46.6,47.5,47.8L47.5,47.8z"></path>
	<path class="st0" d="M57.1,50.5c0.8,0.6,1.7,0.9,2.7,0.9c1.3,0,2-0.5,2-1.4c0-0.4-0.1-0.7-0.4-1c-0.3-0.3-0.9-0.5-1.7-0.9   c-1-0.4-1.7-0.8-2-1.2s-0.5-0.9-0.5-1.6c0-0.8,0.3-1.5,1-2s1.5-0.8,2.6-0.8c0.8,0,1.5,0.1,2.2,0.4v1.5c-0.7-0.5-1.5-0.7-2.4-0.7   c-0.6,0-1,0.1-1.4,0.4c-0.4,0.3-0.5,0.6-0.5,1s0.1,0.7,0.4,1c0.2,0.2,0.8,0.5,1.6,0.9c1.1,0.4,1.8,0.8,2.2,1.3   c0.4,0.4,0.6,0.9,0.6,1.6c0,0.9-0.3,1.5-1,2s-1.6,0.7-2.7,0.7c-1,0-1.8-0.2-2.5-0.6v-1.5H57.1z"></path>
	<path class="st0" d="M65.1,47.8c0-1.6,0.4-2.8,1.3-3.8c0.9-0.9,2-1.4,3.5-1.4c1.4,0,2.5,0.4,3.3,1.3c0.8,0.9,1.2,2.1,1.2,3.7   c0,1.5-0.4,2.7-1.3,3.6c-0.9,0.9-2,1.4-3.4,1.4s-2.5-0.4-3.3-1.3C65.5,50.5,65.1,49.3,65.1,47.8L65.1,47.8z M66.5,47.8   c0,1.1,0.3,2,0.9,2.7s1.4,1,2.3,1c1,0,1.8-0.3,2.3-1s0.8-1.6,0.8-2.8s-0.3-2.2-0.8-2.8c-0.5-0.7-1.3-1-2.3-1s-1.8,0.3-2.3,1   C66.8,45.6,66.5,46.6,66.5,47.8L66.5,47.8z"></path>
	<path class="st0" d="M81,39.6c-0.3-0.2-0.6-0.3-1-0.3c-1.1,0-1.6,0.7-1.6,2.1v1.5h2.2v1.2h-2.2v8.3H77v-8.3h-1.6v-1.2H77v-1.6   c0-1,0.3-1.8,0.8-2.4c0.6-0.6,1.3-0.9,2.1-0.9c0.5,0,0.8,0.1,1.1,0.2V39.6L81,39.6z"></path>
	<path class="st0" d="M86.9,52.4c-0.3,0.2-0.8,0.3-1.4,0.3c-1.6,0-2.4-0.9-2.4-2.8v-5.8h-1.6v-1.2h1.6v-2.4l1.4-0.5v2.8h2.4V44h-2.4   v5.5c0,0.7,0.1,1.1,0.3,1.4c0.2,0.3,0.6,0.4,1.1,0.4c0.4,0,0.7-0.1,1-0.3V52.4L86.9,52.4z"></path>
	<path class="st0" d="M28.4,65.3v4.9h-1.5v-13h3.7c1.4,0,2.6,0.3,3.4,1s1.2,1.6,1.2,2.9c0,1.3-0.5,2.3-1.4,3.1   c-1,0.8-2.1,1.2-3.5,1.1H28.4L28.4,65.3z M28.4,58.5V64h1.7c1.1,0,2-0.2,2.6-0.7c0.6-0.5,0.9-1.2,0.9-2.1c0-1.7-1.1-2.6-3.3-2.6   h-1.9V58.5z"></path>
	<path class="st0" d="M37.2,61.6c1-0.6,2.1-0.9,3.3-0.9c2.3,0,3.4,1.1,3.4,3.4v6.1h-1.4v-1.5h-0.1c-0.7,1.1-1.7,1.7-3,1.7   c-1,0-1.7-0.2-2.3-0.7s-0.8-1.1-0.8-1.9c0-1.7,1.1-2.7,3.2-3l3-0.4c0-1.6-0.7-2.4-2.1-2.4c-1.2,0-2.3,0.4-3.2,1.2L37.2,61.6   L37.2,61.6z M40.1,65.8c-0.8,0.1-1.4,0.3-1.8,0.6c-0.3,0.3-0.5,0.7-0.5,1.3c0,0.5,0.2,0.8,0.5,1.1c0.4,0.3,0.8,0.4,1.4,0.4   c0.8,0,1.4-0.3,2-0.8c0.5-0.5,0.8-1.2,0.8-2v-0.9L40.1,65.8L40.1,65.8z"></path>
	<path class="st0" d="M52.1,62.4c-0.3-0.2-0.7-0.3-1.2-0.3c-0.7,0-1.3,0.3-1.7,0.9c-0.5,0.6-0.7,1.4-0.7,2.5v4.8H47V61h1.5v1.9l0,0   c0.2-0.7,0.6-1.2,1-1.5c0.5-0.4,1-0.5,1.5-0.5c0.4,0,0.7,0,1,0.1L52.1,62.4L52.1,62.4z"></path>
	<path class="st0" d="M58.9,70.2c-0.4,0.2-0.8,0.3-1.4,0.3c-1.7,0-2.5-0.9-2.5-2.7v-5.6h-1.7V61H55v-2.3l1.5-0.5V61H59v1.2h-2.5v5.3   c0,0.6,0.1,1.1,0.3,1.4s0.6,0.4,1.1,0.4c0.4,0,0.8-0.1,1-0.3L58.9,70.2L58.9,70.2z"></path>
	<path class="st0" d="M69.1,70.3h-1.5V65c0-2-0.8-3-2.3-3c-0.8,0-1.5,0.3-2,0.9c-0.5,0.6-0.8,1.3-0.8,2.2v5.3H61V61h1.5v1.6l0,0   c0.7-1.2,1.8-1.8,3.2-1.8c1.1,0,1.9,0.3,2.5,1s0.9,1.6,0.9,2.9V70.3L69.1,70.3z"></path>
	<path class="st0" d="M80,65.9h-7c0,1.1,0.3,1.9,0.9,2.5s1.4,0.9,2.3,0.9c1.1,0,2.1-0.4,3.1-1.1v1.3c-0.9,0.6-2,0.9-3.4,0.9   s-2.5-0.4-3.3-1.3c-0.8-0.8-1.2-2-1.2-3.6c0-1.4,0.4-2.6,1.3-3.5s1.9-1.4,3.2-1.4c1.3,0,2.3,0.4,3,1.2s1.1,1.9,1.1,3.3V65.9   L80,65.9z M78.5,64.7c0-0.9-0.2-1.6-0.7-2C77.4,62.2,76.7,62,76,62c-0.7,0-1.4,0.2-1.9,0.7s-0.9,1.2-1,2H78.5L78.5,64.7z"></path>
	<path class="st0" d="M87.5,62.4c-0.3-0.2-0.7-0.3-1.2-0.3c-0.7,0-1.3,0.3-1.7,0.9c-0.5,0.6-0.7,1.4-0.7,2.5v4.8h-1.5V61h1.5v1.9   l0,0c0.2-0.7,0.6-1.2,1-1.5c0.5-0.4,1-0.5,1.5-0.5c0.4,0,0.7,0,1,0.1L87.5,62.4L87.5,62.4z"></path>
	<path class="st2" d="M49.5,83.7c0-0.3,0-3.8,0-4.4v-1.4c0,0.1,0.1,0.5,0.2,0.8c0.1,0.2,0.2,0.5,0.3,0.7c0.2,0.5,0.4,0.9,0.6,1.4   c0.4,1,0.8,1.9,1.2,2.9h0.8c0.6-1.6,1.4-3.4,2-5.1l0.2-0.7l0,0c0,0.5-0.1,0.9-0.1,1.4c0,0.6,0,4.1,0,4.4h1.2v-7.1h-1.7L53.7,78   c-0.4,1-1,2.4-1.3,3.4c0,0.1-0.2,0.6-0.2,0.7l-1-2.7c-0.2-0.5-0.4-0.9-0.5-1.3c-0.2-0.4-0.3-0.9-0.5-1.3h-1.7v7.1L49.5,83.7   L49.5,83.7z"></path>
	<path class="st2" d="M84,78.6c0-1.2,0-1.8,1.3-1.4v-1c-0.7-0.3-1.6,0-2,0.4c-0.6,0.6-0.5,1.1-0.5,2.1H82v1h0.8c0,0.5,0,3.9,0,4.1   H84v-4.1h1.8c0,0.8-0.1,2.7,0.1,3.3c0.1,0.4,0.4,0.7,0.9,0.9C87,84,87.3,84,87.6,84s0.4-0.1,0.7-0.2v-1c-0.3,0.1-0.6,0.3-0.9,0.1   c-0.3-0.2-0.3-0.5-0.3-0.9c0-0.8,0-1.6,0-2.3h1.2v-1h-1.2v-1.5l-1.2,0.4v1.2H84V78.6z"></path>
	<path class="st2" d="M69.4,79.5c1-0.1,1.5,0.6,1.5,1.5c0.1,1-0.3,1.8-1.2,1.9c-1,0.1-1.5-0.6-1.5-1.5   C68.2,80.4,68.5,79.6,69.4,79.5L69.4,79.5z M72.2,81.4c0.1-1.7-0.7-2.8-2.3-2.9c-1.7-0.1-2.7,0.8-2.9,2.4c-0.1,1.7,0.7,2.9,2.3,3   C71,84,72.1,83,72.2,81.4L72.2,81.4z"></path>
	<path class="st2" d="M79.1,79.5c1-0.1,1.5,0.6,1.5,1.5c0.1,1-0.3,1.8-1.2,1.9c-1,0.1-1.5-0.5-1.5-1.5   C77.8,80.4,78.2,79.6,79.1,79.5L79.1,79.5z M81.8,81.5c0.2-1.7-0.7-2.9-2.2-3c-1.7-0.1-2.8,0.8-2.9,2.3c-0.2,1.7,0.7,2.9,2.2,3   C80.6,84,81.7,83,81.8,81.5L81.8,81.5z"></path>
	<path class="st2" d="M72.8,83.5C72.8,83.6,72.8,83.6,72.8,83.5c0.4,0.2,0.9,0.3,1.2,0.3c2,0.1,2.5-1.6,1.9-2.4   c-0.4-0.6-1.8-0.8-1.9-1.2c-0.3-0.7,0.5-0.9,1.3-0.7c0.2,0.1,0.4,0.2,0.5,0.2c0-0.3,0-0.6,0-0.9c0-0.2,0-0.2-0.1-0.3   c-0.6-0.2-1.3-0.2-1.8-0.1c-1.4,0.5-1.4,2-0.6,2.6c0.6,0.4,1.5,0.6,1.6,1c0.2,0.6-0.4,0.7-0.9,0.7c-0.4,0-0.7-0.2-0.9-0.3   c-0.1-0.1-0.2-0.1-0.3-0.2L72.8,83.5L72.8,83.5z"></path>
	<path class="st2" d="M63.1,82.4c-0.8,0.7-2.7,0.7-2.7-1.2c0-1.3,0.9-1.9,1.9-1.7c0.4,0.1,0.5,0.2,0.8,0.4v-1.2   c-0.2-0.1-0.4-0.1-0.7-0.2c-1.7-0.3-3.3,0.7-3.3,2.7c0,0.5,0.1,1,0.4,1.4c1,1.8,3.6,1.1,3.6,0.8V82.4L63.1,82.4z"></path>
	<path class="st2" d="M65.2,83.7c0.1-0.9-0.2-2.8,0.2-3.6c0.4-0.7,1-0.6,1.5-0.4v-1.2c-0.8-0.2-1.3,0.1-1.7,0.7c0,0,0,0,0,0.1   c0,0,0,0,0,0.1v-0.9H64v5.1L65.2,83.7L65.2,83.7z"></path>
	<polygon class="st2" points="57.1,83.7 58.3,83.7 58.3,78.6 57.1,78.6  "></polygon>
	<path class="st2" d="M57.6,76.5c-0.9,0.2-0.7,1.5,0.3,1.4C58.8,77.6,58.5,76.3,57.6,76.5L57.6,76.5z"></path>
	<polygon class="st3" points="33,86.1 38.3,86.1 38.6,86.1 38.6,80.5 33,80.5  "></polygon>
	<polygon class="st4" points="33,79.9 38.6,79.9 38.6,74.2 33,74.2  "></polygon>
	<polygon class="st5" points="44.8,74.2 39.2,74.2 39.2,79.9 44.8,79.9  "></polygon>
	<polygon class="st6" points="39.2,86.1 44.8,86.1 44.8,80.5 39.2,80.5  "></polygon>
	<path class="st1" d="M15.7,31.2v3.1c-0.4,0.2-0.7,0.3-1.1,0.4c-0.3,0.1-0.7,0.1-1.2,0.1c-0.7,0-1.3-0.1-1.7-0.4   c-0.4-0.3-0.8-0.7-1-1.2s-0.3-1.1-0.3-1.7c0-0.8,0.1-1.4,0.4-1.9c0.3-0.5,0.6-0.9,1.1-1.1s1-0.3,1.5-0.3c0.4,0,0.8,0,1.1,0.1   s0.7,0.2,1,0.4l-0.4,0.7c-0.2-0.1-0.5-0.3-0.7-0.3C14.1,29,13.8,29,13.5,29c-0.7,0-1.3,0.2-1.6,0.7c-0.3,0.4-0.5,1-0.5,1.8   c0,0.8,0.2,1.4,0.5,1.9c0.3,0.4,0.8,0.7,1.6,0.7c0.5,0,0.9-0.1,1.3-0.2V32h-1.6l0.1-0.8H15.7L15.7,31.2z"></path>
	<path class="st1" d="M18.7,34.8c-0.5,0-0.8-0.1-1.1-0.3c-0.3-0.2-0.5-0.5-0.7-0.8c-0.1-0.3-0.2-0.7-0.2-1.2s0.1-1,0.3-1.3   c0.2-0.3,0.5-0.6,0.8-0.7c0.3-0.2,0.7-0.2,1.1-0.2c0.5,0,0.8,0.1,1.1,0.3c0.3,0.2,0.5,0.5,0.7,0.8c0.1,0.3,0.2,0.7,0.2,1.2   s-0.1,1-0.3,1.3c-0.2,0.3-0.5,0.6-0.8,0.7C19.5,34.8,19.1,34.8,18.7,34.8L18.7,34.8z M18.7,34.2c0.8,0,1.2-0.5,1.2-1.6   c0-0.5-0.1-0.9-0.3-1.1c-0.1-0.4-0.4-0.5-0.8-0.5c-0.5,0-0.8,0.1-1,0.4s-0.3,0.7-0.3,1.2s0.1,0.9,0.3,1.2   C18,34,18.3,34.2,18.7,34.2L18.7,34.2z"></path>
	<polygon class="st1" points="21.9,34.7 21.9,28 22.7,27.9 22.7,34.7  "></polygon>
	<path class="st1" d="M27.7,27.9v6.8h-0.8v-0.3c-0.2,0.1-0.5,0.2-0.7,0.3s-0.5,0.1-0.7,0.1c-0.4,0-0.7-0.1-1-0.3s-0.5-0.4-0.6-0.7   s-0.2-0.7-0.2-1.1c0-0.5,0.1-0.9,0.3-1.3c0.2-0.4,0.5-0.6,0.8-0.8c0.3-0.2,0.7-0.3,1.1-0.3c0.3,0,0.6,0,0.9,0.1V28L27.7,27.9   L27.7,27.9z M24.6,32.7c0,0.5,0.1,0.9,0.3,1.1c0.2,0.2,0.5,0.4,0.8,0.4c0.4,0,0.7-0.1,1.1-0.3v-2.7C26.5,31,26.3,31,26,31   s-0.5,0.1-0.7,0.2s-0.4,0.3-0.5,0.6C24.7,32,24.6,32.3,24.6,32.7L24.6,32.7z"></path>
</g>
</svg>
