<?xml version="1.0" encoding="UTF-8"?>
<svg xmlns="http://www.w3.org/2000/svg" xmlns:xlink="http://www.w3.org/1999/xlink" viewBox="0 0 350 170">
  <defs>
    <style>.a{fill:none;}.b{clip-path:url(#a);}.c{isolation:isolate;}.d{fill:#225e63;}.e{fill:#fefefe;}.f{fill:#2bbc5d;}</style>
    <clipPath id="a">
      <path class="a" d="M-87.27,42.87A42.13,42.13,0,0,1-45.14,85a42.13,42.13,0,0,1-42.13,42.13A42.13,42.13,0,0,1-129.4,85,42.13,42.13,0,0,1-87.27,42.87Z"></path>
    </clipPath>
  </defs>
  <g class="c">
    <path class="d" d="M225.71,92.21l2.77.84a4.75,4.75,0,0,1-.87,1.94,3.7,3.7,0,0,1-1.48,1.16,5.55,5.55,0,0,1-2.27.41,6.8,6.8,0,0,1-2.73-.46,4.24,4.24,0,0,1-1.8-1.71,5.7,5.7,0,0,1-.79-3.1,5.43,5.43,0,0,1,1.34-3.89,5,5,0,0,1,3.79-1.34,5.15,5.15,0,0,1,3,.79,4.2,4.2,0,0,1,1.62,2.4l-2.78.61a1.58,1.58,0,0,0-.32-.7,1.84,1.84,0,0,0-.65-.55,1.77,1.77,0,0,0-.83-.19,1.79,1.79,0,0,0-1.62.88,3.74,3.74,0,0,0-.41,2,4,4,0,0,0,.5,2.31,1.78,1.78,0,0,0,1.44.65,1.72,1.72,0,0,0,1.34-.51A3.19,3.19,0,0,0,225.71,92.21Z"></path>
    <path class="d" d="M229.59,91.29A4.81,4.81,0,0,1,234.87,86a5.47,5.47,0,0,1,3.93,1.34,5.14,5.14,0,0,1,1.38,3.84,5.88,5.88,0,0,1-.6,2.91,4.3,4.3,0,0,1-1.75,1.76,5.89,5.89,0,0,1-2.83.65,6.57,6.57,0,0,1-2.86-.56,4.44,4.44,0,0,1-1.85-1.76A5.22,5.22,0,0,1,229.59,91.29Zm3.15,0a3.55,3.55,0,0,0,.55,2.22,1.89,1.89,0,0,0,1.58.69,2,2,0,0,0,1.57-.64A3.86,3.86,0,0,0,237,91.2a2.85,2.85,0,0,0-.6-2.08,1.88,1.88,0,0,0-1.57-.65,1.86,1.86,0,0,0-1.53.69A3.1,3.1,0,0,0,232.74,91.29Z"></path>
    <path class="d" d="M241.8,86.2h4.12l1.57,6.2,1.57-6.2h4.12V96.38h-2.59V88.61l-2,7.77h-2.31l-2-7.77v7.77h-2.59V86.2Z"></path>
    <path class="d" d="M255.21,86.2h5.23A3.43,3.43,0,0,1,263,87a3.08,3.08,0,0,1,.84,2.32,3.17,3.17,0,0,1-.93,2.4,3.9,3.9,0,0,1-2.82.88h-1.71v3.79h-3.15V86.2Zm3.15,4.35h.79a2,2,0,0,0,1.29-.32,1.09,1.09,0,0,0,.37-.79,1.11,1.11,0,0,0-.32-.83,1.64,1.64,0,0,0-1.21-.33h-.87v2.27Z"></path>
    <path class="d" d="M265.48,86.2h3.15v7.68h4.9v2.5h-8V86.2Z"></path>
    <path class="d" d="M275.1,86.2h3.15V96.38H275.1Z"></path>
    <path class="d" d="M286.75,94.67h-3.56l-.51,1.66h-3.19l3.84-10.17h3.42l3.84,10.17h-3.28Zm-.64-2.18L285,88.84l-1.11,3.65Z"></path>
    <path class="d" d="M291.56,86.2h2.92l3.84,5.64V86.2h3V96.38h-3l-3.8-5.6v5.6h-3V86.2Z"></path>
    <path class="d" d="M302.66,86.2h9.58v2.5h-3.19v7.68H305.9V88.7h-3.19V86.2Z"></path>
  </g>
  <path class="d" d="M187.88,101.69,197,98.83l-3-6.57A75.38,75.38,0,0,0,187.88,101.69Zm-3.1-30L166.93,31.91,36.24,39.31l36.21,98.78,69.69-22c-4.44-6.38-6.06-14-.92-17.66,5.73-4.16,14.38.65,19.88,7.44C166.42,97,181.36,76.35,184.78,71.68Z"></path>
  <path class="e" d="M162.86,60.65a9.62,9.62,0,0,0,9.9-9.34,9.92,9.92,0,0,0-19.8,0C153,56.44,157.4,60.65,162.86,60.65Zm-8.09,4H171V107H154.77Z"></path>
  <path class="e" d="M146.76,77c.14,0,.24,0,.24-.14V66.15a.51.51,0,0,0-.24-.37s-2.12-1.38-8.6-1.75a44.55,44.55,0,0,0-7.54,0c-23.58,1.89-24.46,19-24.46,19.7v4.16c0,.51,0,17.94,24.46,19.47,2.41.18,7.08,0,7.54,0a25.84,25.84,0,0,0,9.53-1.71.35.35,0,0,0,.23-.32v-10c0-.14-.09-.19-.18-.09s-1.76,1.38-9.44,2.17a13.66,13.66,0,0,1-4,0c-10.92-1.85-11.42-9.8-11.42-9.8s0-.37,0-.47v-3a1.3,1.3,0,0,1,0-.46s.74-8.56,11.42-9.48h4A24.09,24.09,0,0,1,146.76,77Z"></path>
  <path class="e" d="M61.21,106.85a.22.22,0,0,0,.23.23H77.21a.22.22,0,0,0,.23-.23V94.55a.22.22,0,0,1,.23-.23s25.21,1.8,25.21-15.08c0-13.36-15.82-14.8-21-14.57H61.44a.22.22,0,0,0-.23.24ZM77.16,84.93V73.88h3.89s5.59.23,6.06,4.07a9.46,9.46,0,0,1,0,2.26c-.74,4.49-5.6,4.72-5.6,4.72Z"></path>
  <path class="f" d="M163.32,127.41a8.31,8.31,0,0,0,4-.74c5.73-3,25.11-50.32,45.55-64.89a1.3,1.3,0,0,0,.37-.37.66.66,0,0,0,.14-.37s0-1-3-1c-18.18-.51-37.09,37.65-47,52.72-.14.19-.78,0-.78,0s-6.66-7.86-12.44-10.86a4,4,0,0,0-1.48-.24,8.43,8.43,0,0,0-4.4,1.85c-1.48,1.58-1.43,2.46-1.43,4.35a3.08,3.08,0,0,0,.28,1.11,94.64,94.64,0,0,0,13.18,16.28C157,125.88,158.28,127.41,163.32,127.41Z"></path>
  <g class="c">
    <path class="d" d="M218.22,47.49h15.12a18.16,18.16,0,0,1,7.21,1.21,11.81,11.81,0,0,1,4.54,3.47,14.06,14.06,0,0,1,2.59,5.27,23.82,23.82,0,0,1,.83,6.38,22.6,22.6,0,0,1-1.2,8.18A13.61,13.61,0,0,1,244,76.91a11.62,11.62,0,0,1-4.58,2.63,23.44,23.44,0,0,1-6.06.88H218.22V47.49Zm10.17,7.45v18h2.5a10.62,10.62,0,0,0,4.53-.69,4.94,4.94,0,0,0,2.13-2.46,15.4,15.4,0,0,0,.78-5.73c0-3.51-.55-5.87-1.71-7.17s-3-1.94-5.68-1.94Z"></path>
    <path class="d" d="M251.33,69.55,261,69a7.63,7.63,0,0,0,1.3,3.61,5.35,5.35,0,0,0,4.48,2,5,5,0,0,0,3.38-1,2.94,2.94,0,0,0,.09-4.67c-.74-.69-2.5-1.29-5.23-1.9-4.48-1-7.63-2.35-9.57-4a8,8,0,0,1-2.87-6.38,8.77,8.77,0,0,1,1.48-4.81,9.72,9.72,0,0,1,4.44-3.56,20.41,20.41,0,0,1,8.1-1.3c4.21,0,7.44.79,9.62,2.36s3.51,4.07,3.93,7.49l-9.62.56A5.29,5.29,0,0,0,269,54.06a5.09,5.09,0,0,0-3.38-1,4,4,0,0,0-2.68.74,2.3,2.3,0,0,0-.88,1.85,1.85,1.85,0,0,0,.74,1.44,8.66,8.66,0,0,0,3.42,1.2,44.66,44.66,0,0,1,9.58,2.91A10,10,0,0,1,280,64.84a9.23,9.23,0,0,1,1.29,4.9,10.38,10.38,0,0,1-1.76,5.83,10.94,10.94,0,0,1-4.9,4.07A19.85,19.85,0,0,1,266.64,81C261,81,257.16,80,255,77.79A13.21,13.21,0,0,1,251.33,69.55Z"></path>
  </g>
  <g class="c">
    <path class="d" d="M283.84,69.55l9.71-.6a7.63,7.63,0,0,0,1.3,3.61,5.35,5.35,0,0,0,4.48,2,5,5,0,0,0,3.38-1,3.1,3.1,0,0,0,1.2-2.36,3.14,3.14,0,0,0-1.11-2.31c-.74-.69-2.5-1.29-5.22-1.9-4.49-1-7.63-2.35-9.58-4a8.13,8.13,0,0,1-2.86-6.38,8.69,8.69,0,0,1,1.48-4.81,9.62,9.62,0,0,1,4.44-3.56,20.33,20.33,0,0,1,8.09-1.3c4.21,0,7.44.79,9.62,2.36s3.51,4.07,3.93,7.49l-9.62.56a5.29,5.29,0,0,0-1.62-3.24,5.09,5.09,0,0,0-3.38-1,4,4,0,0,0-2.68.74,2.3,2.3,0,0,0-.88,1.85,1.88,1.88,0,0,0,.74,1.44,8.66,8.66,0,0,0,3.43,1.2,44.53,44.53,0,0,1,9.57,2.91,10,10,0,0,1,4.21,3.66,9.23,9.23,0,0,1,1.29,4.9A10.45,10.45,0,0,1,312,75.57a11,11,0,0,1-4.91,4.07,19.85,19.85,0,0,1-8,1.38c-5.6,0-9.48-1.06-11.66-3.23A12.75,12.75,0,0,1,283.84,69.55Z"></path>
  </g>
</svg>
