<?xml version="1.0" encoding="UTF-8"?>
<!-- Generator: Adobe Illustrator 25.3.1, SVG Export Plug-In . SVG Version: 6.00 Build 0)  -->
<svg xmlns="http://www.w3.org/2000/svg" xmlns:xlink="http://www.w3.org/1999/xlink" version="1.1" id="Layer_1" x="0px" y="0px" viewBox="0 0 240 108" style="enable-background:new 0 0 240 108;" xml:space="preserve">
<style type="text/css">
	.st0{fill:none;}
	.st1{fill:#A7A9AC;}
</style>
<g>
	<rect class="st0" width="240" height="108"></rect>
	<g>
		<g id="Partner">
			<path class="st1" d="M135.6,40.5H128v19.8h3.9V54h3.6c4.3,0,7.1-2.5,7.1-6.8C142.7,43.1,140,40.5,135.6,40.5z M135.2,50.7H132v-7     h3.2c2.3,0,3.6,1.3,3.6,3.5C138.7,49.5,137.5,50.7,135.2,50.7L135.2,50.7z"></path>
			<path class="st1" d="M156.4,44.7v2.4c-1.1-1.8-3-2.7-5.1-2.6c-4.3,0-7.2,3.4-7.2,8s3,8,7.2,8c2.4,0,4.1-0.7,5.1-2.3v2.2h3.9V44.7     H156.4z M152.3,57c-2.7,0-4.1-1.9-4.1-4.5c0-2.8,1.5-4.6,4.1-4.6s4.1,1.9,4.1,4.6S154.6,57.1,152.3,57L152.3,57z"></path>
			<path class="st1" d="M172.3,44.6v3.6c-4.5,0-5.5,1.6-5.5,5.5v6.7h-3.9V44.7h3.9v2.8C167.5,45.6,169.6,44.6,172.3,44.6z"></path>
			<path class="st1" d="M230,44.6v3.6c-4.5,0-5.5,1.6-5.5,5.5v6.7h-3.9V44.7h3.9v2.8C225.2,45.6,227.3,44.6,230,44.6z"></path>
			<path class="st1" d="M181.9,57h1.6v3.4h-2.1c-3.7,0-5.3-1.8-5.3-5.4v-6.7h-1.9v-3.4h1.9v-4.2h3.9v4.2h3.5v3.4h-3.5v6.7     C180.1,56.2,180.4,57,181.9,57z"></path>
			<path class="st1" d="M200.8,51.3v9h-3.9v-8.6c0-2.3-1.3-3.9-3.6-3.9s-3.6,1.6-3.6,4.2v8.2h-3.9V44.7h3.9V47     c0.9-1.6,2.7-2.5,4.6-2.4C197.9,44.6,200.8,47.2,200.8,51.3z"></path>
			<path class="st1" d="M217.4,48.2c-0.7-1.1-1.6-2.1-2.7-2.6c-1.2-0.7-2.6-1-4-0.9c-1.4,0-2.8,0.3-4,0.9c-1.2,0.7-2.2,1.6-2.7,2.7     c-0.7,1.3-1,2.8-1,4.2c0,1.5,0.3,2.9,1,4.2c0.7,1.2,1.6,2.2,2.7,2.8c1.2,0.7,2.6,1,4,0.9c1.2,0,2.4-0.3,3.6-0.7     c1-0.5,1.9-1.1,2.6-2c0.7-0.7,1-1.7,1.3-2.6H214c-0.4,1.5-1.8,2.3-3.5,2.3c-2,0.1-3.7-1.4-3.8-3.4c0-0.1,0-0.3,0-0.4h11.7     C218.6,51.8,218.3,49.9,217.4,48.2z M206.6,50.9c0-1.6,1.9-3.3,4-3.3s3.6,1.6,3.6,3.3H206.6z"></path>
			<path class="st1" d="M130.5,77.4c-1.7,0-2.9-0.9-2.9-2.3h1.4c0,0.7,0.7,1.3,1.4,1.2h0.1c0.9,0,1.5-0.5,1.5-1.2     c0-2-4.4-0.7-4.4-3.7c0-1.4,1.1-2.3,2.8-2.3c1.7,0,2.7,0.8,2.8,2.2h-1.5c-0.1-0.7-0.7-1.1-1.4-1.1c-0.7,0-1.4,0.4-1.4,1.1     c0,1.9,4.4,0.7,4.4,3.7C133.3,76.2,132.3,77.4,130.5,77.4z"></path>
			<path class="st1" d="M136,69.1h1.3v8.2H136V69.1z"></path>
			<path class="st1" d="M141.7,69.1v7.1h2.8v1.1h-4.1v-8.2H141.7z"></path>
			<path class="st1" d="M151.2,69.1h1.4l-3.1,8.2h-1.5l-3.1-8.2h1.4l2.3,6.8L151.2,69.1z"></path>
			<path class="st1" d="M159.3,70.2h-3.2v2.4h2.8v1h-2.8v2.5h3.2v1.1h-4.6v-8.2h4.6V70.2z"></path>
			<path class="st1" d="M164.7,69.1c2,0,2.9,1.1,2.9,2.4c0,1.1-0.7,2.2-1.9,2.3l2.1,3.4h-1.6l-1.9-3.3h-1v3.3H162V69L164.7,69.1     L164.7,69.1z M164.7,70.2h-1.5v2.7h1.5c1,0,1.5-0.6,1.5-1.4C166.2,70.6,165.8,70.2,164.7,70.2z"></path>
		</g>
		<g id="UiPath">
			<path d="M10,30.6h38.4V69H10C10,69,10,30.6,10,30.6z M44.3,64.9V34.5H13.9v30.4H44.3z M17.4,40.5v11.6c0,5.3,2.9,8.4,7.9,8.4     s8-3.2,8-8.4V40.5h-3.9v11.6c0,3-1.3,4.7-3.9,4.7s-3.9-1.8-3.9-4.7V40.5H17.4z M38.3,42.9c1.3,0.1,2.3-0.9,2.4-2.2     c0-0.1,0-0.1,0-0.2c0-1.3-1.1-2.4-2.4-2.4s-2.4,1.1-2.4,2.4l0,0c0,1.3,0.9,2.3,2.2,2.3C38.2,42.9,38.2,42.9,38.3,42.9z      M36.4,44.7v15.5h3.9V44.7H36.4z M60,54c4.3,0,7.1-2.5,7.1-6.8c0-4.1-2.7-6.6-7.1-6.6h-7.6v19.8h3.9V54L60,54z M59.7,50.8h-3.2     v-7.1h3.2c2.3,0,3.6,1.3,3.6,3.5C63.2,49.5,61.9,50.7,59.7,50.8L59.7,50.8z M68.6,52.6c0,4.6,3,8,7.2,8c2.5,0,4.1-0.9,5.1-2.4     v2.2h3.9V44.7h-3.9v2.4c-1-1.8-3-2.7-5.1-2.6C71.5,44.6,68.6,47.9,68.6,52.6L68.6,52.6z M80.8,52.6c0,2.7-1.7,4.5-4.1,4.5     c-2.7,0-4.1-1.9-4.1-4.5c0-2.8,1.5-4.6,4.1-4.6C79.3,48,80.8,49.9,80.8,52.6L80.8,52.6z M94.8,57c-1.5,0-2-0.7-2-2.1v-6.8h3.5     v-3.4h-3.5v-4.2h-3.9v4.2h-1.9v3.4h1.9v6.7c0,3.6,1.6,5.4,5.3,5.4h2.1v-3.4L94.8,57z M102.5,47v-7.4h-3.9v20.8h3.9v-8.2     c0-2.6,1.4-4.2,3.7-4.2s3.6,1.5,3.6,3.9v8.6h3.9v-9c0-4.1-2.9-6.7-6.5-6.7C104.8,44.6,103.4,45.4,102.5,47L102.5,47z M113.5,39.5     v0.7h1.3v4h0.7v-4h1.2v-0.7H113.5z M121.8,39.5l-1.6,3.6l-1.5-3.6h-0.9v4.6h0.7v-3.5l1.5,3.5h0.6l1.5-3.5v3.5h0.7v-4.6H121.8z"></path>
		</g>
	</g>
</g>
</svg>
